$MeshFormat
4.1 0 8
$EndMeshFormat
$Entities
4 4 1 0
1 9000 694.3 0 0 
2 0 694.300000000001 0 0 
3 0 0 0 0 
4 9000 1.39283253578085e-28 0 0 
1 -9.999985195463523e-08 694.2999999 -1e-07 9000.000000100001 694.3000001000011 1e-07 0 2 1 -2 
2 -1e-07 -1.000000224848918e-07 -1e-07 1e-07 694.3000001000009 1e-07 0 2 2 -3 
3 -9.999985195463523e-08 -1e-07 -1e-07 9000.000000100001 1e-07 1e-07 0 2 3 -4 
4 8999.999999899999 -1.000000224848918e-07 -1e-07 9000.000000100003 694.3000000999999 1e-07 0 2 4 -1 
1 -9.999985195463523e-08 -1.000000224848918e-07 -1e-07 9000.000000100003 694.3000001000011 1e-07 0 4 1 2 3 4 
$EndEntities
$Nodes
9 92 1 92
0 1 0 1
1
9000 694.3 0
0 2 0 1
2
0 694.300000000001 0
0 3 0 1
3
0 0 0
0 4 0 1
4
9000 1.39283253578085e-28 0
1 1 0 19
5
6
7
8
9
10
11
12
13
14
15
16
17
18
19
20
21
22
23
8550 694.3 0
8099.999999999998 694.3000000000001 0
7649.999999999997 694.3000000000001 0
7199.999999999996 694.3000000000002 0
6749.999999999996 694.3000000000002 0
6299.999999999996 694.3000000000003 0
5849.999999999996 694.3000000000003 0
5399.999999999996 694.3000000000004 0
4949.999999999997 694.3000000000004 0
4499.999999999997 694.3000000000005 0
4049.999999999997 694.3000000000005 0
3599.999999999998 694.3000000000006 0
3149.999999999998 694.3000000000006 0
2699.999999999999 694.3000000000008 0
2249.999999999999 694.3000000000008 0
1799.999999999999 694.3000000000009 0
1349.999999999999 694.3000000000009 0
899.9999999999991 694.300000000001 0
450 694.300000000001 0
1 2 0 3
24
25
26
0 520.7250000000012 0
0 347.1500000000014 0
0 173.5750000000007 0
1 3 0 19
27
28
29
30
31
32
33
34
35
36
37
38
39
40
41
42
43
44
45
450.0000000000009 6.964162678904277e-30 0
900.0000000000017 1.392832535780855e-29 0
1350.000000000003 2.089248803671284e-29 0
1800.000000000004 2.785665071561712e-29 0
2250.000000000004 3.482081339452138e-29 0
2700.000000000004 4.178497607342564e-29 0
3150.000000000004 4.874913875232991e-29 0
3600.000000000003 5.571330143123416e-29 0
4050.000000000003 6.267746411013842e-29 0
4500.000000000003 6.964162678904268e-29 0
4950.000000000003 7.660578946794695e-29 0
5400.000000000002 8.35699521468512e-29 0
5850.000000000002 9.053411482575546e-29 0
6300.000000000001 9.749827750465972e-29 0
6750.000000000001 1.04462440183564e-28 0
7200.000000000001 1.114266028624683e-28 0
7650.000000000001 1.183907655413725e-28 0
8100.000000000001 1.253549282202768e-28 0
8550 1.32319090899181e-28 0
1 4 0 3
46
47
48
9000 173.5749999999996 0
9000.000000000002 347.1499999999992 0
9000.000000000002 520.7249999999996 0
2 1 0 44
49
50
51
52
53
54
55
56
57
58
59
60
61
62
63
64
65
66
67
68
69
70
71
72
73
74
75
76
77
78
79
80
81
82
83
84
85
86
87
88
89
90
91
92
7806.380408989466 304.2054381626179 0
8468.198047911694 342.565141254139 0
1193.619591010535 390.0945618373827 0
531.8019520883058 351.7348587458615 0
6600.155540791426 308.6177748042546 0
5997.253523869625 385.0159709713639 0
2399.844459208575 385.6822251957459 0
3002.746476130375 309.2840290286367 0
4199.844459208574 308.6177748042548 0
4802.746476130373 385.0159709713639 0
6900.077770395713 154.3088874021273 0
6450.077770395713 154.3088874021273 0
7953.190204494733 152.1027190813089 0
7503.190204494733 152.102719081309 0
4349.922229604288 154.3088874021274 0
3899.922229604289 154.3088874021274 0
3301.373238065189 154.6420145143183 0
2851.373238065189 154.6420145143183 0
2099.922229604287 539.9911125978733 0
2549.922229604287 539.9911125978733 0
1046.809795505267 542.1972809186918 0
1496.809795505267 542.1972809186917 0
4651.373238065185 539.6579854856823 0
5101.373238065185 539.6579854856822 0
5698.626761934811 539.6579854856822 0
6148.626761934811 539.657985485682 0
7199.999999999998 347.1500000000001 0
7953.190204494732 499.252719081309 0
6148.626761934813 192.5079854856819 0
5399.999999999999 347.1500000000002 0
3600.000000000001 347.1500000000003 0
4349.922229604285 501.4588874021276 0
1800.000000000001 347.1500000000004 0
1046.809795505268 195.0472809186913 0
4651.373238065187 192.507985485682 0
2549.922229604289 192.841112597873 0
2851.373238065187 501.7920145143187 0
715.900976044154 175.8674293729308 0
715.9009760441522 523.0174293729312 0
6450.077770395711 501.4588874021275 0
8284.099023955845 518.4325706270696 0
8284.099023955849 171.2825706270695 0
8734.099023955849 344.8575706270691 0
265.9009760441531 349.4424293729315 0
$EndNodes
$Elements
9 84 1 84
0 1 15 1
1 1 
0 2 15 1
2 2 
0 3 15 1
3 3 
0 4 15 1
4 4 
1 1 1 20
5 1 5 
6 5 6 
7 6 7 
8 7 8 
9 8 9 
10 9 10 
11 10 11 
12 11 12 
13 12 13 
14 13 14 
15 14 15 
16 15 16 
17 16 17 
18 17 18 
19 18 19 
20 19 20 
21 20 21 
22 21 22 
23 22 23 
24 23 2 
1 2 1 4
25 2 24 
26 24 25 
27 25 26 
28 26 3 
1 3 1 20
29 3 27 
30 27 28 
31 28 29 
32 29 30 
33 30 31 
34 31 32 
35 32 33 
36 33 34 
37 34 35 
38 35 36 
39 36 37 
40 37 38 
41 38 39 
42 39 40 
43 40 41 
44 41 42 
45 42 43 
46 43 44 
47 44 45 
48 45 4 
1 4 1 4
49 4 46 
50 46 47 
51 47 48 
52 48 1 
2 1 2 32
53 42 59 41 
54 59 60 41 
55 59 53 60 
56 41 60 40 
57 44 61 43 
58 61 62 43 
59 61 49 62 
60 43 62 42 
61 36 63 35 
62 63 64 35 
63 63 57 64 
64 35 64 34 
65 34 65 33 
66 65 66 33 
67 65 56 66 
68 33 66 32 
69 20 67 19 
70 67 68 19 
71 67 55 68 
72 19 68 18 
73 22 69 21 
74 69 70 21 
75 69 51 70 
76 21 70 20 
77 14 71 13 
78 71 72 13 
79 71 58 72 
80 13 72 12 
81 12 73 11 
82 73 74 11 
83 73 54 74 
84 11 74 10 
$EndElements
