$MeshFormat
4.1 0 8
$EndMeshFormat
$PhysicalNames
3
1 1 "Fixed"
1 2 "Loaded"
2 3 "Beam"
$EndPhysicalNames
$Entities
4 4 1 0
1 0 0 0 0 
2 10 0 0 0 
3 10 1 0 0 
4 0 1 0 0 
1 0 0 0 10 0 0 0 2 1 -2 
2 10 0 0 10 1 0 1 2 2 2 -3 
3 0 1 0 10 1 0 0 2 3 -4 
4 0 0 0 0 1 0 1 1 2 4 -1 
1 0 0 0 10 1 0 1 3 4 1 2 3 4 
$EndEntities
$Nodes
9 85 1 85
0 1 0 1
1
0 0 0
0 2 0 1
2
10 0 0
0 3 0 1
3
10 1 0
0 4 0 1
4
0 1 0
1 1 0 19
5
6
7
8
9
10
11
12
13
14
15
16
17
18
19
20
21
22
23
0.9999999999991853 0 0
1.999999999996818 0 0
2.999999999993897 0 0
3.999999999991012 0 0
4.999999999992394 0 0
5.999999999993916 0 0
6.999999999995437 0 0
7.999999999996959 0 0
8.999999999998479 0 0
0.499999999999468 0 0
1.499999999998296 0 0
2.499999999995493 0 0
3.499999999992617 0 0
4.499999999991824 0 0
5.499999999993356 0 0
6.499999999994623 0 0
7.49999999999644 0 0
8.499999999998121 0 0
9.499999999999671 0 0
1 2 0 3
24
25
26
10 0.4999999999986921 0
10 0.2499999999994184 0
10 0.7499999999993461 0
1 3 0 19
27
28
29
30
31
32
33
34
35
36
37
38
39
40
41
42
43
44
45
9.000000000000002 1 0
8.000000000000004 1 0
7.000000000000005 1 0
6.000000000000004 1 0
5.000000000000004 1 0
4.000000000000004 1 0
3.000000000000003 1 0
2.000000000000002 1 0
1 1 0
9.500000000000963 1 0
8.500000000000814 1 0
7.499999999999449 1 0
6.500000000000142 1 0
5.50000000000021 1 0
4.499999999999849 1 0
3.49999999999992 1 0
2.500000000000515 1 0
1.49999999999943 1 0
0.5000000000001243 1 0
1 4 0 3
46
47
48
0 0.5000000000020595 0
0 0.7500000000007599 0
0 0.2500000000010297 0
2 1 0 37
49
50
51
52
53
54
55
56
57
58
59
60
61
62
63
64
65
66
67
68
69
70
71
72
73
74
75
76
77
78
79
80
81
82
83
84
85
0.9999999999995925 0.5000000000017227 0
1.99999999999841 0.5000000000013859 0
2.99999999999695 0.5000000000010493 0
3.999999999995508 0.5000000000007127 0
4.999999999996199 0.5000000000003758 0
5.999999999996961 0.500000000000039 0
6.999999999997721 0.4999999999997023 0
7.999999999998481 0.4999999999993655 0
8.99999999999924 0.4999999999990289 0
0.9999999999993889 0.2500000000008614 0
0.4999999999997963 0.5000000000018912 0
0.9999999999997963 0.7500000000008613 0
1.999999999997614 0.2500000000006929 0
1.499999999999001 0.5000000000015543 0
1.999999999999206 0.750000000000693 0
2.999999999995423 0.2500000000005246 0
2.49999999999768 0.5000000000012176 0
2.999999999998476 0.7500000000005247 0
3.99999999999326 0.2500000000003563 0
3.499999999996229 0.500000000000881 0
3.999999999997756 0.7500000000003564 0
4.999999999994296 0.2500000000001879 0
4.499999999995853 0.5000000000005442 0
4.999999999998101 0.7500000000001878 0
5.999999999995438 0.2500000000000195 0
5.49999999999658 0.5000000000002074 0
5.999999999998483 0.7500000000000195 0
6.999999999996579 0.2499999999998512 0
6.499999999997341 0.4999999999998707 0
6.999999999998863 0.7499999999998512 0
7.99999999999772 0.2499999999996828 0
7.499999999998101 0.4999999999995339 0
7.999999999999242 0.7499999999996827 0
8.99999999999886 0.2499999999995144 0
8.49999999999886 0.4999999999991972 0
8.99999999999962 0.7499999999995144 0
9.49999999999962 0.4999999999988605 0
$EndNodes
$Elements
3 24 1 24
1 2 8 2
1 2 24 25 
2 24 3 26 
1 4 8 2
3 4 46 47 
4 46 1 48 
2 1 16 20
5 1 5 49 46 14 58 59 48 
6 46 49 35 4 59 60 45 47 
7 5 6 50 49 15 61 62 58 
8 49 50 34 35 62 63 44 60 
9 6 7 51 50 16 64 65 61 
10 50 51 33 34 65 66 43 63 
11 7 8 52 51 17 67 68 64 
12 51 52 32 33 68 69 42 66 
13 8 9 53 52 18 70 71 67 
14 52 53 31 32 71 72 41 69 
15 9 10 54 53 19 73 74 70 
16 53 54 30 31 74 75 40 72 
17 10 11 55 54 20 76 77 73 
18 54 55 29 30 77 78 39 75 
19 11 12 56 55 21 79 80 76 
20 55 56 28 29 80 81 38 78 
21 12 13 57 56 22 82 83 79 
22 56 57 27 28 83 84 37 81 
23 13 2 24 57 23 25 85 82 
24 57 24 3 27 85 26 36 84 
$EndElements
