$MeshFormat
4.1 0 8
$EndMeshFormat
$Entities
4 4 1 0
1 -150 -392.300904918661 0 0 
2 150 -392.300904918661 0 0 
3 -1.75000000000139 -419.996354150843 0 0 
4 1.74999999999862 -419.996354150843 0 0 
1 -150.0000001 -392.300905018661 -1e-07 150.0000001 -392.300904818661 1e-07 0 2 1 -2 
2 -150.0000001000001 -419.996354250843 -1e-07 -1.749999900001413 -392.3009048186609 1e-07 0 2 3 -1 
3 -1.75000010000139 -419.996354250843 -1e-07 1.75000009999862 -419.996354050843 1e-07 0 2 4 -3 
4 1.74999989999867 -419.9963542508424 -1e-07 150.0000000999999 -392.3009048186605 1e-07 0 2 2 -4 
1 -150.0000001000001 -419.996354250843 -1e-07 150.0000001 -392.3009048186605 1e-07 0 4 -1 -2 -3 -4 
$EndEntities
$Nodes
9 192 1 192
0 1 0 1
1
-150 -392.300904918661 0
0 2 0 1
2
150 -392.300904918661 0
0 3 0 1
3
-1.75000000000139 -419.996354150843 0
0 4 0 1
4
1.74999999999862 -419.996354150843 0
1 1 0 79
5
6
7
8
9
10
11
12
13
14
15
16
17
18
19
20
21
22
23
24
25
26
27
28
29
30
31
32
33
34
35
36
37
38
39
40
41
42
43
44
45
46
47
48
49
50
51
52
53
54
55
56
57
58
59
60
61
62
63
64
65
66
67
68
69
70
71
72
73
74
75
76
77
78
79
80
81
82
83
-146.25 -392.300904918661 0
-142.5 -392.300904918661 0
-138.75 -392.300904918661 0
-135 -392.300904918661 0
-131.25 -392.300904918661 0
-127.5 -392.300904918661 0
-123.75 -392.300904918661 0
-120 -392.300904918661 0
-116.25 -392.300904918661 0
-112.5 -392.300904918661 0
-108.75 -392.300904918661 0
-105 -392.300904918661 0
-101.25 -392.300904918661 0
-97.50000000000001 -392.300904918661 0
-93.75000000000001 -392.300904918661 0
-90.00000000000001 -392.300904918661 0
-86.25000000000003 -392.300904918661 0
-82.50000000000004 -392.300904918661 0
-78.75000000000006 -392.300904918661 0
-75.00000000000007 -392.300904918661 0
-71.25000000000009 -392.300904918661 0
-67.5000000000001 -392.300904918661 0
-63.7500000000001 -392.300904918661 0
-60.00000000000011 -392.300904918661 0
-56.25000000000011 -392.300904918661 0
-52.50000000000013 -392.300904918661 0
-48.75000000000013 -392.300904918661 0
-45.00000000000014 -392.300904918661 0
-41.25000000000016 -392.300904918661 0
-37.50000000000017 -392.300904918661 0
-33.75000000000017 -392.300904918661 0
-30.00000000000018 -392.300904918661 0
-26.2500000000002 -392.300904918661 0
-22.50000000000021 -392.300904918661 0
-18.75000000000023 -392.300904918661 0
-15.00000000000023 -392.300904918661 0
-11.25000000000023 -392.300904918661 0
-7.500000000000227 -392.300904918661 0
-3.750000000000227 -392.300904918661 0
-2.557953848736361e-13 -392.300904918661 0
3.749999999999716 -392.300904918661 0
7.499999999999716 -392.300904918661 0
11.24999999999972 -392.300904918661 0
14.99999999999969 -392.300904918661 0
18.74999999999966 -392.300904918661 0
22.49999999999966 -392.300904918661 0
26.24999999999966 -392.300904918661 0
29.99999999999963 -392.300904918661 0
33.7499999999996 -392.300904918661 0
37.4999999999996 -392.300904918661 0
41.2499999999996 -392.300904918661 0
44.99999999999957 -392.300904918661 0
48.74999999999957 -392.300904918661 0
52.49999999999957 -392.300904918661 0
56.24999999999955 -392.300904918661 0
59.99999999999955 -392.300904918661 0
63.74999999999955 -392.300904918661 0
67.49999999999955 -392.300904918661 0
71.24999999999955 -392.300904918661 0
74.99999999999952 -392.300904918661 0
78.74999999999952 -392.300904918661 0
82.49999999999952 -392.300904918661 0
86.24999999999949 -392.300904918661 0
89.99999999999949 -392.300904918661 0
93.74999999999952 -392.300904918661 0
97.49999999999955 -392.300904918661 0
101.2499999999996 -392.300904918661 0
104.9999999999996 -392.300904918661 0
108.7499999999996 -392.300904918661 0
112.4999999999997 -392.300904918661 0
116.2499999999997 -392.300904918661 0
119.9999999999997 -392.300904918661 0
123.7499999999997 -392.300904918661 0
127.4999999999998 -392.300904918661 0
131.2499999999998 -392.300904918661 0
134.9999999999998 -392.300904918661 0
138.7499999999998 -392.300904918661 0
142.4999999999999 -392.300904918661 0
146.2499999999999 -392.300904918661 0
1 2 0 47
84
85
86
87
88
89
90
91
92
93
94
95
96
97
98
99
100
101
102
103
104
105
106
107
108
109
110
111
112
113
114
115
116
117
118
119
120
121
122
123
124
125
126
127
128
129
130
-4.909876651812979 -419.9841960079028 0
-8.069566184609712 -419.9477222990537 0
-11.22888149045797 -419.8869351841661 0
-14.38763548358415 -419.8018382628821 0
-17.5456411114546 -419.6924365744022 0
-20.70271136585109 -419.558736597187 0
-23.85865929394633 -419.4007462485734 0
-27.01329800937327 -419.2184748843057 0
-30.16644070329347 -419.011933297982 0
-33.31790065545805 -418.7811337204143 0
-36.46749124526599 -418.5260898189053 0
-39.61502596281393 -418.2468166964377 0
-42.76031841994231 -417.9433308907812 0
-45.90318236127128 -417.6156503735121 0
-49.04343167523092 -417.2637945489498 0
-52.18088040508276 -416.8877842530073 0
-55.31534275993049 -416.4876417519577 0
-58.44663312572241 -416.0633907411151 0
-61.57456607624393 -415.6150563434322 0
-64.69895638409609 -415.142665108012 0
-67.81961903166625 -414.6462450085357 0
-70.93636922208252 -414.1258254416067 0
-74.04902239015843 -413.5814372250088 0
-77.15739421332098 -413.0131125958825 0
-80.26130062252707 -412.4208852088148 0
-83.3605578131622 -411.8047901338475 0
-86.45498225592614 -411.1648638543991 0
-89.5443907076998 -410.5011442651055 0
-92.62860022239765 -409.8136706695755 0
-95.70742816179984 -409.1024837780633 0
-98.78069220636912 -408.3676257050578 0
-101.8482103660456 -407.6091399667888 0
-104.9098009910254 -406.8270714786501 0
-107.9652827825157 -406.0214665525396 0
-111.0144748034725 -405.1923728941168 0
-114.0571964893137 -404.3398395999782 0
-117.0932676586125 -403.4639171547494 0
-120.1225085237669 -402.5646574280958 0
-123.1447397016467 -401.6421136716511 0
-126.159782224215 -400.6963405158639 0
-129.1674575491276 -399.7273939667623 0
-132.1675875703042 -398.7353314026379 0
-135.1599946284772 -397.7202115706475 0
-138.1445015217101 -396.6820945833347 0
-141.120931515893 -395.6210419150698 0
-144.0891083552064 -394.53711639841 0
-147.04885627256 -393.4303822203777 0
1 3 0 15
131
132
133
134
135
136
137
138
139
140
141
142
143
144
145
1.531249999998619 -419.996354150843 0
1.312499999998617 -419.996354150843 0
1.093749999998616 -419.996354150843 0
0.8749999999986148 -419.996354150843 0
0.6562499999986136 -419.996354150843 0
0.4374999999986122 -419.996354150843 0
0.2187499999986109 -419.996354150843 0
-1.390443316040546e-12 -419.996354150843 0
-0.2187500000013904 -419.996354150843 0
-0.4375000000013902 -419.996354150843 0
-0.6562500000013902 -419.996354150843 0
-0.8750000000013902 -419.996354150843 0
-1.09375000000139 -419.996354150843 0
-1.31250000000139 -419.996354150843 0
-1.53125000000139 -419.996354150843 0
1 4 0 47
146
147
148
149
150
151
152
153
154
155
156
157
158
159
160
161
162
163
164
165
166
167
168
169
170
171
172
173
174
175
176
177
178
179
180
181
182
183
184
185
186
187
188
189
190
191
192
147.0488562725596 -393.4303822203775 0
144.0891083552061 -394.5371163984098 0
141.1209315158926 -395.6210419150698 0
138.1445015217098 -396.6820945833348 0
135.1599946284767 -397.7202115706477 0
132.1675875703039 -398.7353314026382 0
129.1674575491271 -399.7273939667626 0
126.1597822242146 -400.6963405158642 0
123.1447397016462 -401.6421136716516 0
120.1225085237665 -402.5646574280963 0
117.093267658612 -403.4639171547499 0
114.0571964893131 -404.3398395999789 0
111.0144748034719 -405.1923728941176 0
107.9652827825151 -406.0214665525403 0
104.9098009910245 -406.827071478651 0
101.8482103660448 -407.6091399667898 0
98.78069220636817 -408.3676257050587 0
95.70742816179894 -409.1024837780643 0
92.62860022239661 -409.8136706695766 0
89.54439070769881 -410.5011442651065 0
86.45498225592503 -411.1648638544001 0
83.36055781316094 -411.8047901338485 0
80.2613006225257 -412.4208852088159 0
77.15739421331965 -413.0131125958836 0
74.04902239015696 -413.5814372250099 0
70.93636922208108 -414.1258254416077 0
67.81961903166469 -414.6462450085368 0
64.69895638409454 -415.142665108013 0
61.57456607624223 -415.6150563434333 0
58.44663312572079 -416.0633907411161 0
55.3153427599287 -416.4876417519586 0
52.18088040508104 -416.8877842530082 0
49.04343167522924 -417.2637945489507 0
45.90318236126945 -417.6156503735129 0
42.76031841994051 -417.943330890782 0
39.61502596281218 -418.2468166964384 0
36.46749124526408 -418.5260898189059 0
33.31790065545619 -418.7811337204149 0
30.16644070329129 -419.0119332979825 0
27.01329800937111 -419.2184748843061 0
23.85865929394403 -419.4007462485737 0
20.70271136584866 -419.5587365971872 0
17.54564111145202 -419.6924365744023 0
14.38763548358162 -419.8018382628821 0
11.22888149045532 -419.886935184166 0
8.069566184607073 -419.9477222990535 0
4.909876651810195 -419.9841960079024 0
2 1 0 0
$EndNodes
$Elements
8 196 1 196
0 1 15 1
1 1 
0 2 15 1
2 2 
0 3 15 1
3 3 
0 4 15 1
4 4 
1 1 1 80
5 1 5 
6 5 6 
7 6 7 
8 7 8 
9 8 9 
10 9 10 
11 10 11 
12 11 12 
13 12 13 
14 13 14 
15 14 15 
16 15 16 
17 16 17 
18 17 18 
19 18 19 
20 19 20 
21 20 21 
22 21 22 
23 22 23 
24 23 24 
25 24 25 
26 25 26 
27 26 27 
28 27 28 
29 28 29 
30 29 30 
31 30 31 
32 31 32 
33 32 33 
34 33 34 
35 34 35 
36 35 36 
37 36 37 
38 37 38 
39 38 39 
40 39 40 
41 40 41 
42 41 42 
43 42 43 
44 43 44 
45 44 45 
46 45 46 
47 46 47 
48 47 48 
49 48 49 
50 49 50 
51 50 51 
52 51 52 
53 52 53 
54 53 54 
55 54 55 
56 55 56 
57 56 57 
58 57 58 
59 58 59 
60 59 60 
61 60 61 
62 61 62 
63 62 63 
64 63 64 
65 64 65 
66 65 66 
67 66 67 
68 67 68 
69 68 69 
70 69 70 
71 70 71 
72 71 72 
73 72 73 
74 73 74 
75 74 75 
76 75 76 
77 76 77 
78 77 78 
79 78 79 
80 79 80 
81 80 81 
82 81 82 
83 82 83 
84 83 2 
1 2 1 48
85 3 84 
86 84 85 
87 85 86 
88 86 87 
89 87 88 
90 88 89 
91 89 90 
92 90 91 
93 91 92 
94 92 93 
95 93 94 
96 94 95 
97 95 96 
98 96 97 
99 97 98 
100 98 99 
101 99 100 
102 100 101 
103 101 102 
104 102 103 
105 103 104 
106 104 105 
107 105 106 
108 106 107 
109 107 108 
110 108 109 
111 109 110 
112 110 111 
113 111 112 
114 112 113 
115 113 114 
116 114 115 
117 115 116 
118 116 117 
119 117 118 
120 118 119 
121 119 120 
122 120 121 
123 121 122 
124 122 123 
125 123 124 
126 124 125 
127 125 126 
128 126 127 
129 127 128 
130 128 129 
131 129 130 
132 130 1 
1 3 1 16
133 4 131 
134 131 132 
135 132 133 
136 133 134 
137 134 135 
138 135 136 
139 136 137 
140 137 138 
141 138 139 
142 139 140 
143 140 141 
144 141 142 
145 142 143 
146 143 144 
147 144 145 
148 145 3 
1 4 1 48
149 2 146 
150 146 147 
151 147 148 
152 148 149 
153 149 150 
154 150 151 
155 151 152 
156 152 153 
157 153 154 
158 154 155 
159 155 156 
160 156 157 
161 157 158 
162 158 159 
163 159 160 
164 160 161 
165 161 162 
166 162 163 
167 163 164 
168 164 165 
169 165 166 
170 166 167 
171 167 168 
172 168 169 
173 169 170 
174 170 171 
175 171 172 
176 172 173 
177 173 174 
178 174 175 
179 175 176 
180 176 177 
181 177 178 
182 178 179 
183 179 180 
184 180 181 
185 181 182 
186 182 183 
187 183 184 
188 184 185 
189 185 186 
190 186 187 
191 187 188 
192 188 189 
193 189 190 
194 190 191 
195 191 192 
196 192 4 
$EndElements
