$MeshFormat
4.1 0 8
$EndMeshFormat
$PhysicalNames
3
1 1 "Fixed"
1 2 "Loaded"
2 3 "Wheel"
$EndPhysicalNames
$Entities
17 24 9 0
1 0 0 0 0 
2 4.361938736533601 -99.90482215818578 0 0 
3 1.499943750632805 -99.98875021093592 0 0 
4 -1.499943750632793 -99.98875021093592 0 0 
5 -4.361938736533589 -99.90482215818578 0 0 
6 6.542908104800401 -149.8572332372787 0 0 
7 2.249915625949208 -149.9831253164039 0 0 
8 -2.24991562594919 -149.9831253164039 0 0 
9 -6.542908104800383 -149.8572332372787 0 0 
10 10.904846841334 -249.7620553954644 0 0 
11 3.749859376582014 -249.9718755273398 0 0 
12 -3.749859376581983 -249.9718755273398 0 0 
13 -10.90484684133397 -249.7620553954644 0 0 
14 13.0858162096008 -299.7144664745574 0 0 
15 4.499831251898416 -299.9662506328078 0 0 
16 -4.49983125189838 -299.9662506328078 0 0 
17 -13.08581620960077 -299.7144664745574 0 0 
1 1.499943750632806 -99.98875021093595 0 4.361938736533602 -99.90482215818579 0 1 1 2 2 -3 
2 -1.499943750632793 -99.99986111114326 0 1.499943750632805 -99.98875021093592 0 1 1 2 3 -4 
3 -4.361938736533587 -99.98875021093592 0 -1.499943750632769 -99.90482215818578 0 1 1 2 4 -5 
4 2.24991562594921 -149.983125316404 0 6.542908104800404 -149.8572332372787 0 0 2 6 -7 
5 -2.249915625949191 -149.9997916667149 0 2.249915625949209 -149.9831253164039 0 0 2 7 -8 
6 -6.542908104800384 -149.9831253164039 0 -2.24991562594919 -149.8572332372787 0 0 2 8 -9 
7 3.749859376582015 -249.9718755273398 0 10.904846841334 -249.7620553954644 0 0 2 10 -11 
8 -3.749859376581983 -249.9996527778581 0 3.749859376582013 -249.9718755273398 0 0 2 11 -12 
9 -10.90484684133397 -249.9718755273398 0 -3.749859376581921 -249.7620553954644 0 0 2 12 -13 
10 4.499831251898421 -299.9662506328079 0 13.08581620960081 -299.7144664745575 0 0 2 14 -15 
11 -4.499831251898382 -299.9995833334299 0 4.499831251898417 -299.9662506328078 0 1 2 2 15 -16 
12 -13.08581620960077 -299.9662506328078 0 -4.499831251898381 -299.7144664745574 0 0 2 16 -17 
13 4.361938736533601 -149.8572332372787 0 6.542908104800401 -99.90482215818578 0 0 2 2 -6 
14 6.542908104800401 -249.7620553954644 0 10.904846841334 -149.8572332372787 0 0 2 6 -10 
15 10.904846841334 -299.7144664745574 0 13.0858162096008 -249.7620553954644 0 0 2 10 -14 
16 1.499943750632805 -149.9831253164039 0 2.249915625949208 -99.98875021093592 0 0 2 3 -7 
17 2.249915625949208 -249.9718755273398 0 3.749859376582014 -149.9831253164039 0 0 2 7 -11 
18 3.749859376582014 -299.9662506328078 0 4.499831251898416 -249.9718755273398 0 0 2 11 -15 
19 -2.24991562594919 -149.9831253164039 0 -1.499943750632793 -99.98875021093592 0 0 2 4 -8 
20 -3.749859376581983 -249.9718755273398 0 -2.24991562594919 -149.9831253164039 0 0 2 8 -12 
21 -4.49983125189838 -299.9662506328078 0 -3.749859376581983 -249.9718755273398 0 0 2 12 -16 
22 -6.542908104800383 -149.8572332372787 0 -4.361938736533589 -99.90482215818578 0 0 2 5 -9 
23 -10.90484684133397 -249.7620553954644 0 -6.542908104800383 -149.8572332372787 0 0 2 9 -13 
24 -13.08581620960077 -299.7144664745574 0 -10.90484684133397 -249.7620553954644 0 0 2 13 -17 
1 1.499943750632806 -149.983125316404 0 6.542908104800404 -99.90482215818578 0 1 3 4 1 16 -4 -13 
2 -2.249915625949191 -149.9997916667149 0 2.249915625949209 -99.98875021093592 0 1 3 4 2 19 -5 -16 
3 -6.542908104800384 -149.9831253164039 0 -1.499943750632769 -99.90482215818578 0 1 3 4 3 22 -6 -19 
4 2.249915625949208 -249.9718755273398 0 10.904846841334 -149.8572332372787 0 1 3 4 4 17 -7 -14 
5 -3.749859376581983 -249.9996527778581 0 3.749859376582013 -149.9831253164039 0 1 3 4 5 20 -8 -17 
6 -10.90484684133397 -249.9718755273398 0 -2.24991562594919 -149.8572332372787 0 1 3 4 6 23 -9 -20 
7 3.749859376582014 -299.9662506328079 0 13.08581620960081 -249.7620553954644 0 1 3 4 7 18 -10 -15 
8 -4.499831251898382 -299.9995833334299 0 4.499831251898417 -249.9718755273398 0 1 3 4 8 21 -11 -18 
9 -13.08581620960077 -299.9662506328078 0 -3.749859376581922 -249.7620553954644 0 1 3 4 9 24 -12 -21 
$EndEntities
$Nodes
49 1253 1 1253
0 2 0 1
1
4.361938736533601 -99.90482215818578 0
0 3 0 1
2
1.499943750632805 -99.98875021093592 0
0 4 0 1
3
-1.499943750632793 -99.98875021093592 0
0 5 0 1
4
-4.361938736533589 -99.90482215818578 0
0 6 0 1
5
6.542908104800401 -149.8572332372787 0
0 7 0 1
6
2.249915625949208 -149.9831253164039 0
0 8 0 1
7
-2.24991562594919 -149.9831253164039 0
0 9 0 1
8
-6.542908104800383 -149.8572332372787 0
0 10 0 1
9
10.904846841334 -249.7620553954644 0
0 11 0 1
10
3.749859376582014 -249.9718755273398 0
0 12 0 1
11
-3.749859376581983 -249.9718755273398 0
0 13 0 1
12
-10.90484684133397 -249.7620553954644 0
0 14 0 1
13
13.0858162096008 -299.7144664745574 0
0 15 0 1
14
4.499831251898416 -299.9662506328078 0
0 16 0 1
15
-4.49983125189838 -299.9662506328078 0
0 17 0 1
16
-13.08581620960077 -299.7144664745574 0
1 1 0 5
17
18
19
20
21
3.408221908238707 -99.94190324095396 0
2.454194610941512 -99.96988010801867 0
3.885124564304954 -99.92450053475292 0
2.931241635801409 -99.95702988020675 0
1.977091693820505 -99.98045363186861 0
1 2 0 17
22
23
24
25
26
27
28
29
30
31
32
33
34
35
36
37
38
1.166640200007629 -99.99319452164596 0
0.8333236868846056 -99.99652779788345 0
0.4999979136747833 -99.99875000261915 0
0.1666665854463811 -99.99986111115003 0
-0.1666665929917468 -99.99986111113745 0
-0.4999979182243053 -99.99875000259638 0
-0.8333236877028078 -99.99652779787662 0
-1.166640200012933 -99.99319452164589 0
1.333293827291199 -99.99111124280051 0
0.9999833321197631 -99.99500004167949 0
0.6666617263860322 -99.99777778602167 0
0.33333271248759 -99.99944444497073 0
-4.412960885602502e-09 -100 0
-0.333332718580132 -99.99944444495041 0
-0.6666617288962895 -99.99777778600495 0
-0.999983332471031 -99.99500004167599 0
-1.333293827258125 -99.99111124280095 0
1 3 0 5
39
40
41
42
43
-2.454194616487325 -99.96988010788253 0
-3.408221911629855 -99.9419032408383 0
-1.977091750907973 -99.9804536307397 0
-2.931241629889252 -99.95702988038012 0
-3.885124565287047 -99.92450053471472 0
1 4 0 5
44
45
46
47
48
5.112332864073172 -149.9128548613725 0
3.681291918879146 -149.9548201619675 0
5.827686842012471 -149.8867508023023 0
4.396862455641477 -149.9355448202533 0
2.965637543791135 -149.9706804477424 0
1 5 0 17
49
50
51
52
53
54
55
56
57
58
59
60
61
62
63
64
65
1.749960301030723 -149.9897917824571 0
1.24998553092625 -149.9947916968202 0
0.749996872947841 -149.9981250039166 0
0.2499998826878498 -149.9997916667176 0
-0.2499998860611612 -149.9997916667119 0
-0.7499968763909748 -149.9981250038994 0
-1.249985533981909 -149.9947916967947 0
-1.749960301383984 -149.989791782453 0
1.999940741154611 -149.9866668641979 0
1.499974999238516 -149.9925000625087 0
0.9999925911507173 -149.9966666790221 0
0.4999990721510712 -149.9991666674447 0
-2.017828126810173e-09 -150.0000000000001 0
-0.4999990756295638 -149.9991666674331 0
-0.9999925944551489 -149.9966666790001 0
-1.499975001057241 -149.9925000624905 0
-1.999940742062513 -149.9866668641858 0
1 6 0 5
66
67
68
69
70
-3.681291923104322 -149.9548201618638 0
-5.112332869040813 -149.9128548612031 0
-2.965637543024495 -149.9706804477576 0
-4.39686246567123 -149.9355448199591 0
-5.827686847254069 -149.8867508020984 0
1 7 0 5
71
72
73
74
75
8.520554774291501 -249.8547581022589 0
6.135486535059131 -249.9247002698575 0
9.712811404911665 -249.8112513371098 0
7.328104094840294 -249.8925747003604 0
4.942729235024506 -249.9511340796622 0
1 8 0 17
76
77
78
79
80
81
82
83
84
85
86
87
88
89
90
91
92
2.916600501610315 -249.9829863040963 0
2.083309218557403 -249.9913194946974 0
1.249994789617857 -249.9968750065207 0
0.416666471970967 -249.9996527778611 0
-0.4166664745806079 -249.9996527778568 0
-1.249994792472251 -249.9968750065064 0
-2.083309221545988 -249.9913194946725 0
-2.916600502273713 -249.9829863040886 0
3.333234569329024 -249.9777781069866 0
2.499958332362641 -249.9875001041781 0
1.666654318959896 -249.9944444650342 0
0.8333317881121243 -249.9986111124038 0
-1.888829981311346e-09 -250 0
-0.8333317905777049 -249.9986111123956 0
-1.666654321945572 -249.9944444650143 0
-2.499958334776709 -249.987500104154 0
-3.333234569391108 -249.9777781069858 0
1 9 0 5
93
94
95
96
97
-6.135486543150627 -249.9247002696589 0
-8.520554779501825 -249.8547581020812 0
-4.94272910399755 -249.9511340822532 0
-7.328104103778054 -249.8925747000982 0
-9.712811513589875 -249.8112513328843 0
1 10 0 5
98
99
100
101
102
10.22466572814634 -299.825709722745 0
7.362583837758292 -299.909640323935 0
11.65537368402494 -299.7735016046045 0
8.793724911282954 -299.8710896405067 0
5.931275087582271 -299.9413608954849 0
1 11 0 17
103
104
105
106
107
108
109
110
111
112
113
114
115
116
117
118
119
3.499920602061447 -299.9795835649142 0
2.499971061852499 -299.9895833936405 0
1.499993745895682 -299.9962500078332 0
0.4999997653756996 -299.9995833334351 0
-0.4999997721223224 -299.9995833334239 0
-1.49999375278195 -299.9962500077987 0
-2.499971067963818 -299.9895833935895 0
-3.499920602767968 -299.9795835649059 0
3.999881482309221 -299.9733337283958 0
2.999949998477033 -299.9850001250174 0
1.999985182301435 -299.9933333580441 0
0.9999981443021424 -299.9983333348895 0
-4.035656253620346e-09 -300.0000000000001 0
-0.9999981512591276 -299.9983333348662 0
-1.999985188910298 -299.9933333580001 0
-2.999950002114481 -299.985000124981 0
-3.999881484125026 -299.9733337283716 0
1 12 0 5
120
121
122
123
124
-7.362583846208643 -299.9096403237275 0
-10.22466573808163 -299.8257097224061 0
-5.93127508604899 -299.9413608955152 0
-8.79372493134246 -299.8710896399183 0
-11.65537369450814 -299.7735016041969 0
1 13 0 7
125
126
127
128
129
130
131
5.064009352795413 -115.9848829514889 0
5.649068201521327 -129.3849336547424 0
6.136617240871455 -140.5516425453805 0
4.712974044665145 -107.944852554852 0
5.356538777158218 -122.6849083031122 0
5.892842721196679 -134.968288100068 0
6.339762672835502 -145.2044378913199 0
1 14 0 13
132
133
134
135
136
137
138
139
140
141
142
143
144
7.166042210018379 -164.1293506884227 0
7.789176315234283 -178.4014681395192 0
8.412310420450709 -192.6735855906277 0
9.03544452567159 -206.9457030418382 0
9.65857863089237 -221.2178204930464 0
10.28171273611312 -235.4899379442539 0
6.854475157410238 -156.9932919628701 0
7.477609262626371 -171.2654094139719 0
8.100743367842917 -185.5375268650831 0
8.723877473059638 -199.8096443161983 0
9.347011578281979 -214.0817617674423 0
9.970145683503489 -228.3538792186672 0
10.59327978872371 -242.6259966698626 0
1 15 0 29
145
146
147
148
149
150
151
152
153
154
155
156
157
158
159
160
161
162
163
164
165
166
167
168
169
170
171
172
173
11.26330508648387 -257.972099001279 0
11.56799459680819 -264.9506361108136 0
11.82698068060825 -270.8823926544767 0
12.04711885145029 -275.9243857077032 0
12.23423629688243 -280.2100798079023 0
12.39328612473452 -283.8529197755448 0
12.52847847875361 -286.9493337559387 0
12.6433919789416 -289.5812856225939 0
12.74106845385093 -291.8184447035146 0
12.82409345810924 -293.7200299357044 0
12.89466471271913 -295.3363774057478 0
12.95465027766044 -296.7102727214539 0
13.00563800682818 -297.8780837161587 0
13.04897757651568 -298.870723059251 0
11.08407596390873 -253.867077198367 0
11.41564984164641 -261.461367556055 0
11.69748763870764 -267.9165143826319 0
11.93704976602926 -273.4033891810897 0
12.14067757416651 -278.0672327578061 0
12.31376121080823 -282.0314997917179 0
12.460882301744 -285.4011267657402 0
12.58593522884773 -288.2653096892691 0
12.69223021639603 -290.6998651630489 0
12.78258095598042 -292.7692373196171 0
12.8593790854143 -294.5282036707288 0
12.92465749519013 -296.0233250636088 0
12.98014414224436 -297.2941782188075 0
13.02730779167192 -298.3744033877047 0
13.06739689305829 -299.2925947669053 0
1 16 0 7
174
175
176
177
178
179
180
1.741365397512838 -116.0823195432634 0
1.942550103879549 -129.4936273624232 0
2.110204025420089 -140.6697171829438 0
1.62065457407301 -108.0355348771122 0
1.841957750696164 -122.7879734528413 0
2.02637706464957 -135.0816722726669 0
2.180059825684637 -145.3264212496731 0
1 17 0 13
181
182
183
184
185
186
187
188
189
190
191
192
193
2.464193304610276 -164.267232489344 0
2.678470983271344 -178.551339662284 0
2.892748661932412 -192.8354468352241 0
3.107026340594241 -207.1195540082149 0
3.321304019256832 -221.4036611812566 0
3.535581697919423 -235.6877683542982 0
2.357054465279742 -157.1251789028739 0
2.571332143940902 -171.4092860758201 0
2.785609822601487 -185.693393248728 0
2.999887501263141 -199.9775004217071 0
3.214165179925562 -214.2616075947374 0
3.428442858588127 -228.5457147677774 0
3.642720537250661 -242.8298219408152 0
1 18 0 29
194
195
196
197
198
199
200
201
202
203
204
205
206
207
208
209
210
211
212
213
214
215
216
217
218
219
220
221
222
3.873122731973321 -258.1888162274051 0
3.977896584725649 -265.173215867105 0
4.066954359573113 -271.1099555613822 0
4.142653468059987 -276.1561842926205 0
4.206997710347992 -280.4454787191169 0
4.26169031602987 -284.0913789641115 0
4.308179030978041 -287.1903941802615 0
4.347694438433475 -289.8245570972895 0
4.381282534685243 -292.0635955710736 0
4.409832416699249 -293.9667782871227 0
4.434099816752128 -295.5844836184942 0
4.454727106289554 -296.9595331163279 0
4.472260302041221 -298.1283251658119 0
4.487163518393902 -299.1217984054578 0
3.811491054277333 -254.0803458773501 0
3.925509658349398 -261.6810160472493 0
4.022425472149532 -268.1415857142537 0
4.104803913816593 -273.6330699270042 0
4.174825589204143 -278.3008315058789 0
4.234344013188776 -282.2684288416039 0
4.284934673503928 -285.6408865721847 0
4.327936734705975 -288.50747563879 0
4.364488486559289 -290.9440763341768 0
4.39555747569232 -293.0151869291031 0
4.421966116725688 -294.7756309528085 0
4.44441346152097 -296.2720083674196 0
4.463493704165387 -297.5439291410698 0
4.479711910217521 -298.6250617856321 0
4.493497385146159 -299.5440245191328 0
1 19 0 7
223
224
225
226
227
228
229
-1.741365397512824 -116.0823195432634 0
-1.942550103879534 -129.4936273624232 0
-2.110204025420072 -140.6697171829438 0
-1.620654574072596 -108.0355348770855 0
-1.84195775069629 -122.7879734528507 0
-2.026377064649593 -135.0816722726695 0
-2.180059825684594 -145.3264212496714 0
1 20 0 13
230
231
232
233
234
235
236
237
238
239
240
241
242
-2.464193304610256 -164.267232489344 0
-2.678470983271322 -178.551339662284 0
-2.892748661932388 -192.8354468352241 0
-3.107026340594215 -207.1195540082149 0
-3.321304019256805 -221.4036611812566 0
-3.535581697919393 -235.6877683542982 0
-2.357054465279624 -157.1251789028673 0
-2.571332143940819 -171.409286075816 0
-2.78560982260179 -185.6933932487497 0
-2.999887501263003 -199.9775004216996 0
-3.214165179925485 -214.2616075947341 0
-3.428442858588042 -228.5457147677736 0
-3.642720537250575 -242.8298219408115 0
1 21 0 29
243
244
245
246
247
248
249
250
251
252
253
254
255
256
257
258
259
260
261
262
263
264
265
266
267
268
269
270
271
-3.873122731973289 -258.1888162274051 0
-3.977896584725616 -265.173215867105 0
-4.06695435957308 -271.1099555613822 0
-4.142653468059954 -276.1561842926205 0
-4.206997710347959 -280.4454787191169 0
-4.261690316029835 -284.0913789641116 0
-4.308179030978006 -287.1903941802615 0
-4.34769443843344 -289.8245570972895 0
-4.381282534685207 -292.0635955710736 0
-4.409832416699214 -293.9667782871226 0
-4.434099816752092 -295.5844836184942 0
-4.454727106289519 -296.9595331163279 0
-4.472260302041184 -298.1283251658119 0
-4.487163518393865 -299.1217984054578 0
-3.811491054277301 -254.0803458773501 0
-3.925509658349042 -261.6810160472277 0
-4.022425472149441 -268.1415857142497 0
-4.104803913816481 -273.633069926999 0
-4.174825589203733 -278.3008315058538 0
-4.234344013188805 -282.2684288416081 0
-4.284934673503821 -285.6408865721799 0
-4.327936734705888 -288.5074756387866 0
-4.364488486559239 -290.9440763341759 0
-4.395557475692151 -293.0151869290941 0
-4.421966116725701 -294.7756309528117 0
-4.444413461520995 -296.2720083674237 0
-4.463493704165352 -297.5439291410699 0
-4.479711910217524 -298.6250617856348 0
-4.493497385146123 -299.5440245191328 0
1 22 0 7
272
273
274
275
276
277
278
-5.064009352795401 -115.984882951489 0
-5.649068201521312 -129.3849336547424 0
-6.13661724087144 -140.5516425453806 0
-4.712974044664557 -107.9448525548388 0
-5.35653877715801 -122.6849083031077 0
-5.892842721196888 -134.9682881000732 0
-6.339762672838364 -145.2044378913858 0
1 23 0 13
279
280
281
282
283
284
285
286
287
288
289
290
291
-7.16604221001836 -164.1293506884227 0
-7.789176315234261 -178.4014681395192 0
-8.41231042045068 -192.6735855906276 0
-9.03544452567156 -206.9457030418381 0
-9.65857863089234 -221.2178204930463 0
-10.28171273611309 -235.4899379442538 0
-6.854475157409372 -156.9932919628507 0
-7.477609262625774 -171.2654094139587 0
-8.100743367842096 -185.5375268650648 0
-8.723877473061265 -199.8096443162361 0
-9.34701157828178 -214.0817617674383 0
-9.97014568350326 -228.3538792186626 0
-10.59327978872382 -242.6259966698658 0
1 24 0 29
292
293
294
295
296
297
298
299
300
301
302
303
304
305
306
307
308
309
310
311
312
313
314
315
316
317
318
319
320
-11.26330508648383 -257.972099001279 0
-11.56799459680816 -264.9506361108137 0
-11.82698068060822 -270.8823926544767 0
-12.04711885145026 -275.9243857077032 0
-12.2342362968824 -280.2100798079023 0
-12.39328612473448 -283.8529197755448 0
-12.52847847875358 -286.9493337559387 0
-12.64339197894156 -289.5812856225938 0
-12.7410684538509 -291.8184447035146 0
-12.82409345810921 -293.7200299357044 0
-12.89466471271909 -295.3363774057478 0
-12.95465027766041 -296.7102727214539 0
-13.00563800682815 -297.8780837161588 0
-13.04897757651564 -298.870723059251 0
-11.08407596390929 -253.8670771983806 0
-11.41564984164587 -261.4613675560435 0
-11.69748763870819 -267.9165143826452 0
-11.93704976602966 -273.4033891810996 0
-12.14067757416617 -278.0672327577991 0
-12.31376121080852 -282.0314997917253 0
-12.46088230174403 -285.4011267657417 0
-12.58593522884759 -288.2653096892668 0
-12.69223021639623 -290.6998651630543 0
-12.78258095598011 -292.7692373196109 0
-12.85937908541412 -294.5282036707254 0
-12.92465749518968 -296.0233250635993 0
-12.98014414224423 -297.2941782188053 0
-13.02730779167189 -298.3744033877047 0
-13.06739689305825 -299.2925947669053 0
2 1 0 23
321
322
323
324
325
326
327
328
329
330
331
332
333
334
335
336
337
338
339
340
341
342
343
3.956788177141329 -116.0279323754231 0
4.413926735998797 -129.4329566963363 0
4.794875534066167 -140.6038102683418 0
2.849206561009045 -116.0604122255558 0
3.178383187101355 -129.4691890323766 0
3.452697041472125 -140.6431696759587 0
3.682505042690018 -107.9849178081885 0
4.510398764968371 -116.006407663456 0
4.185357456570063 -122.7304445358797 0
5.031497468760062 -129.4089451755393 0
4.604401135032482 -135.0183834823391 0
5.46574638746881 -140.5777264068612 0
4.95360419906967 -145.2583325648572 0
2.651700585975278 -108.0151461667872 0
3.402997369075187 -116.0441723004895 0
3.0137948740552 -122.7648006289662 0
3.796154961550076 -129.4510728643565 0
3.31554011428674 -135.0561793541677 0
4.123786287769146 -140.6234899721503 0
3.566994480175635 -145.2989949189631 0
2.295285979260941 -116.0713658844096 0
2.560466645490452 -129.4814081973999 0
2.781450533446107 -140.6564434294513 0
2 2 0 83
344
345
346
347
348
349
350
351
352
353
354
355
356
357
358
359
360
361
362
363
364
365
366
367
368
369
370
371
372
373
374
375
376
377
378
379
380
381
382
383
384
385
386
387
388
389
390
391
392
393
394
395
396
397
398
399
400
401
402
403
404
405
406
407
408
409
410
411
412
413
414
415
416
417
418
419
420
421
422
423
424
425
426
1.354415374093737 -116.087479182668 0
1.510894686324774 -129.4993831090752 0
1.641294112848184 -140.6759696856341 0
0.9674503013502037 -116.0913489623856 0
1.079222480423407 -129.5036999750276 0
1.172365962744558 -140.6806591234478 0
0.5804744788000191 -116.0939288394162 0
0.647538283282173 -129.5065779123049 0
0.7034247868733897 -140.6837854442634 0
0.1934922072091853 -116.0952187850891 0
0.2158468920818968 -129.50801688893 0
0.234475796094519 -140.6853486133484 0
-0.1934922134115349 -116.0952187850788 0
-0.2158468971650663 -129.5080168889215 0
-0.234475800245039 -140.6853486133414 0
-0.5804744829933864 -116.0939288393952 0
-0.6475382871787446 -129.5065779122854 0
-0.7034247905226318 -140.6837854442451 0
-0.967450302888661 -116.0913489623728 0
-1.079222482562075 -129.5036999750097 0
-1.172365965383404 -140.6806591234258 0
-1.354415374211051 -116.0874791826667 0
-1.51089468653543 -129.4993831090728 0
-1.641294113136625 -140.6759696856307 0
1.260527787050683 -108.040336852157 0
1.547890385803288 -116.0848993629657 0
1.432655030209256 -122.7934311458716 0
1.726722395102162 -129.4965052357492 0
1.576094399586479 -135.0876763973546 0
1.875749069134136 -140.6728434342889 0
1.695627206939454 -145.3328807340456 0
0.9003869941174046 -108.0439383801345 0
1.160932837721971 -116.0894140725268 0
1.023336390886805 -122.7975244687066 0
1.29505858337409 -129.5015415420514 0
1.125794221583982 -135.0921795492377 0
1.406830037796371 -140.6783144045409 0
1.211175746835404 -145.337725410134 0
0.5402361962374012 -108.0463394210177 0
0.7739623900751114 -116.0926389009009 0
0.6140063810410961 -122.8002533758605 0
0.8633803818527898 -129.5051389436662 0
0.6754815350777814 -135.0951816782841 0
0.937895374808974 -140.6822222838556 0
0.7267108299106153 -145.34095522409 0
0.1800793963277832 -108.0475399481196 0
0.3869833430046022 -116.0945738122527 0
0.204669549645541 -122.8016178370096 0
0.4316925876820349 -129.5072974006174 0
0.2251613440882079 -135.0966827511392 0
0.4689502914839544 -140.6845670288059 0
0.2422378393911844 -145.342570140033 0
-0.1800794032016409 -108.0475399481081 0
-3.101174844699628e-09 -116.095218785084 0
-0.2046695552883006 -122.8016178370002 0
-2.541584775972439e-09 -129.5080168889258 0
-0.2251613487050527 -135.0966827511315 0
-2.075259991629608e-09 -140.6853486133449 0
-0.2422378431531001 -145.3425701400267 0
-0.5402362006088459 -108.0463394209958 0
-0.3869833482024607 -116.094573812237 0
-0.6140063850860655 -122.8002533758403 0
-0.4316925921719055 -129.5072974006034 0
-0.6754815388506883 -135.0951816782652 0
-0.4689502953838354 -140.6845670287933 0
-0.7267108334568033 -145.3409552240722 0
-0.9003869952957344 -108.0439383801247 0
-0.7739623929410238 -116.092638900884 0
-1.023336392725368 -122.7975244686913 0
-0.86338038487041 -129.5051389436476 0
-1.12579422397274 -135.0921795492177 0
-0.9378953779530179 -140.6822222838355 0
-1.211175749682657 -145.3377254101103 0
-1.260527787111992 -108.0403368521563 0
-1.160932838549856 -116.0894140725197 0
-1.43265503037324 -122.7934311458697 0
-1.295058584548753 -129.5015415420413 0
-1.576094399836027 -135.0876763973517 0
-1.406830039260015 -140.6783144045282 0
-1.695627207260304 -145.3328807340419 0
-1.547890385861938 -116.084899362965 0
-1.726722395207482 -129.496505235748 0
-1.875749069278348 -140.6728434342873 0
2 3 0 23
427
428
429
430
431
432
433
434
435
436
437
438
439
440
441
442
443
444
445
446
447
448
449
-2.849206566129736 -116.0604122254301 0
-3.178383191867776 -129.4691890322596 0
-3.452697045943323 -140.6431696758488 0
-3.956788181039966 -116.0279323752902 0
-4.413926740320337 -129.4329566961889 0
-4.794875538740127 -140.6038102681823 0
-2.65170059130853 -108.0151461666563 0
-2.29528598182128 -116.0713658843468 0
-3.013794878998755 -122.7648006288449 0
-2.560466647873655 -129.4814081973414 0
-3.315540118905549 -135.0561793540542 0
-2.781450535681698 -140.6564434293963 0
-3.566994484523822 -145.2989949188563 0
-3.68250504633491 -107.9849178080642 0
-3.402997373584851 -116.0441723003601 0
-4.185357460680152 -122.7304445357395 0
-3.796154966094056 -129.4510728642242 0
-4.604401139530232 -135.0183834821856 0
-4.123786292341725 -140.6234899720156 0
-4.953604203890469 -145.2583325646927 0
-4.510398766917683 -116.0064076633896 0
-5.031497470920824 -129.4089451754656 0
-5.465746389805783 -140.5777264067814 0
2 4 0 44
450
451
452
453
454
455
456
457
458
459
460
461
462
463
464
465
466
467
468
469
470
471
472
473
474
475
476
477
478
479
480
481
482
483
484
485
486
487
488
489
490
491
492
493
5.599221708389083 -164.1902696100367 0
6.086110552703613 -178.4676843586693 0
6.57299939701849 -192.7450991073098 0
7.059888241336591 -207.0225138560353 0
7.546777085654877 -221.2999286047761 0
8.033665929973147 -235.5773433535166 0
4.031891149761123 -164.2362316059095 0
4.382490380642412 -178.5176430498356 0
4.733089611523869 -192.7990544937658 0
5.083688842407325 -207.0804659377638 0
5.434288073291251 -221.3618773817948 0
5.784887304175168 -235.6432888258257 0
5.355777286231127 -157.0515622357046 0
6.382631959203731 -164.1598101492297 0
5.842666130546348 -171.328976984353 0
6.937643433968948 -178.4345762490943 0
6.329554974861052 -185.6063917329896 0
7.492654908734599 -192.7093423489687 0
6.81644381917754 -199.8838064816725 0
8.04766638350409 -206.9841084489368 0
7.303332663495734 -214.1612212304057 0
8.602677858273623 -221.2588745489113 0
7.790221507814012 -228.4386359791463 0
9.157689333043134 -235.5336406488853 0
8.277110352132324 -242.7160507278878 0
3.856591534320135 -157.0955258839385 0
4.815556429075103 -164.2132506079731 0
4.207190765201767 -171.3769373278726 0
5.234300466673012 -178.4926637042525 0
4.557789996083141 -185.6583487718007 0
5.65304450427118 -192.7720768005378 0
4.908389226965597 -199.9397602157648 0
6.071788541871958 -207.0514898968995 0
5.258988457849288 -214.2211716597793 0
6.490532579473064 -221.3309029932854 0
5.609587688733209 -228.5025831038103 0
6.909276617074157 -235.6103160896712 0
5.960186919617149 -242.7839945478416 0
3.248042227185699 -164.2517320476267 0
3.530480681956877 -178.5344913560598 0
3.812919136728141 -192.817250664495 0
4.095357591500782 -207.1000099729894 0
4.377796046274042 -221.3827692815257 0
4.660234501047295 -235.665528590062 0
2 5 0 158
494
495
496
497
498
499
500
501
502
503
504
505
506
507
508
509
510
511
512
513
514
515
516
517
518
519
520
521
522
523
524
525
526
527
528
529
530
531
532
533
534
535
536
537
538
539
540
541
542
543
544
545
546
547
548
549
550
551
552
553
554
555
556
557
558
559
560
561
562
563
564
565
566
567
568
569
570
571
572
573
574
575
576
577
578
579
580
581
582
583
584
585
586
587
588
589
590
591
592
593
594
595
596
597
598
599
600
601
602
603
604
605
606
607
608
609
610
611
612
613
614
615
616
617
618
619
620
621
622
623
624
625
626
627
628
629
630
631
632
633
634
635
636
637
638
639
640
641
642
643
644
645
646
647
648
649
650
651
1.916623186827216 -164.2745338569261 0
2.083286072623708 -178.5592759313952 0
2.249948958420201 -192.8440180058644 0
2.416611844217284 -207.1287600803843 0
2.583274730014961 -221.4135021549549 0
2.74993761581264 -235.6982442295257 0
1.369031772015991 -164.280009953609 0
1.488078013105733 -178.5652282103978 0
1.607124254195475 -192.8504464671866 0
1.72617049528564 -207.1356647240263 0
1.845216736376228 -221.4208829809166 0
1.964262977466815 -235.706101237807 0
0.8214251467575895 -164.2836607185235 0
0.8928534205673382 -178.5691964331304 0
0.9642816943770864 -192.8547321477374 0
1.035709968187089 -207.1402678623951 0
1.107138241997345 -221.4258035771036 0
1.178566515807601 -235.7113392918121 0
0.2738093954424965 -164.2854861111158 0
0.2976189081971427 -178.571180555514 0
0.3214284209517893 -192.8568749999124 0
0.3452379337065201 -207.1425694443615 0
0.3690474464613356 -221.4282638888614 0
0.3928569592161517 -235.7139583333611 0
-0.2738093987067121 -164.2854861111104 0
-0.2976189113522624 -178.5711805555088 0
-0.3214284239978129 -192.8568749999073 0
-0.3452379366434483 -207.1425694443567 0
-0.3690474492891682 -221.4282638888567 0
-0.3928569619348881 -235.7139583333567 0
-0.8214251501166178 -164.2836607185067 0
-0.8928534238422603 -178.569196433114 0
-0.9642816975679029 -192.8547321477214 0
-1.0357099712938 -207.1402678623795 0
-1.107138245019951 -221.4258035770885 0
-1.1785665187461 -235.7113392917974 0
-1.369031775062069 -164.2800099535836 0
-1.488078016142228 -178.5652282103725 0
-1.607124257222388 -192.8504464671614 0
-1.72617049830297 -207.1356647240011 0
-1.845216739383976 -221.4208829808915 0
-1.964262980464982 -235.706101237782 0
-1.916623187224782 -164.2745338569215 0
-2.083286073065578 -178.5592759313901 0
-2.249948958906376 -192.8440180058587 0
-2.416611844747766 -207.128760080378 0
-2.583274730589748 -221.4135021549482 0
-2.74993761643173 -235.6982442295183 0
1.83329174392897 -157.1321628196916 0
2.190408245718746 -164.270883173135 0
1.999954629725462 -171.4169048941607 0
2.380878527947526 -178.5553077968396 0
2.166617515521954 -185.7016469686298 0
2.571348810176306 -192.8397324205442 0
2.333280401318742 -199.9863890431243 0
2.761819092405763 -207.1241570442996 0
2.499943287116122 -214.2711311176696 0
2.952289374635896 -221.4085816681057 0
2.6666061729138 -228.5558731922403 0
3.142759656866032 -235.6930062919119 0
2.833269058711478 -242.840615266811 0
1.30950865147112 -157.1374008252146 0
1.642827479421604 -164.2772719052676 0
1.428554892560862 -171.4226190820034 0
1.78568204286472 -178.5622520708965 0
1.547601133650604 -185.7078373387922 0
1.928536606307838 -192.8472322365255 0
1.666647374740557 -199.9930555956065 0
2.071391169751462 -207.1322124022053 0
1.785693615830934 -214.2782738524714 0
2.214245733195594 -221.4171925679358 0
1.904739856921521 -228.5634921093618 0
2.357100296639728 -235.7021727336663 0
2.023786098012109 -242.8487103662522 0
0.7857110098527152 -157.14089286122 0
1.09522845938679 -164.2818353360663 0
0.8571392836624638 -171.4264285758269 0
1.190465716836536 -178.5672123217641 0
0.9285675574722123 -185.7119642904339 0
1.285702974286281 -192.852589307462 0
0.9999958312820877 -199.9975000050662 0
1.380940231736364 -207.1379662932107 0
1.071424105092217 -214.2830357197493 0
1.476177489186786 -221.4233432790101 0
1.142852378902473 -228.5685714344578 0
1.571414746637208 -235.7087202648096 0
1.214280652712729 -242.8541071491664 0
0.2619046390651731 -157.1426388889167 0
0.547617271100043 -164.2845734148197 0
0.2857141518198196 -171.428333333315 0
0.5952361643822404 -178.5701884943222 0
0.309523664574466 -185.7140277777132 0
0.6428550576644378 -192.8558035738249 0
0.3333331773291547 -199.999722222137 0
0.6904739509468045 -207.1414186533783 0
0.3571426900839278 -214.2854166666114 0
0.7380928442293402 -221.4270337329824 0
0.3809522028387436 -228.5711111111113 0
0.7857117375118765 -235.7126488125867 0
0.4047617155935593 -242.8568055556111 0
-0.2619046423839366 -157.1426388889111 0
-1.632107782256753e-09 -164.2854861111131 0
-0.2857141550294873 -171.4283333333096 0
-1.577559916032811e-09 -178.5711805555114 0
-0.3095236676750377 -185.7140277777081 0
-1.523011827764265e-09 -192.8568749999099 0
-0.3333331803206306 -199.999722222132 0
-1.468464072562625e-09 -207.1425694443591 0
-0.3571426929663082 -214.2854166666067 0
-1.413916317360986e-09 -221.428263888859 0
-0.3809522056120281 -228.5711111111067 0
-1.359368173581288e-09 -235.7139583333589 0
-0.404761718257748 -242.8568055556067 0
-0.7857110132537963 -157.140892861203 0
-0.547617274411665 -164.2845734148086 0
-0.857139286979439 -171.4264285758104 0
-0.5952361675972614 -178.5701884943114 0
-0.9285675607050816 -185.7119642904177 0
-0.6428550607828579 -192.8558035738144 0
-0.9999958344308514 -199.9975000050505 0
-0.690473953968624 -207.1414186533681 0
-1.071424108156875 -214.283035719734 0
-0.7380928471545594 -221.4270337329726 0
-1.142852381883025 -228.5685714344429 0
-0.7857117403404941 -235.712648812577 0
-1.214280655609176 -242.8541071491519 0
-1.309508654521989 -157.1374008251891 0
-1.095228462589343 -164.2818353360451 0
-1.428554895602148 -171.4226190819781 0
-1.190465719992244 -178.5672123217433 0
-1.547601136682308 -185.707837338767 0
-1.285702977395145 -192.8525893074414 0
-1.666647377762679 -199.9930555955812 0
-1.380940234798385 -207.1379662931903 0
-1.785693618843473 -214.2782738524463 0
-1.476177492201963 -221.42334327899 0
-1.904739859924479 -228.5634921093367 0
-1.571414749605541 -235.7087202647897 0
-2.023786101005485 -242.8487103662272 0
-1.833291744304383 -157.1321628196872 0
-1.642827481143425 -164.2772719052525 0
-1.99995463014518 -171.4169048941558 0
-1.785682044603903 -178.5622520708813 0
-2.166617515985977 -185.7016469686244 0
-1.928536608064382 -192.8472322365101 0
-2.333280401827071 -199.9863890431184 0
-2.071391171525368 -207.1322124021895 0
-2.499943287668757 -214.2711311176631 0
-2.214245734986862 -221.4171925679198 0
-2.666606173510739 -228.5558731922333 0
-2.357100298448356 -235.7021727336502 0
-2.833269059352721 -242.8406152668034 0
-2.190408245917519 -164.2708831731327 0
-2.38087852816845 -178.555307796837 0
-2.571348810419382 -192.8397324205414 0
-2.761819092670991 -207.1241570442965 0
-2.952289374923276 -221.4085816681024 0
-3.142759657175562 -235.6930062919082 0
2 6 0 44
652
653
654
655
656
657
658
659
660
661
662
663
664
665
666
667
668
669
670
671
672
673
674
675
676
677
678
679
680
681
682
683
684
685
686
687
688
689
690
691
692
693
694
695
-4.031891154538632 -164.2362316057922 0
-4.382490385972249 -178.5176430497047 0
-4.733089617406037 -192.7990544936213 0
-5.083688848841823 -207.0804659376057 0
-5.434288080278083 -221.3618773816233 0
-5.784887311714333 -235.6432888256406 0
-5.599221713391394 -164.190269609866 0
-6.086110557740592 -178.4676843584975 0
-6.572999402090135 -192.7450991071367 0
-7.059888246442903 -207.022513855861 0
-7.546777090795861 -221.2999286046008 0
-8.033665935148797 -235.5773433533399 0
-3.856591538821477 -157.095525883828 0
-3.248042229574444 -164.2517320475681 0
-4.207190770255441 -171.3769373277485 0
-3.530480684621785 -178.5344913559944 0
-4.557790001689143 -185.658348771663 0
-3.812919139669212 -192.8172506644227 0
-4.90838923312393 -199.9397602156135 0
-4.095357594718019 -207.1000099729103 0
-5.258988464559954 -214.2211716596145 0
-4.377796049767444 -221.3827692814399 0
-5.609587695996208 -228.5025831036319 0
-4.660234504816863 -235.6655285899694 0
-5.960186927432479 -242.7839945476497 0
-5.355777291216103 -157.0515622355346 0
-4.815556433965013 -164.2132506078291 0
-5.842666135565993 -171.3289769841818 0
-5.23430047185642 -178.4926637041011 0
-6.329554979915363 -185.6063917328171 0
-5.653044509748086 -192.772076800379 0
-6.81644382426652 -199.8838064814989 0
-6.071788547642363 -207.0514898967334 0
-7.303332668619382 -214.1612212302309 0
-6.490532585536972 -221.330902993112 0
-7.790221512972328 -228.4386359789704 0
-6.909276623431564 -235.6103160894903 0
-8.277110357325311 -242.7160507277106 0
-6.382631961704877 -164.1598101491444 0
-6.937643436487427 -178.4345762490084 0
-7.492654911270408 -192.7093423488822 0
-8.047666386057232 -206.9841084488496 0
-8.6026778608441 -221.2588745488235 0
-9.157689335630941 -235.5336406487969 0
2 7 0 100
696
697
698
699
700
701
702
703
704
705
706
707
708
709
710
711
712
713
714
715
716
717
718
719
720
721
722
723
724
725
726
727
728
729
730
731
732
733
734
735
736
737
738
739
740
741
742
743
744
745
746
747
748
749
750
751
752
753
754
755
756
757
758
759
760
761
762
763
764
765
766
767
768
769
770
771
772
773
774
775
776
777
778
779
780
781
782
783
784
785
786
787
788
789
790
791
792
793
794
795
8.800637856130056 -258.0678489814744 0
9.038708477214154 -265.0489762734214 0
9.241068505154557 -270.9829344721261 0
9.413074528600712 -276.0267989321339 0
9.559279648698942 -280.3140837280932 0
9.683554000184593 -283.9582757871302 0
9.789187199216828 -287.0558390452123 0
9.878975417825176 -289.6887677978944 0
9.95529540344684 -291.9267572319529 0
10.02016739168221 -293.8290482642863 0
10.07530858245622 -295.4459956644698 0
10.12217859346012 -296.8204009207913 0
10.16201810200674 -297.9886453650072 0
10.19588168418922 -298.9816531401808 0
6.33716893929372 -258.1400902503088 0
6.508598983988694 -265.1231717783236 0
6.654314521992873 -271.0587910776773 0
6.778172729078086 -276.1040674732332 0
6.883452205222106 -280.3925524144043 0
6.972939759514114 -284.037764596871 0
7.049004180856334 -287.1361949598707 0
7.113658938587422 -289.7698607517259 0
7.168615482518451 -292.0084766690973 0
7.215328545188315 -293.9113002122216 0
7.255034649015183 -295.5287002465934 0
7.288784836437225 -296.9034902419744 0
7.317472495165012 -298.0720617143813 0
7.341857005024437 -299.0653474635143 0
8.660596315210778 -253.9613035418666 0
10.03197147130696 -258.0199739913767 0
8.919673166672105 -261.5584126274479 0
10.30335153701117 -264.9998061921175 0
9.139888491184355 -268.0159553727738 0
10.5340245928814 -270.9326635633014 0
9.327071516877634 -273.50486670213 0
10.7300966900255 -275.9755923199185 0
9.486177088649827 -278.1704413301136 0
10.89675797279069 -280.2620817679978 0
9.621416824441766 -282.1361797576117 0
11.03842006245955 -283.9055977813375 0
9.73637059970071 -285.5070574161713 0
11.15883283898522 -287.0025864005755 0
9.834081308521002 -288.3723034215534 0
11.26118369838339 -289.6350267102441 0
9.917135410636007 -290.8077625149236 0
11.34818192864889 -291.8726009677338 0
9.987731397564527 -292.8779027481196 0
11.42213042489573 -293.7745390999953 0
10.04773798706922 -294.637521964378 0
11.48498664758767 -295.3911865351088 0
10.09874358795817 -296.1331982926305 0
11.53841443556028 -296.7653368211226 0
10.14209834773343 -297.4045231428992 0
11.58382805441746 -297.9333645405829 0
10.17894989309798 -298.4851492525939 0
11.62242963035245 -298.9261880997159 0
10.21027370616778 -299.4036814314629 0
6.236327737176426 -254.0323952600832 0
7.568903397711888 -258.1039696158916 0
6.422883961641207 -261.6316310143162 0
7.773653730601424 -265.0860740258726 0
6.581456752990784 -268.0909814280005 0
7.947691513573715 -271.0208627749017 0
6.71624362553548 -273.5814292754553 0
8.095623628839398 -276.0654332026836 0
6.830812467150096 -278.2483099438188 0
8.221365926960523 -280.3533180712488 0
6.92819598236811 -282.2151585056376 0
8.328246879849353 -283.9980201920006 0
7.010971970185224 -285.5869797783708 0
8.419095690036581 -287.0960170025415 0
7.081331559721878 -288.4530278557983 0
8.496317178206299 -289.7293142748101 0
7.141137210552936 -290.8891687104116 0
8.561955442982645 -291.9676169505251 0
7.191972013853383 -292.9598884406595 0
8.617747968435264 -293.8701742382539 0
7.235181597101749 -294.7200002294074 0
8.6651716157357 -295.4873479555316 0
7.271909742726204 -296.2160952442839 0
8.705481714948672 -296.8619455813828 0
7.303128665801118 -297.4877759781779 0
8.739745298585875 -298.0303535396943 0
7.329664750094724 -298.5687045889478 0
8.768869344606831 -299.0235003018475 0
7.352220421391364 -299.4874938937247 0
5.105145835633521 -258.1644532388569 0
5.243247784357171 -265.1481938227143 0
5.360634440782993 -271.0843733195297 0
5.460413098569036 -276.1301258829269 0
5.545224957785049 -280.4190155667606 0
5.617315037771991 -284.0645717804913 0
5.678591605917187 -287.1632945700661 0
5.730676688510449 -289.7972089245077 0
5.774949008601848 -292.0360361200854 0
5.812580480943782 -293.9390392496721 0
5.844567232883655 -295.5565919325438 0
5.87175597136339 -296.9315116791512 0
5.894866398603116 -298.1001934400966 0
5.91451026170917 -299.093572934486 0
2 8 0 358
796
797
798
799
800
801
802
803
804
805
806
807
808
809
810
811
812
813
814
815
816
817
818
819
820
821
822
823
824
825
826
827
828
829
830
831
832
833
834
835
836
837
838
839
840
841
842
843
844
845
846
847
848
849
850
851
852
853
854
855
856
857
858
859
860
861
862
863
864
865
866
867
868
869
870
871
872
873
874
875
876
877
878
879
880
881
882
883
884
885
886
887
888
889
890
891
892
893
894
895
896
897
898
899
900
901
902
903
904
905
906
907
908
909
910
911
912
913
914
915
916
917
918
919
920
921
922
923
924
925
926
927
928
929
930
931
932
933
934
935
936
937
938
939
940
941
942
943
944
945
946
947
948
949
950
951
952
953
954
955
956
957
958
959
960
961
962
963
964
965
966
967
968
969
970
971
972
973
974
975
976
977
978
979
980
981
982
983
984
985
986
987
988
989
990
991
992
993
994
995
996
997
998
999
1000
1001
1002
1003
1004
1005
1006
1007
1008
1009
1010
1011
1012
1013
1014
1015
1016
1017
1018
1019
1020
1021
1022
1023
1024
1025
1026
1027
1028
1029
1030
1031
1032
1033
1034
1035
1036
1037
1038
1039
1040
1041
1042
1043
1044
1045
1046
1047
1048
1049
1050
1051
1052
1053
1054
1055
1056
1057
1058
1059
1060
1061
1062
1063
1064
1065
1066
1067
1068
1069
1070
1071
1072
1073
1074
1075
1076
1077
1078
1079
1080
1081
1082
1083
1084
1085
1086
1087
1088
1089
1090
1091
1092
1093
1094
1095
1096
1097
1098
1099
1100
1101
1102
1103
1104
1105
1106
1107
1108
1109
1110
1111
1112
1113
1114
1115
1116
1117
1118
1119
1120
1121
1122
1123
1124
1125
1126
1127
1128
1129
1130
1131
1132
1133
1134
1135
1136
1137
1138
1139
1140
1141
1142
1143
1144
1145
1146
1147
1148
1149
1150
1151
1152
1153
3.012473420602733 -258.2002922316236 0
3.093965402267187 -265.1850023146683 0
3.163233586688183 -271.1220058857886 0
3.222111543342217 -276.168458912343 0
3.27215780655583 -280.4579439898583 0
3.314697130082899 -284.1040062882184 0
3.350855555173133 -287.2031592497293 0
3.381590216304989 -289.8374392503132 0
3.40771467820068 -292.0765772451198 0
3.429920470967577 -293.9798445540384 0
3.448795395084647 -295.5976217893501 0
3.464839080189412 -296.9727324055314 0
3.478476212252232 -298.1415764056098 0
3.490067774477447 -299.1350938032609 0
2.151790635739098 -258.2088993463735 0
2.209999840715614 -265.1938422649461 0
2.259477664950087 -271.131043746265 0
2.301533815475238 -276.1776649964883 0
2.337281543462819 -280.467293064122 0
2.367667112106188 -284.1134769040822 0
2.393494845518929 -287.2127331759535 0
2.415448418780582 -289.8471009903433 0
2.43410895600557 -292.0863136268845 0
2.449970412757923 -293.9896443812781 0
2.46345265118686 -295.6074755452444 0
2.474912553569491 -296.9826320007809 0
2.484653470397421 -298.1515149643104 0
2.492933249681029 -299.1450654808948 0
1.291083944037319 -258.2146374759865 0
1.326009725517109 -265.1997356196814 0
1.355696639777592 -271.1370690423543 0
1.380930516854511 -276.1838024427282 0
1.402379312394613 -280.4735258379901 0
1.420610788516055 -284.1197907064338 0
1.436107543258807 -287.2191158525164 0
1.449279784706639 -289.8535422099852 0
1.460476189908847 -292.0928046081435 0
1.469993134397391 -293.9961776599121 0
1.478082537326317 -295.6140447766475 0
1.484958529646724 -296.9892317920369 0
1.490803123000684 -298.1581407314409 0
1.495771027339472 -299.1517133275187 0
0.4303629073960184 -258.2175065567275 0
0.4420048775817269 -265.2026823134133 0
0.4519005522404681 -271.1400817071286 0
0.460311875685566 -276.1868711828884 0
0.4674615006221401 -280.4766422422284 0
0.4735386817890133 -284.1229476251383 0
0.4787042857940305 -287.2223072085171 0
0.4830950491704598 -289.8567628376876 0
0.4868271980309414 -292.0960501167924 0
0.4899995245845741 -293.9994443173655 0
0.4926960021930484 -295.6173294105849 0
0.4949880081038588 -296.9925317059856 0
0.4969362130885854 -298.1614536333988 0
0.4985921873215771 -299.1550372692843 0
-0.4303629106856025 -258.2175065567221 0
-0.4420048814492634 -265.2026823134069 0
-0.4519005565992619 -271.1400817071213 0
-0.4603118804619315 -276.1868711828804 0
-0.4674615057534401 -280.4766422422198 0
-0.4735386872220075 -284.1229476251293 0
-0.478704291483465 -287.2223072085076 0
-0.4830950550778688 -289.8567628376778 0
-0.4868272041236275 -292.0960501167822 0
-0.4899995308347468 -293.999444317355 0
-0.4926960085770842 -295.6173294105743 0
-0.4949880146016793 -296.9925317059747 0
-0.4969362196831221 -298.1614536333878 0
-0.4985921939983223 -299.1550372692732 0
-1.291083947554381 -258.2146374759689 0
-1.326009729597438 -265.1997356196609 0
-1.355696644336699 -271.1370690423315 0
-1.380930521820579 -276.1838024427033 0
-1.402379317706598 -280.4735258379635 0
-1.420610794122068 -284.1197907064059 0
-1.436107549114746 -287.2191158524871 0
-1.449279790775014 -289.8535422099549 0
-1.460476196157791 -292.0928046081124 0
-1.469993140799823 -293.99617765988 0
-1.47808254385921 -295.6140447766147 0
-1.484958536290511 -296.9892317920037 0
-1.490803129738729 -298.1581407314073 0
-1.495771034157637 -299.1517133274846 0
-2.151790639240927 -258.2088993463442 0
-2.209999844653699 -265.1938422649133 0
-2.259477669258993 -271.1310437462291 0
-2.30153382009934 -276.1776649964497 0
-2.337281548354837 -280.4672930640812 0
-2.367667117225936 -284.1134769040396 0
-2.393494850832246 -287.2127331759091 0
-2.415448424258434 -289.8471009902976 0
-2.434108961623274 -292.0863136268376 0
-2.449970418494505 -293.9896443812302 0
-2.463452657024486 -295.6074755451957 0
-2.474912559493006 -296.9826320007315 0
-2.48465347639394 -298.1515149642603 0
-2.492933255739602 -299.1450654808442 0
-3.012473421273218 -258.2002922316158 0
-3.093965402943696 -265.1850023146603 0
-3.163233587369814 -271.1220058857806 0
-3.222111544028202 -276.1684589123352 0
-3.272157807245513 -280.4579439898504 0
-3.314697130775726 -284.1040062882103 0
-3.350855555868634 -287.2031592497212 0
-3.381590217002762 -289.8374392503051 0
-3.407714678900385 -292.0765772451116 0
-3.429920471668924 -293.9798445540302 0
-3.448795395787389 -295.5976217893419 0
-3.46483908089334 -296.9727324055232 0
-3.478476212957168 -298.1415764056017 0
-3.49006777518324 -299.1350938032527 0
2.964536961106524 -254.09163926786 0
3.442798076288027 -258.1945542295143 0
3.053219411434959 -261.692647273146 0
3.535930993496418 -265.1791090908866 0
3.128599494477685 -268.1535041002284 0
3.615093973130648 -271.1159807235854 0
3.1926725650152 -273.6452323990658 0
3.682382505701102 -276.1623216024818 0
3.247134674949024 -278.3132014511007 0
3.739577758451911 -280.4517113544876 0
3.293427468319365 -282.2809751390383 0
3.788193723056384 -284.097692626165 0
3.332776342628016 -285.6535827689738 0
3.829517293075587 -287.1967767149954 0
3.366222885739061 -288.5202992500213 0
3.864642327369232 -289.8309981738013 0
3.394652447252835 -290.9570082477165 0
3.894498606442962 -292.0700864080967 0
3.418817574584128 -293.0282108995791 0
3.919876443833413 -293.9733114205806 0
3.439357933026112 -294.7887331716943 0
3.941447605918388 -295.5910527039222 0
3.456817237637029 -296.2851770974407 0
3.959783093239483 -296.9661327609297 0
3.471657646220822 -297.5571544055706 0
3.975368257146727 -298.1349507857109 0
3.48427199336484 -298.6383351044354 0
3.988615646435675 -299.1284461043593 0
3.494994188269447 -299.5573386840875 0
2.117549927148251 -254.1001094205354 0
2.582132028170915 -258.2045957889985 0
2.180895238227356 -261.7013708056597 0
2.6519826214914 -265.1894222898072 0
2.23473875283285 -268.1624430056056 0
2.711355625819135 -271.1265248160268 0
2.280505740212663 -273.6543543713767 0
2.761822679408728 -276.1730619544156 0
2.319407679469029 -278.3224790303051 0
2.804719675009324 -280.4626185269902 0
2.352474327784503 -282.2903849841022 0
2.841182121094543 -284.1087415961503 0
2.380580978812558 -285.6631050400179 0
2.872175200346031 -287.2079462128414 0
2.404471632149756 -288.5299170831484 0
2.898519317542785 -289.8422701203282 0
2.424778687393076 -290.9667073086139 0
2.920911817103125 -292.0814454360021 0
2.442039684381746 -293.0379790040813 0
2.93994544186275 -293.9847444676583 0
2.456711531972391 -294.7985599632613 0
2.956124023135753 -295.6025486672972 0
2.469182602378176 -296.2950537730126 0
2.969875816879452 -296.9776822031561 0
2.479783011983456 -297.5670734825457 0
2.981564841324827 -298.1465456849601 0
2.488793360039225 -298.6482902226026 0
2.991500512079238 -299.1400796420779 0
2.496452155766764 -299.5673244372676 0
1.270539366827588 -254.1057562412536 0
1.721437289888208 -258.21176841118 0
1.308546834777214 -261.707186547834 0
1.768004783116361 -265.1967889423137 0
1.340853182647351 -268.1684023310178 0
1.80758715236384 -271.1340563943097 0
1.368313578316051 -273.6604357425412 0
1.841232166164875 -276.1807337196082 0
1.391654914624562 -278.3286641403591 0
1.869830427928716 -280.4704094510561 0
1.411495050455334 -282.296658272212 0
1.894138950311121 -284.116633805258 0
1.428359165887431 -285.6694532794751 0
1.914801194388868 -287.215924514235 0
1.442693663982723 -288.5363290312508 0
1.932364101743611 -289.8503216001642 0
1.454877987307743 -290.9731734090644 0
1.947292572957208 -292.089559117514 0
1.465234662153119 -293.0444911340278 0
1.959981773577657 -293.9929110205951 0
1.474037835861854 -294.8051112182798 0
1.970767594256588 -295.6107601609459 0
1.48152053348652 -296.3016382843422 0
1.979935541608107 -296.9859318964089 0
1.487880826323704 -297.5736862617389 0
1.987728296699053 -298.1548278478757 0
1.493287075170078 -298.6549270294798 0
1.994352138510251 -299.1483894042067 0
1.497882386617577 -299.5739816676759 0
0.4235146896834927 -254.1085796672943 0
0.8607234257166687 -258.216072016357 0
0.4361838924888727 -261.7100944350704 0
0.884007301549418 -265.2012089665474 0
0.4469527149110975 -268.1713820102709 0
0.90379859600903 -271.1385753747414 0
0.456106213963017 -273.6634764450085 0
0.9206211962700382 -276.1853368128083 0
0.463886688153853 -278.3317567125584 0
0.9349204065083766 -280.4750840401093 0
0.4705000912055767 -282.2997949336834 0
0.9470747351525339 -284.1213691657861 0
0.4761214837915219 -285.6726274168277 0
0.9574059145264187 -287.2207115305167 0
0.4808996674822451 -288.5395350231023 0
0.9661874169385496 -289.8551525238364 0
0.4849611236007006 -290.97640647724 0
0.973651693969894 -292.094427362468 0
0.4884133613077578 -293.0477472170789 0
0.9799963294909827 -293.9978109886388 0
0.4913477633888113 -294.8083868639752 0
0.9853892697596827 -295.6156870936162 0
0.4938420051484536 -296.3049305582853 0
0.9899732688752914 -296.9908817490113 0
0.4959621105962221 -297.5769926696922 0
0.9938696680446348 -298.1597971824199 0
0.4977642002050812 -298.6582454513416 0
0.9971816073305247 -299.1533752984015 0
0.4992959763486383 -299.5773103013597 0
-0.4235146926331052 -254.1085796672894 0
-1.644792080313096e-09 -258.2175065567248 0
-0.436183896067433 -261.7100944350645 0
-1.933768256634494e-09 -265.2026823134101 0
-0.4469527190242626 -268.1713820102641 0
-2.179396885182427e-09 -271.140081707125 0
-0.4561062185305967 -273.6634764450009 0
-2.388182762658175e-09 -276.1868711828844 0
-0.4638866931076858 -278.3317567125501 0
-2.565650025765365e-09 -280.4766422422241 0
-0.4705000964877238 -282.2997949336745 0
-2.716497138344209e-09 -284.1229476251338 0
-0.4761214893527363 -285.6726274168185 0
-2.84471729505853e-09 -287.2223072085123 0
-0.4808996732806669 -288.5395350230928 0
-2.953704503205756e-09 -289.8567628376827 0
-0.4849611296007481 -290.97640647723 0
-3.046343011181563e-09 -292.0960501167873 0
-0.4884133674791871 -293.0477472170686 0
-3.125086356359219e-09 -293.9994443173603 0
-0.4913477697059155 -294.8083868639646 0
-3.192017872244435e-09 -295.6173294105796 0
-0.4938420115893817 -296.3049305582745 0
-3.248910251940629e-09 -296.9925317059802 0
-0.4959621171424007 -297.5769926696813 0
-3.297268347246529e-09 -298.1614536333933 0
-0.4977642068407222 -298.6582454513305 0
-3.338372633887587e-09 -299.1550372692788 0
-0.4992959830603224 -299.5773103013485 0
-1.270539370013316 -254.1057562412377 0
-0.8607234291199919 -258.2160720163455 0
-1.30854683857591 -261.7071865478149 0
-0.8840073055233509 -265.201208966534 0
-1.340853186967069 -268.1684023309962 0
-0.9037986004679806 -271.1385753747264 0
-1.368313583078639 -273.6604357425174 0
-0.9206212011412552 -276.1853368127918 0
-1.391654919763589 -278.3286641403334 0
-0.9349204117300192 -280.4750840400916 0
-1.411495055914333 -282.2966582721847 0
-0.947074740672038 -284.1213691657676 0
-1.428359171618407 -285.6694532794464 0
-0.9574059202991054 -287.2207115304973 0
-1.44269366994488 -288.5363290312209 0
-0.9661874229264416 -289.8551525238163 0
-1.454877993466403 -290.9731734090336 0
-0.9736517001407093 -292.0944273624473 0
-1.465234668478807 -293.0444911339962 0
-0.9799963358172847 -293.9978109886175 0
-1.474037842329516 -294.8051112182474 0
-0.9853892762181472 -295.6156870935945 0
-1.481520540074861 -296.3016382843092 0
-0.989973275446095 -296.9908817489892 0
-1.48788083301462 -297.5736862617055 0
-0.9938696747109257 -298.1597971823975 0
-1.493287081948183 -298.654927029446 0
-0.9971816140779797 -299.1533752983789 0
-1.497882393469793 -299.5739816676416 0
-2.117549930393457 -254.1001094205083 0
-1.721437293397654 -258.2117684111565 0
-2.180895241947313 -261.7013708056288 0
-1.768004787125569 -265.1967889422871 0
-2.234738756956346 -268.1624430055712 0
-1.807587156797846 -271.1340563942803 0
-2.280505744679167 -273.6543543713394 0
-1.84123217095996 -276.1807337195765 0
-2.319407684227089 -278.3224790302655 0
-1.869830433030718 -280.4704094510224 0
-2.352474332790386 -282.2903849840604 0
-1.894138955674002 -284.1166338052227 0
-2.380580984029091 -285.6631050399744 0
-1.914801199973496 -287.2159245141981 0
-2.40447163754534 -288.5299170831034 0
-1.932364107516724 -289.8503216001262 0
-2.424778692940854 -290.9667073085676 0
-1.947292578890533 -292.089559117475 0
-2.442039690058889 -293.0379790040339 0
-1.959981779647164 -293.9929110205551 0
-2.456711537759495 -294.7985599632129 0
-1.970767600441848 -295.6107601609052 0
-2.469182608258746 -296.2950537729636 0
-1.979935547891759 -296.9859318963676 0
-2.479783017943473 -297.5670734824959 0
-1.987728303066335 -298.1548278478338 0
-2.488793366066771 -298.6482902225523 0
-1.99435214494862 -299.1483894041644 0
-2.49645216185171 -299.5673244372168 0
-2.964536961773465 -254.0916392678522 0
-2.582132030257072 -258.20459578898 0
-3.053219412108457 -261.692647273138 0
-2.651982623798697 -265.1894222897868 0
-3.128599495156755 -268.1535041002205 0
-2.711355628314403 -271.1265248160049 0
-3.192672565699008 -273.6452323990579 0
-2.761822682063771 -276.1730619543924 0
-3.247134675636858 -278.3132014510928 0
-2.804719677800175 -280.4626185269658 0
-3.29342746901062 -282.2809751390304 0
-2.841182124000831 -284.108741596125 0
-3.33277634332218 -285.6535827689657 0
-2.87217520335044 -287.2079462128152 0
-3.366222886435698 -288.5202992500132 0
-2.898519320630598 -289.8422701203014 0
-3.394652447951573 -290.9570082477084 0
-2.920911820261829 -292.0814454359746 0
-3.418817575284654 -293.0282108995709 0
-2.939945445081715 -293.9847444676302 0
-3.439357933728156 -294.7887331716861 0
-2.956124026405937 -295.6025486672688 0
-3.456817238340364 -296.2851770974326 0
-2.969875820193173 -296.9776822031274 0
-3.471657646925254 -297.5571544055624 0
-2.981564844675554 -298.146545684931 0
-3.484271994070204 -298.6383351044272 0
-2.991500515461421 -299.1400796420485 0
-3.494994188975604 -299.5573386840794 0
-3.442798076623253 -258.1945542295105 0
-3.535930993834656 -265.1791090908827 0
-3.615093973471446 -271.1159807235814 0
-3.682382506044077 -276.1623216024778 0
-3.739577758796736 -280.4517113544836 0
-3.788193723402781 -284.0976926261609 0
-3.82951729342332 -287.1967767149914 0
-3.864642327718101 -289.8309981737973 0
-3.894498606792796 -292.0700864080926 0
-3.919876444184069 -293.9733114205764 0
-3.94144760626974 -295.5910527039181 0
-3.95978309359143 -296.9661327609256 0
-3.975368257499176 -298.1349507857068 0
-3.988615646788553 -299.1284461043552 0
2 9 0 100
1154
1155
1156
1157
1158
1159
1160
1161
1162
1163
1164
1165
1166
1167
1168
1169
1170
1171
1172
1173
1174
1175
1176
1177
1178
1179
1180
1181
1182
1183
1184
1185
1186
1187
1188
1189
1190
1191
1192
1193
1194
1195
1196
1197
1198
1199
1200
1201
1202
1203
1204
1205
1206
1207
1208
1209
1210
1211
1212
1213
1214
1215
1216
1217
1218
1219
1220
1221
1222
1223
1224
1225
1226
1227
1228
1229
1230
1231
1232
1233
1234
1235
1236
1237
1238
1239
1240
1241
1242
1243
1244
1245
1246
1247
1248
1249
1250
1251
1252
1253
-6.337168947444199 -258.1400902501089 0
-6.508598992189303 -265.1231717781224 0
-6.654314530236097 -271.058791077475 0
-6.77817273735753 -276.10406747303 0
-6.883452213532339 -280.3925524142002 0
-6.972939767850518 -284.0377645966662 0
-7.049004189214981 -287.1361949596655 0
-7.113658946964977 -289.7698607515202 0
-7.168615490912078 -292.0084766688912 0
-7.215328553595605 -293.9113002120151 0
-7.255034657434082 -295.5287002463866 0
-7.288784844865995 -296.9034902417674 0
-7.317472503602168 -298.0720617141741 0
-7.341857013468726 -299.0653474633069 0
-8.800637862116961 -258.0678489812702 0
-9.038708483861154 -265.0489762731946 0
-9.241068512362638 -270.9829344718803 0
-9.413074536285709 -276.0267989318718 0
-9.559279656789322 -280.3140837278173 0
-9.683554008619545 -283.9582757868425 0
-9.789187207944668 -287.0558390449146 0
-9.878975426801972 -289.6887677975882 0
-9.955295412635246 -291.9267572316394 0
-10.02016740105049 -293.8290482639667 0
-10.07530859197738 -295.4459956641449 0
-10.12217860311124 -296.820400920462 0
-10.16201811176832 -297.9886453646742 0
-10.1958816940447 -298.9816531398446 0
-6.236327745297412 -254.0323952598839 0
-5.105145839708744 -258.164453238757 0
-6.422883969816751 -261.6316310141156 0
-5.24324778845746 -265.1481938226137 0
-6.5814567612127 -268.0909814277987 0
-5.360634444904589 -271.0843733194286 0
-6.716243633796814 -273.5814292752525 0
-5.460413102708742 -276.1301258828253 0
-6.830812475444935 -278.2483099436151 0
-5.545224961940149 -280.4190155666586 0
-6.928195990691428 -282.2151585054332 0
-5.617315041940176 -284.0645717803889 0
-7.01097197853275 -285.5869797781659 0
-5.678591610096493 -287.1632945699635 0
-7.081331568089979 -288.4530278555928 0
-5.730676692699208 -289.7972089244049 0
-7.141137218938527 -290.8891687102057 0
-5.774949012798642 -292.0360361199824 0
-7.191972022253841 -292.9598884404531 0
-5.812580485147409 -293.9390392495689 0
-7.235181605514844 -294.7200002292009 0
-5.844567237093087 -295.5565919324404 0
-7.271909751150039 -296.216095244077 0
-5.871755975577757 -296.9315116790476 0
-7.303128674234081 -297.4877759779707 0
-5.894866402821677 -298.1001934399929 0
-7.329664758535447 -298.5687045887405 0
-5.914510265931296 -299.0935729343823 0
-7.352220429838685 -299.4874938935172 0
-8.660596320809393 -253.9613035416757 0
-7.568903404780579 -258.1039696156896 0
-8.919673172989057 -261.5584126272324 0
-7.773653738025228 -265.0860740256585 0
-9.139888498111896 -268.0159553725375 0
-7.947691521299367 -271.0208627746777 0
-9.327071524324174 -273.504866701876 0
-8.095623636821619 -276.0654332024509 0
-9.486177096537515 -278.1704413298446 0
-8.221365935160831 -280.3533180710087 0
-9.621416832704433 -282.1361797573299 0
-8.328246888235032 -283.9980201917543 0
-9.736370608282106 -285.5070574158785 0
-8.419095698579824 -287.0960170022901 0
-9.83408131737332 -288.3723034212514 0
-8.496317186883473 -289.7293142745542 0
-9.917135419718608 -290.8077625146138 0
-8.561955451773663 -291.9676169502653 0
-9.987731406842867 -292.8779027478031 0
-8.617747977323047 -293.8701742379909 0
-10.04773799651393 -294.6375219640558 0
-8.665171624705728 -295.4873479552658 0
-10.09874359754431 -296.1331982923034 0
-8.705481723988616 -296.8619455811147 0
-10.14209835743978 -297.4045231425681 0
-8.739745307685244 -298.0303535394241 0
-10.17894990290651 -298.4851492522594 0
-8.76886935375671 -299.0235003015758 0
-10.21027371606316 -299.4036814311254 0
-10.0319714743004 -258.0199739912746 0
-10.30335154033466 -264.9998061920041 0
-10.53402459648543 -270.9326635631785 0
-10.73009669386798 -275.9755923197875 0
-10.89675797683586 -280.2620817678599 0
-11.03842006667701 -283.9055977811936 0
-11.15883284334912 -287.0025864004267 0
-11.26118370287177 -289.635026710091 0
-11.34818193324307 -291.872600967577 0
-11.42213042957985 -293.7745390998356 0
-11.48498665234824 -295.3911865349464 0
-11.53841444038582 -296.7653368209579 0
-11.58382805929823 -297.9333645404165 0
-11.62242963528017 -298.9261880995478 0
$EndNodes
$Elements
13 414 1 414
1 1 8 3
1 1 17 19 
2 17 18 20 
3 18 2 21 
1 2 8 9
4 2 22 30 
5 22 23 31 
6 23 24 32 
7 24 25 33 
8 25 26 34 
9 26 27 35 
10 27 28 36 
11 28 29 37 
12 29 3 38 
1 3 8 3
13 3 39 41 
14 39 40 42 
15 40 4 43 
1 11 8 9
16 14 103 111 
17 103 104 112 
18 104 105 113 
19 105 106 114 
20 106 107 115 
21 107 108 116 
22 108 109 117 
23 109 110 118 
24 110 15 119 
2 1 16 12
25 1 17 321 125 19 327 328 128 
26 125 321 322 126 328 329 330 129 
27 126 322 323 127 330 331 332 130 
28 127 323 44 5 332 333 46 131 
29 17 18 324 321 20 334 335 327 
30 321 324 325 322 335 336 337 329 
31 322 325 326 323 337 338 339 331 
32 323 326 45 44 339 340 47 333 
33 18 2 174 324 21 177 341 334 
34 324 174 175 325 341 178 342 336 
35 325 175 176 326 342 179 343 338 
36 326 176 6 45 343 180 48 340 
2 2 16 36
37 2 22 344 174 30 368 369 177 
38 174 344 345 175 369 370 371 178 
39 175 345 346 176 371 372 373 179 
40 176 346 49 6 373 374 57 180 
41 22 23 347 344 31 375 376 368 
42 344 347 348 345 376 377 378 370 
43 345 348 349 346 378 379 380 372 
44 346 349 50 49 380 381 58 374 
45 23 24 350 347 32 382 383 375 
46 347 350 351 348 383 384 385 377 
47 348 351 352 349 385 386 387 379 
48 349 352 51 50 387 388 59 381 
49 24 25 353 350 33 389 390 382 
50 350 353 354 351 390 391 392 384 
51 351 354 355 352 392 393 394 386 
52 352 355 52 51 394 395 60 388 
53 25 26 356 353 34 396 397 389 
54 353 356 357 354 397 398 399 391 
55 354 357 358 355 399 400 401 393 
56 355 358 53 52 401 402 61 395 
57 26 27 359 356 35 403 404 396 
58 356 359 360 357 404 405 406 398 
59 357 360 361 358 406 407 408 400 
60 358 361 54 53 408 409 62 402 
61 27 28 362 359 36 410 411 403 
62 359 362 363 360 411 412 413 405 
63 360 363 364 361 413 414 415 407 
64 361 364 55 54 415 416 63 409 
65 28 29 365 362 37 417 418 410 
66 362 365 366 363 418 419 420 412 
67 363 366 367 364 420 421 422 414 
68 364 367 56 55 422 423 64 416 
69 29 3 223 365 38 226 424 417 
70 365 223 224 366 424 227 425 419 
71 366 224 225 367 425 228 426 421 
72 367 225 7 56 426 229 65 423 
2 3 16 12
73 3 39 427 223 41 433 434 226 
74 223 427 428 224 434 435 436 227 
75 224 428 429 225 436 437 438 228 
76 225 429 66 7 438 439 68 229 
77 39 40 430 427 42 440 441 433 
78 427 430 431 428 441 442 443 435 
79 428 431 432 429 443 444 445 437 
80 429 432 67 66 445 446 69 439 
81 40 4 272 430 43 275 447 440 
82 430 272 273 431 447 276 448 442 
83 431 273 274 432 448 277 449 444 
84 432 274 8 67 449 278 70 446 
2 4 16 21
85 5 44 450 132 46 462 463 138 
86 132 450 451 133 463 464 465 139 
87 133 451 452 134 465 466 467 140 
88 134 452 453 135 467 468 469 141 
89 135 453 454 136 469 470 471 142 
90 136 454 455 137 471 472 473 143 
91 137 455 71 9 473 474 73 144 
92 44 45 456 450 47 475 476 462 
93 450 456 457 451 476 477 478 464 
94 451 457 458 452 478 479 480 466 
95 452 458 459 453 480 481 482 468 
96 453 459 460 454 482 483 484 470 
97 454 460 461 455 484 485 486 472 
98 455 461 72 71 486 487 74 474 
99 45 6 181 456 48 187 488 475 
100 456 181 182 457 488 188 489 477 
101 457 182 183 458 489 189 490 479 
102 458 183 184 459 490 190 491 481 
103 459 184 185 460 491 191 492 483 
104 460 185 186 461 492 192 493 485 
105 461 186 10 72 493 193 75 487 
2 5 16 63
106 6 49 494 181 57 542 543 187 
107 181 494 495 182 543 544 545 188 
108 182 495 496 183 545 546 547 189 
109 183 496 497 184 547 548 549 190 
110 184 497 498 185 549 550 551 191 
111 185 498 499 186 551 552 553 192 
112 186 499 76 10 553 554 84 193 
113 49 50 500 494 58 555 556 542 
114 494 500 501 495 556 557 558 544 
115 495 501 502 496 558 559 560 546 
116 496 502 503 497 560 561 562 548 
117 497 503 504 498 562 563 564 550 
118 498 504 505 499 564 565 566 552 
119 499 505 77 76 566 567 85 554 
120 50 51 506 500 59 568 569 555 
121 500 506 507 501 569 570 571 557 
122 501 507 508 502 571 572 573 559 
123 502 508 509 503 573 574 575 561 
124 503 509 510 504 575 576 577 563 
125 504 510 511 505 577 578 579 565 
126 505 511 78 77 579 580 86 567 
127 51 52 512 506 60 581 582 568 
128 506 512 513 507 582 583 584 570 
129 507 513 514 508 584 585 586 572 
130 508 514 515 509 586 587 588 574 
131 509 515 516 510 588 589 590 576 
132 510 516 517 511 590 591 592 578 
133 511 517 79 78 592 593 87 580 
134 52 53 518 512 61 594 595 581 
135 512 518 519 513 595 596 597 583 
136 513 519 520 514 597 598 599 585 
137 514 520 521 515 599 600 601 587 
138 515 521 522 516 601 602 603 589 
139 516 522 523 517 603 604 605 591 
140 517 523 80 79 605 606 88 593 
141 53 54 524 518 62 607 608 594 
142 518 524 525 519 608 609 610 596 
143 519 525 526 520 610 611 612 598 
144 520 526 527 521 612 613 614 600 
145 521 527 528 522 614 615 616 602 
146 522 528 529 523 616 617 618 604 
147 523 529 81 80 618 619 89 606 
148 54 55 530 524 63 620 621 607 
149 524 530 531 525 621 622 623 609 
150 525 531 532 526 623 624 625 611 
151 526 532 533 527 625 626 627 613 
152 527 533 534 528 627 628 629 615 
153 528 534 535 529 629 630 631 617 
154 529 535 82 81 631 632 90 619 
155 55 56 536 530 64 633 634 620 
156 530 536 537 531 634 635 636 622 
157 531 537 538 532 636 637 638 624 
158 532 538 539 533 638 639 640 626 
159 533 539 540 534 640 641 642 628 
160 534 540 541 535 642 643 644 630 
161 535 541 83 82 644 645 91 632 
162 56 7 230 536 65 236 646 633 
163 536 230 231 537 646 237 647 635 
164 537 231 232 538 647 238 648 637 
165 538 232 233 539 648 239 649 639 
166 539 233 234 540 649 240 650 641 
167 540 234 235 541 650 241 651 643 
168 541 235 11 83 651 242 92 645 
2 6 16 21
169 7 66 652 230 68 664 665 236 
170 230 652 653 231 665 666 667 237 
171 231 653 654 232 667 668 669 238 
172 232 654 655 233 669 670 671 239 
173 233 655 656 234 671 672 673 240 
174 234 656 657 235 673 674 675 241 
175 235 657 93 11 675 676 95 242 
176 66 67 658 652 69 677 678 664 
177 652 658 659 653 678 679 680 666 
178 653 659 660 654 680 681 682 668 
179 654 660 661 655 682 683 684 670 
180 655 661 662 656 684 685 686 672 
181 656 662 663 657 686 687 688 674 
182 657 663 94 93 688 689 96 676 
183 67 8 279 658 70 285 690 677 
184 658 279 280 659 690 286 691 679 
185 659 280 281 660 691 287 692 681 
186 660 281 282 661 692 288 693 683 
187 661 282 283 662 693 289 694 685 
188 662 283 284 663 694 290 695 687 
189 663 284 12 94 695 291 97 689 
2 7 16 45
190 9 71 696 145 73 724 725 159 
191 145 696 697 146 725 726 727 160 
192 146 697 698 147 727 728 729 161 
193 147 698 699 148 729 730 731 162 
194 148 699 700 149 731 732 733 163 
195 149 700 701 150 733 734 735 164 
196 150 701 702 151 735 736 737 165 
197 151 702 703 152 737 738 739 166 
198 152 703 704 153 739 740 741 167 
199 153 704 705 154 741 742 743 168 
200 154 705 706 155 743 744 745 169 
201 155 706 707 156 745 746 747 170 
202 156 707 708 157 747 748 749 171 
203 157 708 709 158 749 750 751 172 
204 158 709 98 13 751 752 100 173 
205 71 72 710 696 74 753 754 724 
206 696 710 711 697 754 755 756 726 
207 697 711 712 698 756 757 758 728 
208 698 712 713 699 758 759 760 730 
209 699 713 714 700 760 761 762 732 
210 700 714 715 701 762 763 764 734 
211 701 715 716 702 764 765 766 736 
212 702 716 717 703 766 767 768 738 
213 703 717 718 704 768 769 770 740 
214 704 718 719 705 770 771 772 742 
215 705 719 720 706 772 773 774 744 
216 706 720 721 707 774 775 776 746 
217 707 721 722 708 776 777 778 748 
218 708 722 723 709 778 779 780 750 
219 709 723 99 98 780 781 101 752 
220 72 10 194 710 75 208 782 753 
221 710 194 195 711 782 209 783 755 
222 711 195 196 712 783 210 784 757 
223 712 196 197 713 784 211 785 759 
224 713 197 198 714 785 212 786 761 
225 714 198 199 715 786 213 787 763 
226 715 199 200 716 787 214 788 765 
227 716 200 201 717 788 215 789 767 
228 717 201 202 718 789 216 790 769 
229 718 202 203 719 790 217 791 771 
230 719 203 204 720 791 218 792 773 
231 720 204 205 721 792 219 793 775 
232 721 205 206 722 793 220 794 777 
233 722 206 207 723 794 221 795 779 
234 723 207 14 99 795 222 102 781 
2 8 16 135
235 10 76 796 194 84 908 909 208 
236 194 796 797 195 909 910 911 209 
237 195 797 798 196 911 912 913 210 
238 196 798 799 197 913 914 915 211 
239 197 799 800 198 915 916 917 212 
240 198 800 801 199 917 918 919 213 
241 199 801 802 200 919 920 921 214 
242 200 802 803 201 921 922 923 215 
243 201 803 804 202 923 924 925 216 
244 202 804 805 203 925 926 927 217 
245 203 805 806 204 927 928 929 218 
246 204 806 807 205 929 930 931 219 
247 205 807 808 206 931 932 933 220 
248 206 808 809 207 933 934 935 221 
249 207 809 103 14 935 936 111 222 
250 76 77 810 796 85 937 938 908 
251 796 810 811 797 938 939 940 910 
252 797 811 812 798 940 941 942 912 
253 798 812 813 799 942 943 944 914 
254 799 813 814 800 944 945 946 916 
255 800 814 815 801 946 947 948 918 
256 801 815 816 802 948 949 950 920 
257 802 816 817 803 950 951 952 922 
258 803 817 818 804 952 953 954 924 
259 804 818 819 805 954 955 956 926 
260 805 819 820 806 956 957 958 928 
261 806 820 821 807 958 959 960 930 
262 807 821 822 808 960 961 962 932 
263 808 822 823 809 962 963 964 934 
264 809 823 104 103 964 965 112 936 
265 77 78 824 810 86 966 967 937 
266 810 824 825 811 967 968 969 939 
267 811 825 826 812 969 970 971 941 
268 812 826 827 813 971 972 973 943 
269 813 827 828 814 973 974 975 945 
270 814 828 829 815 975 976 977 947 
271 815 829 830 816 977 978 979 949 
272 816 830 831 817 979 980 981 951 
273 817 831 832 818 981 982 983 953 
274 818 832 833 819 983 984 985 955 
275 819 833 834 820 985 986 987 957 
276 820 834 835 821 987 988 989 959 
277 821 835 836 822 989 990 991 961 
278 822 836 837 823 991 992 993 963 
279 823 837 105 104 993 994 113 965 
280 78 79 838 824 87 995 996 966 
281 824 838 839 825 996 997 998 968 
282 825 839 840 826 998 999 1000 970 
283 826 840 841 827 1000 1001 1002 972 
284 827 841 842 828 1002 1003 1004 974 
285 828 842 843 829 1004 1005 1006 976 
286 829 843 844 830 1006 1007 1008 978 
287 830 844 845 831 1008 1009 1010 980 
288 831 845 846 832 1010 1011 1012 982 
289 832 846 847 833 1012 1013 1014 984 
290 833 847 848 834 1014 1015 1016 986 
291 834 848 849 835 1016 1017 1018 988 
292 835 849 850 836 1018 1019 1020 990 
293 836 850 851 837 1020 1021 1022 992 
294 837 851 106 105 1022 1023 114 994 
295 79 80 852 838 88 1024 1025 995 
296 838 852 853 839 1025 1026 1027 997 
297 839 853 854 840 1027 1028 1029 999 
298 840 854 855 841 1029 1030 1031 1001 
299 841 855 856 842 1031 1032 1033 1003 
300 842 856 857 843 1033 1034 1035 1005 
301 843 857 858 844 1035 1036 1037 1007 
302 844 858 859 845 1037 1038 1039 1009 
303 845 859 860 846 1039 1040 1041 1011 
304 846 860 861 847 1041 1042 1043 1013 
305 847 861 862 848 1043 1044 1045 1015 
306 848 862 863 849 1045 1046 1047 1017 
307 849 863 864 850 1047 1048 1049 1019 
308 850 864 865 851 1049 1050 1051 1021 
309 851 865 107 106 1051 1052 115 1023 
310 80 81 866 852 89 1053 1054 1024 
311 852 866 867 853 1054 1055 1056 1026 
312 853 867 868 854 1056 1057 1058 1028 
313 854 868 869 855 1058 1059 1060 1030 
314 855 869 870 856 1060 1061 1062 1032 
315 856 870 871 857 1062 1063 1064 1034 
316 857 871 872 858 1064 1065 1066 1036 
317 858 872 873 859 1066 1067 1068 1038 
318 859 873 874 860 1068 1069 1070 1040 
319 860 874 875 861 1070 1071 1072 1042 
320 861 875 876 862 1072 1073 1074 1044 
321 862 876 877 863 1074 1075 1076 1046 
322 863 877 878 864 1076 1077 1078 1048 
323 864 878 879 865 1078 1079 1080 1050 
324 865 879 108 107 1080 1081 116 1052 
325 81 82 880 866 90 1082 1083 1053 
326 866 880 881 867 1083 1084 1085 1055 
327 867 881 882 868 1085 1086 1087 1057 
328 868 882 883 869 1087 1088 1089 1059 
329 869 883 884 870 1089 1090 1091 1061 
330 870 884 885 871 1091 1092 1093 1063 
331 871 885 886 872 1093 1094 1095 1065 
332 872 886 887 873 1095 1096 1097 1067 
333 873 887 888 874 1097 1098 1099 1069 
334 874 888 889 875 1099 1100 1101 1071 
335 875 889 890 876 1101 1102 1103 1073 
336 876 890 891 877 1103 1104 1105 1075 
337 877 891 892 878 1105 1106 1107 1077 
338 878 892 893 879 1107 1108 1109 1079 
339 879 893 109 108 1109 1110 117 1081 
340 82 83 894 880 91 1111 1112 1082 
341 880 894 895 881 1112 1113 1114 1084 
342 881 895 896 882 1114 1115 1116 1086 
343 882 896 897 883 1116 1117 1118 1088 
344 883 897 898 884 1118 1119 1120 1090 
345 884 898 899 885 1120 1121 1122 1092 
346 885 899 900 886 1122 1123 1124 1094 
347 886 900 901 887 1124 1125 1126 1096 
348 887 901 902 888 1126 1127 1128 1098 
349 888 902 903 889 1128 1129 1130 1100 
350 889 903 904 890 1130 1131 1132 1102 
351 890 904 905 891 1132 1133 1134 1104 
352 891 905 906 892 1134 1135 1136 1106 
353 892 906 907 893 1136 1137 1138 1108 
354 893 907 110 109 1138 1139 118 1110 
355 83 11 243 894 92 257 1140 1111 
356 894 243 244 895 1140 258 1141 1113 
357 895 244 245 896 1141 259 1142 1115 
358 896 245 246 897 1142 260 1143 1117 
359 897 246 247 898 1143 261 1144 1119 
360 898 247 248 899 1144 262 1145 1121 
361 899 248 249 900 1145 263 1146 1123 
362 900 249 250 901 1146 264 1147 1125 
363 901 250 251 902 1147 265 1148 1127 
364 902 251 252 903 1148 266 1149 1129 
365 903 252 253 904 1149 267 1150 1131 
366 904 253 254 905 1150 268 1151 1133 
367 905 254 255 906 1151 269 1152 1135 
368 906 255 256 907 1152 270 1153 1137 
369 907 256 15 110 1153 271 119 1139 
2 9 16 45
370 11 93 1154 243 95 1182 1183 257 
371 243 1154 1155 244 1183 1184 1185 258 
372 244 1155 1156 245 1185 1186 1187 259 
373 245 1156 1157 246 1187 1188 1189 260 
374 246 1157 1158 247 1189 1190 1191 261 
375 247 1158 1159 248 1191 1192 1193 262 
376 248 1159 1160 249 1193 1194 1195 263 
377 249 1160 1161 250 1195 1196 1197 264 
378 250 1161 1162 251 1197 1198 1199 265 
379 251 1162 1163 252 1199 1200 1201 266 
380 252 1163 1164 253 1201 1202 1203 267 
381 253 1164 1165 254 1203 1204 1205 268 
382 254 1165 1166 255 1205 1206 1207 269 
383 255 1166 1167 256 1207 1208 1209 270 
384 256 1167 120 15 1209 1210 122 271 
385 93 94 1168 1154 96 1211 1212 1182 
386 1154 1168 1169 1155 1212 1213 1214 1184 
387 1155 1169 1170 1156 1214 1215 1216 1186 
388 1156 1170 1171 1157 1216 1217 1218 1188 
389 1157 1171 1172 1158 1218 1219 1220 1190 
390 1158 1172 1173 1159 1220 1221 1222 1192 
391 1159 1173 1174 1160 1222 1223 1224 1194 
392 1160 1174 1175 1161 1224 1225 1226 1196 
393 1161 1175 1176 1162 1226 1227 1228 1198 
394 1162 1176 1177 1163 1228 1229 1230 1200 
395 1163 1177 1178 1164 1230 1231 1232 1202 
396 1164 1178 1179 1165 1232 1233 1234 1204 
397 1165 1179 1180 1166 1234 1235 1236 1206 
398 1166 1180 1181 1167 1236 1237 1238 1208 
399 1167 1181 121 120 1238 1239 123 1210 
400 94 12 292 1168 97 306 1240 1211 
401 1168 292 293 1169 1240 307 1241 1213 
402 1169 293 294 1170 1241 308 1242 1215 
403 1170 294 295 1171 1242 309 1243 1217 
404 1171 295 296 1172 1243 310 1244 1219 
405 1172 296 297 1173 1244 311 1245 1221 
406 1173 297 298 1174 1245 312 1246 1223 
407 1174 298 299 1175 1246 313 1247 1225 
408 1175 299 300 1176 1247 314 1248 1227 
409 1176 300 301 1177 1248 315 1249 1229 
410 1177 301 302 1178 1249 316 1250 1231 
411 1178 302 303 1179 1250 317 1251 1233 
412 1179 303 304 1180 1251 318 1252 1235 
413 1180 304 305 1181 1252 319 1253 1237 
414 1181 305 16 121 1253 320 124 1239 
$EndElements
