$MeshFormat
4.1 0 8
$EndMeshFormat
$Entities
4 4 1 0
1 -150 -392.300904918661 0 0 
2 150 -392.300904918661 0 0 
3 -1.75000000000139 -419.996354150843 0 0 
4 1.74999999999862 -419.996354150843 0 0 
1 -150.0000001 -392.300905018661 -1e-07 150.0000001 -392.300904818661 1e-07 0 2 1 -2 
2 -150.0000001000001 -419.996354250843 -1e-07 -1.749999900001413 -392.3009048186609 1e-07 0 2 3 -1 
3 -1.75000010000139 -419.996354250843 -1e-07 1.75000009999862 -419.996354050843 1e-07 0 2 4 -3 
4 1.74999989999867 -419.9963542508424 -1e-07 150.0000000999999 -392.3009048186605 1e-07 0 2 2 -4 
1 -150.0000001000001 -419.996354250843 -1e-07 150.0000001 -392.3009048186605 1e-07 0 4 -1 -2 -3 -4 
$EndEntities
$Nodes
9 689 1 689
0 1 0 1
1
-150 -392.300904918661 0
0 2 0 1
2
150 -392.300904918661 0
0 3 0 1
3
-1.75000000000139 -419.996354150843 0
0 4 0 1
4
1.74999999999862 -419.996354150843 0
1 1 0 79
5
6
7
8
9
10
11
12
13
14
15
16
17
18
19
20
21
22
23
24
25
26
27
28
29
30
31
32
33
34
35
36
37
38
39
40
41
42
43
44
45
46
47
48
49
50
51
52
53
54
55
56
57
58
59
60
61
62
63
64
65
66
67
68
69
70
71
72
73
74
75
76
77
78
79
80
81
82
83
-146.25 -392.300904918661 0
-142.5 -392.300904918661 0
-138.75 -392.300904918661 0
-135 -392.300904918661 0
-131.25 -392.300904918661 0
-127.5 -392.300904918661 0
-123.75 -392.300904918661 0
-120 -392.300904918661 0
-116.25 -392.300904918661 0
-112.5 -392.300904918661 0
-108.75 -392.300904918661 0
-105 -392.300904918661 0
-101.25 -392.300904918661 0
-97.50000000000001 -392.300904918661 0
-93.75000000000001 -392.300904918661 0
-90.00000000000001 -392.300904918661 0
-86.25000000000003 -392.300904918661 0
-82.50000000000004 -392.300904918661 0
-78.75000000000006 -392.300904918661 0
-75.00000000000007 -392.300904918661 0
-71.25000000000009 -392.300904918661 0
-67.5000000000001 -392.300904918661 0
-63.7500000000001 -392.300904918661 0
-60.00000000000011 -392.300904918661 0
-56.25000000000011 -392.300904918661 0
-52.50000000000013 -392.300904918661 0
-48.75000000000013 -392.300904918661 0
-45.00000000000014 -392.300904918661 0
-41.25000000000016 -392.300904918661 0
-37.50000000000017 -392.300904918661 0
-33.75000000000017 -392.300904918661 0
-30.00000000000018 -392.300904918661 0
-26.2500000000002 -392.300904918661 0
-22.50000000000021 -392.300904918661 0
-18.75000000000023 -392.300904918661 0
-15.00000000000023 -392.300904918661 0
-11.25000000000023 -392.300904918661 0
-7.500000000000227 -392.300904918661 0
-3.750000000000227 -392.300904918661 0
-2.557953848736361e-13 -392.300904918661 0
3.749999999999716 -392.300904918661 0
7.499999999999716 -392.300904918661 0
11.24999999999972 -392.300904918661 0
14.99999999999969 -392.300904918661 0
18.74999999999966 -392.300904918661 0
22.49999999999966 -392.300904918661 0
26.24999999999966 -392.300904918661 0
29.99999999999963 -392.300904918661 0
33.7499999999996 -392.300904918661 0
37.4999999999996 -392.300904918661 0
41.2499999999996 -392.300904918661 0
44.99999999999957 -392.300904918661 0
48.74999999999957 -392.300904918661 0
52.49999999999957 -392.300904918661 0
56.24999999999955 -392.300904918661 0
59.99999999999955 -392.300904918661 0
63.74999999999955 -392.300904918661 0
67.49999999999955 -392.300904918661 0
71.24999999999955 -392.300904918661 0
74.99999999999952 -392.300904918661 0
78.74999999999952 -392.300904918661 0
82.49999999999952 -392.300904918661 0
86.24999999999949 -392.300904918661 0
89.99999999999949 -392.300904918661 0
93.74999999999952 -392.300904918661 0
97.49999999999955 -392.300904918661 0
101.2499999999996 -392.300904918661 0
104.9999999999996 -392.300904918661 0
108.7499999999996 -392.300904918661 0
112.4999999999997 -392.300904918661 0
116.2499999999997 -392.300904918661 0
119.9999999999997 -392.300904918661 0
123.7499999999997 -392.300904918661 0
127.4999999999998 -392.300904918661 0
131.2499999999998 -392.300904918661 0
134.9999999999998 -392.300904918661 0
138.7499999999998 -392.300904918661 0
142.4999999999999 -392.300904918661 0
146.2499999999999 -392.300904918661 0
1 2 0 47
84
85
86
87
88
89
90
91
92
93
94
95
96
97
98
99
100
101
102
103
104
105
106
107
108
109
110
111
112
113
114
115
116
117
118
119
120
121
122
123
124
125
126
127
128
129
130
-4.909876651812979 -419.9841960079028 0
-8.069566184609712 -419.9477222990537 0
-11.22888149045797 -419.8869351841661 0
-14.38763548358415 -419.8018382628821 0
-17.5456411114546 -419.6924365744022 0
-20.70271136585109 -419.558736597187 0
-23.85865929394633 -419.4007462485734 0
-27.01329800937327 -419.2184748843057 0
-30.16644070329347 -419.011933297982 0
-33.31790065545805 -418.7811337204143 0
-36.46749124526599 -418.5260898189053 0
-39.61502596281393 -418.2468166964377 0
-42.76031841994231 -417.9433308907812 0
-45.90318236127128 -417.6156503735121 0
-49.04343167523092 -417.2637945489498 0
-52.18088040508276 -416.8877842530073 0
-55.31534275993049 -416.4876417519577 0
-58.44663312572241 -416.0633907411151 0
-61.57456607624393 -415.6150563434322 0
-64.69895638409609 -415.142665108012 0
-67.81961903166625 -414.6462450085357 0
-70.93636922208252 -414.1258254416067 0
-74.04902239015843 -413.5814372250088 0
-77.15739421332098 -413.0131125958825 0
-80.26130062252707 -412.4208852088148 0
-83.3605578131622 -411.8047901338475 0
-86.45498225592614 -411.1648638543991 0
-89.5443907076998 -410.5011442651055 0
-92.62860022239765 -409.8136706695755 0
-95.70742816179984 -409.1024837780633 0
-98.78069220636912 -408.3676257050578 0
-101.8482103660456 -407.6091399667888 0
-104.9098009910254 -406.8270714786501 0
-107.9652827825157 -406.0214665525396 0
-111.0144748034725 -405.1923728941168 0
-114.0571964893137 -404.3398395999782 0
-117.0932676586125 -403.4639171547494 0
-120.1225085237669 -402.5646574280958 0
-123.1447397016467 -401.6421136716511 0
-126.159782224215 -400.6963405158639 0
-129.1674575491276 -399.7273939667623 0
-132.1675875703042 -398.7353314026379 0
-135.1599946284772 -397.7202115706475 0
-138.1445015217101 -396.6820945833347 0
-141.120931515893 -395.6210419150698 0
-144.0891083552064 -394.53711639841 0
-147.04885627256 -393.4303822203777 0
1 3 0 15
131
132
133
134
135
136
137
138
139
140
141
142
143
144
145
1.531249999998619 -419.996354150843 0
1.312499999998617 -419.996354150843 0
1.093749999998616 -419.996354150843 0
0.8749999999986148 -419.996354150843 0
0.6562499999986136 -419.996354150843 0
0.4374999999986122 -419.996354150843 0
0.2187499999986109 -419.996354150843 0
-1.390443316040546e-12 -419.996354150843 0
-0.2187500000013904 -419.996354150843 0
-0.4375000000013902 -419.996354150843 0
-0.6562500000013902 -419.996354150843 0
-0.8750000000013902 -419.996354150843 0
-1.09375000000139 -419.996354150843 0
-1.31250000000139 -419.996354150843 0
-1.53125000000139 -419.996354150843 0
1 4 0 47
146
147
148
149
150
151
152
153
154
155
156
157
158
159
160
161
162
163
164
165
166
167
168
169
170
171
172
173
174
175
176
177
178
179
180
181
182
183
184
185
186
187
188
189
190
191
192
147.0488562725596 -393.4303822203775 0
144.0891083552061 -394.5371163984098 0
141.1209315158926 -395.6210419150698 0
138.1445015217098 -396.6820945833348 0
135.1599946284767 -397.7202115706477 0
132.1675875703039 -398.7353314026382 0
129.1674575491271 -399.7273939667626 0
126.1597822242146 -400.6963405158642 0
123.1447397016462 -401.6421136716516 0
120.1225085237665 -402.5646574280963 0
117.093267658612 -403.4639171547499 0
114.0571964893131 -404.3398395999789 0
111.0144748034719 -405.1923728941176 0
107.9652827825151 -406.0214665525403 0
104.9098009910245 -406.827071478651 0
101.8482103660448 -407.6091399667898 0
98.78069220636817 -408.3676257050587 0
95.70742816179894 -409.1024837780643 0
92.62860022239661 -409.8136706695766 0
89.54439070769881 -410.5011442651065 0
86.45498225592503 -411.1648638544001 0
83.36055781316094 -411.8047901338485 0
80.2613006225257 -412.4208852088159 0
77.15739421331965 -413.0131125958836 0
74.04902239015696 -413.5814372250099 0
70.93636922208108 -414.1258254416077 0
67.81961903166469 -414.6462450085368 0
64.69895638409454 -415.142665108013 0
61.57456607624223 -415.6150563434333 0
58.44663312572079 -416.0633907411161 0
55.3153427599287 -416.4876417519586 0
52.18088040508104 -416.8877842530082 0
49.04343167522924 -417.2637945489507 0
45.90318236126945 -417.6156503735129 0
42.76031841994051 -417.943330890782 0
39.61502596281218 -418.2468166964384 0
36.46749124526408 -418.5260898189059 0
33.31790065545619 -418.7811337204149 0
30.16644070329129 -419.0119332979825 0
27.01329800937111 -419.2184748843061 0
23.85865929394403 -419.4007462485737 0
20.70271136584866 -419.5587365971872 0
17.54564111145202 -419.6924365744023 0
14.38763548358162 -419.8018382628821 0
11.22888149045532 -419.886935184166 0
8.069566184607073 -419.9477222990535 0
4.909876651810195 -419.9841960079024 0
2 1 0 497
193
194
195
196
197
198
199
200
201
202
203
204
205
206
207
208
209
210
211
212
213
214
215
216
217
218
219
220
221
222
223
224
225
226
227
228
229
230
231
232
233
234
235
236
237
238
239
240
241
242
243
244
245
246
247
248
249
250
251
252
253
254
255
256
257
258
259
260
261
262
263
264
265
266
267
268
269
270
271
272
273
274
275
276
277
278
279
280
281
282
283
284
285
286
287
288
289
290
291
292
293
294
295
296
297
298
299
300
301
302
303
304
305
306
307
308
309
310
311
312
313
314
315
316
317
318
319
320
321
322
323
324
325
326
327
328
329
330
331
332
333
334
335
336
337
338
339
340
341
342
343
344
345
346
347
348
349
350
351
352
353
354
355
356
357
358
359
360
361
362
363
364
365
366
367
368
369
370
371
372
373
374
375
376
377
378
379
380
381
382
383
384
385
386
387
388
389
390
391
392
393
394
395
396
397
398
399
400
401
402
403
404
405
406
407
408
409
410
411
412
413
414
415
416
417
418
419
420
421
422
423
424
425
426
427
428
429
430
431
432
433
434
435
436
437
438
439
440
441
442
443
444
445
446
447
448
449
450
451
452
453
454
455
456
457
458
459
460
461
462
463
464
465
466
467
468
469
470
471
472
473
474
475
476
477
478
479
480
481
482
483
484
485
486
487
488
489
490
491
492
493
494
495
496
497
498
499
500
501
502
503
504
505
506
507
508
509
510
511
512
513
514
515
516
517
518
519
520
521
522
523
524
525
526
527
528
529
530
531
532
533
534
535
536
537
538
539
540
541
542
543
544
545
546
547
548
549
550
551
552
553
554
555
556
557
558
559
560
561
562
563
564
565
566
567
568
569
570
571
572
573
574
575
576
577
578
579
580
581
582
583
584
585
586
587
588
589
590
591
592
593
594
595
596
597
598
599
600
601
602
603
604
605
606
607
608
609
610
611
612
613
614
615
616
617
618
619
620
621
622
623
624
625
626
627
628
629
630
631
632
633
634
635
636
637
638
639
640
641
642
643
644
645
646
647
648
649
650
651
652
653
654
655
656
657
658
659
660
661
662
663
664
665
666
667
668
669
670
671
672
673
674
675
676
677
678
679
680
681
682
683
684
685
686
687
688
689
-3.358814722869659 -417.7537920977929 0
4.428670918284498 -417.585985751437 0
-12.02521317484555 -417.0192043768859 0
13.39083053705577 -416.8447439903254 0
-21.65784189381481 -416.7872605249948 0
22.68455060048314 -416.5782949736095 0
-30.5938358316243 -416.4019033483345 0
31.9636108264271 -416.1108374901272 0
-7.107111276391768 -395.2673490543635 0
41.24984727724898 -415.2840056365543 0
-40.35624148433052 -415.204214746076 0
50.55374428523388 -414.1325789131529 0
-50.22089453428057 -414.1552112578857 0
4.151713526378603 -395.4865940487057 0
-0.09041944274513519 -419.6849482015717 0
0.7711717738528705 -419.7502626625205 0
-0.7275021008567766 -419.7950084951628 0
15.38094446482228 -395.5874989159977 0
-17.74664397308409 -395.5240733372825 0
60.79027497473187 -412.788992345416 0
-61.08456410654365 -413.283474957393 0
-28.9205525449583 -395.4843625517173 0
27.69460304601267 -395.3677442294857 0
69.85497997700909 -411.3824125002404 0
-69.26026717556279 -412.1612930626014 0
42.50944757097437 -396.3710049078908 0
-43.9730174346487 -395.6619869702361 0
52.94138176316034 -395.8396815909566 0
-55.53777136462948 -395.4526309097762 0
78.94311425938724 -409.5733435745482 0
-78.26884882404582 -409.7815101966605 0
64.94408491560087 -395.6563606108693 0
-66.92708614929943 -395.6082896390811 0
87.96983458504722 -407.747887057022 0
-88.43939173343254 -407.5798535874684 0
71.88582835868944 -395.5484755660857 0
-74.5532303969382 -395.3677259648403 0
34.72490716096596 -395.6155928081944 0
-36.23478938889851 -395.5215501747057 0
-94.76711053383214 -406.4520536531532 0
94.01005895220716 -406.4647464429274 0
79.93118278776836 -395.7938795401436 0
-81.84373623601846 -395.376867715782 0
100.0092735094812 -405.0732304950081 0
-100.8232160765583 -405.0005809014452 0
86.99296785640782 -395.717003640613 0
-89.04134499053335 -395.4172711949016 0
105.9774253216987 -403.6109283751094 0
-106.8929572161983 -403.2814125888768 0
95.12230044007826 -395.9759654329864 0
-96.20212410426646 -395.5225424074073 0
111.8552938914275 -401.9052581455171 0
-113.0878114709983 -401.5302452505139 0
102.1805383980429 -395.699197187916 0
-103.5163669558455 -395.5674014929382 0
117.8783827145983 -400.1923489399442 0
-119.2199020765941 -399.8757757701091 0
110.5749523852122 -395.597459516825 0
-111.9640158998449 -395.4649377375908 0
124.9447666610155 -398.3715399880628 0
-124.0835329214298 -398.4502333891238 0
117.4337568288596 -395.2145679274955 0
-117.8827309613882 -395.1046314541355 0
129.3434954549267 -396.9259154931014 0
-129.3434954444863 -396.9259155530854 0
-6.428188040650077 -416.4663001789733 0
-3.836274312012393 -415.426769906164 0
-7.376085141872529 -413.9360897973618 0
-5.187566240818776 -412.8861493276943 0
-7.949263028545923 -412.3128055814568 0
-6.559315244655462 -411.0191712546691 0
-2.961698686194896 -411.7019530701093 0
-8.649129560320652 -409.8738291683297 0
-3.867599474691184 -408.5907741985 0
-1.233675427175042 -409.0425577610532 0
-2.005792591373748 -406.2329002864359 0
0.3820020147822662 -407.7086394759889 0
-4.887162062162313 -405.1933390138155 0
1.886360164942348 -409.9107979257628 0
4.73104488015309 -408.871300290061 0
5.675351441730342 -411.7500610249641 0
7.775498017622597 -408.2233739724954 0
-0.01840792691117221 -403.9013741837916 0
7.423257718542397 -405.2634832230069 0
9.878454914456052 -405.3773462742403 0
10.71625909732126 -407.6146164887543 0
14.22984108544852 -406.5656632436834 0
14.7860412809257 -410.4781756098816 0
17.98404665133887 -407.5057959689559 0
11.64332088499844 -402.9802120104226 0
18.04567460771195 -410.6171237117033 0
21.15406615782523 -408.142807701869 0
18.28283849098124 -404.5441965308949 0
21.99210231954515 -404.8438294041003 0
23.41118622028347 -408.8470767496066 0
25.63599802044572 -407.3797428293954 0
21.05977698725234 -401.5514186322376 0
26.8126322545948 -410.7737185983418 0
29.4283333953255 -407.8587349609083 0
26.38607302599177 -404.0684855626936 0
29.57859852484253 -404.9308943230195 0
31.75764651960773 -408.338876600848 0
33.39881478189196 -406.3472007504921 0
35.41842775516984 -409.8955563475229 0
37.30817776813761 -405.9855208909325 0
36.38968687188687 -402.3996201015771 0
40.6388301429489 -405.7206252978282 0
43.8302443263563 -405.518144618692 0
44.77569104313415 -408.7550368303632 0
46.80914972938331 -405.2663783079826 0
46.25366574366996 -402.9028527445029 0
49.57113136803525 -404.7515019800174 0
50.6521354051867 -407.6971884601274 0
52.1862535960704 -403.9081960823107 0
53.371153532437 -406.7827201962534 0
55.94943248704401 -405.709852949628 0
48.46554670817556 -401.4279779950636 0
-1.256713195480863 -416.0643603315016 0
-9.670546415943102 -412.0479934580327 0
-11.32848687328288 -409.1617276999993 0
-12.24972010077405 -411.6698902895044 0
-14.33819825628849 -408.5352103068008 0
-12.80745654479055 -405.9102594468692 0
-16.10276403975505 -405.1719111699264 0
-17.59920516674746 -407.9061008824854 0
-19.53728644100308 -404.4552708642399 0
-21.01760792586757 -407.2171839758035 0
-22.94807508442143 -403.6959868002408 0
-24.53058214606406 -406.4338313731566 0
-26.33931273128737 -402.584027166512 0
-28.18753017328554 -405.6256829454816 0
-25.82833187815143 -409.284680602818 0
-29.42043232453338 -408.4540241494697 0
-31.90531264564119 -404.9062114185869 0
-32.95556782825233 -407.7203859265607 0
-35.30847435179462 -404.2229545181069 0
-36.34434135886515 -406.9402708739412 0
-38.17554204555313 -403.2542292930471 0
-39.5906636671666 -405.9021696801709 0
-40.78631133466078 -401.9659023475015 0
-42.56320921347837 -404.3824585740961 0
-44.9019191871799 -402.3162901027528 0
-47.47083480766281 -403.891746475336 0
-48.78821178843183 -401.8097529869443 0
-50.61467035580912 -404.8390417042692 0
-14.3534440036128 -402.4002885615561 0
-33.70730765357185 -410.4824911803442 0
-44.93513271667147 -407.3795333476677 0
-24.06861618109482 -400.5673521134549 0
-34.75742839440932 -401.5119252830373 0
54.68381877011235 -402.8398821164539 0
58.49859795720876 -404.6442108083702 0
-18.61459046455061 -410.7651760067948 0
59.52406315020507 -407.5258743394066 0
61.18709024369659 -403.6791906128985 0
62.17284025268821 -406.788229490717 0
65.03188454959513 -406.1074843679348 0
59.80117348593983 -400.4579122747176 0
29.5449137343156 -401.7238268108235 0
39.74603325046497 -402.241926615955 0
-10.94357162256413 -403.2780189055136 0
-11.93769007433078 -399.3298257465008 0
-8.945974890379444 -400.6623200315478 0
-51.30058056714233 -401.7748470774532 0
-54.87204734368466 -405.4424961779612 0
-52.75966417893673 -409.0578548973528 0
-57.48017367801697 -407.8428606354886 0
-58.67706235573136 -404.0046685084133 0
-59.9483449886316 -406.305176777986 0
-60.86798488059531 -403.3735763839632 0
-62.46074756616063 -404.7705185578041 0
-64.34056261501023 -402.4993947488433 0
-67.28423013277508 -403.7198621677571 0
-68.28782876579264 -401.5829695447432 0
-70.72159522276836 -404.186739827822 0
-58.32144361547151 -401.395817737055 0
-51.45685889677274 -398.7871196771595 0
2.88532281580458 -412.5602032353614 0
6.532367520452547 -414.5474111225715 0
-70.80577575233374 -401.3604081589863 0
-74.35271073599667 -403.9590153783449 0
-74.12610779676511 -401.1878856458127 0
-76.95168752597408 -403.4682057434122 0
18.34165159354036 -401.7702732501436 0
-55.78397436270992 -410.1644845639855 0
26.38452510468209 -401.174344289029 0
11.63605687235604 -410.7235204597358 0
-61.06853609008824 -408.5477596441538 0
-30.24052464182751 -411.1705551729789 0
-26.82844053888989 -412.0140037286605 0
23.9600097597514 -410.966728264951 0
27.76141505896984 -413.5762846135284 0
32.63013428871328 -410.4046633475617 0
36.78079699609358 -412.8173675312158 0
20.75867025518668 -399.4669642900679 0
-77.3616110000535 -401.2680347495451 0
-80.66690837023768 -401.578329731602 0
41.69273891803192 -409.0553364213994 0
46.02384551858182 -411.7427342915744 0
35.58957032297584 -398.9445865333809 0
65.91334975667891 -409.1084480731924 0
67.98637900642539 -405.4698469871669 0
67.08157593344816 -402.2681742571698 0
70.92882407100005 -404.8710039832939 0
70.08896884733049 -401.7546483766115 0
72.93659638598837 -401.2724829128145 0
73.80440996486603 -404.237109125935 0
76.61896018015149 -403.5512477219324 0
75.52344279076924 -400.6331928324526 0
79.44219812414816 -402.9002525060529 0
82.3900573586518 -402.3422779832519 0
83.60132539262449 -405.4171305537846 0
85.42449333227705 -401.908721486359 0
84.42675067789564 -398.82780123866 0
88.34313948499631 -401.5334556978461 0
89.55760047704291 -404.3349987404898 0
91.01583853514268 -400.9458699196646 0
-70.68860650230599 -398.5759362427622 0
-51.27965487716874 -411.9926061236458 0
-79.56571445191604 -405.3008485176072 0
-84.2147072571922 -404.9440090321744 0
-84.22557380819293 -401.6968776595687 0
66.05883621806827 -398.9924960484635 0
63.01142618923814 -409.662582462141 0
-27.95180332188596 -398.6707795461377 0
69.25072905550856 -398.6574458174276 0
45.53442077578367 -399.120649907746 0
46.99251105717533 -397.6254096796629 0
-9.92200470083881 -397.4113963428136 0
-17.38066852836361 -398.7022247906385 0
89.83576207650354 -398.8760146008321 0
93.65695064068142 -400.1040442705072 0
95.34834749959123 -403.0263167744721 0
52.05230816957154 -410.5967730703681 0
54.79676039158086 -409.5742802506044 0
49.33746511184795 -398.3355643430061 0
-87.79998365529082 -404.599391048809 0
-87.77179188215237 -401.5677765574675 0
-91.11057450123361 -404.2426928807193 0
-91.13077110669383 -401.4095092204389 0
-84.77026701195466 -398.5171935094854 0
-1.645319388983154 -418.2041986487276 0
0.05181130048458012 -416.6140596409522 0
1.724532910781206 -418.1270141526904 0
-0.00752430734842975 -417.8421484606095 0
-54.4893233755753 -413.3905409272219 0
-47.99863788663702 -411.5044624008198 0
-46.94276180723528 -414.5838104828733 0
-27.49429699445673 -414.434756926171 0
-0.0486240163057142 -413.7433302049893 0
-81.54434919780654 -408.8346619964401 0
-75.21256001968811 -407.4237443582017 0
-73.63542505663136 -410.6413871643317 0
-9.07351063417053 -416.9707158137293 0
62.79382757970254 -399.5572882594179 0
7.326496733176788 -417.2680202307939 0
120.8738892061678 -395.3333672416843 0
-121.4130230038584 -396.1686343811801 0
-49.24901870912061 -408.1988390169131 0
-115.5244578210955 -395.1827470190515 0
114.054358392532 -395.2610867341359 0
112.6686340459295 -398.5246158137994 0
109.6032397610142 -399.3850443839547 0
106.5099836710737 -396.3685027984371 0
105.3785741791973 -398.5911705084303 0
103.0152957214342 -398.6111509536204 0
98.66126625865402 -395.7036666309944 0
-112.2697523696547 -398.5775336101527 0
-108.9049949846853 -399.4291410714142 0
-106.9450926350374 -395.6205447266783 0
-105.1223296316901 -398.471253412162 0
-102.682940568525 -398.6623671343534 0
-99.8880073915127 -395.6068769671665 0
-98.39133807096137 -399.3255372147856 0
-95.01042959590839 -398.6022153205847 0
-96.38790324158795 -401.4198794998802 0
-99.87842615151546 -402.3634008460745 0
-92.63958529075548 -395.432031564055 0
47.80903965516575 -408.2685370008788 0
38.50846322638296 -409.367059574719 0
-58.96831084440419 -409.0957802361486 0
-70.44534414867495 -407.2148110009625 0
-65.41143420370757 -407.5879243423459 0
-63.84513389652335 -411.1655700115199 0
29.82525623897301 -410.6256940202804 0
83.46796544917765 -395.6306275389971 0
57.16390161912604 -408.4186691659709 0
75.89728317548166 -396.4109351334435 0
-78.22707607664356 -395.3453454654508 0
-33.9704400533307 -413.253046157529 0
-37.33316122798983 -412.6868210164091 0
15.5611336866734 -413.6911365676418 0
18.67612739073195 -413.683977051571 0
21.15632695302077 -410.9033098484674 0
-40.57530722726371 -408.8434046031101 0
-37.01930867088505 -409.7523532609592 0
-22.14509586721246 -410.136755044872 0
-23.0343831008895 -413.569739457795 0
-18.86985764710894 -413.770242026992 0
-18.38160240712144 -416.7708818113263 0
-15.47880222712136 -414.0421087597025 0
-15.19614408352325 -411.2517065369978 0
-3.423632203961664 -395.4460734520524 0
-3.356364427299168 -399.0180659001041 0
0.9349265847588838 -398.5310683063435 0
0.3900352314057054 -395.4800597283827 0
4.432715220769863 -398.6231522601743 0
7.927649371218894 -398.8516025868828 0
7.784538143809419 -395.5504578844735 0
11.58354850631907 -398.9777035524223 0
11.48255333365315 -395.5921301920832 0
15.29811759395956 -398.9034822137552 0
-102.9642979184143 -401.4745099440478 0
-40.03403570821457 -395.5636824091559 0
38.29642522693232 -395.7453259181223 0
-32.59845546039411 -395.5060695885567 0
31.18288477925707 -395.5187259963909 0
80.66253178630102 -405.9856347091016 0
77.74246918218246 -406.6096575901566 0
74.81076846963154 -407.2571804408221 0
71.85940176815957 -407.8828117132814 0
-63.05045915417938 -395.5324341140096 0
-59.27686523517957 -395.4308475042586 0
57.24428072753827 -396.8520500699748 0
55.85259819278355 -399.447994135963 0
-47.96739871388395 -395.7057207265613 0
-25.31618247827453 -395.4204120754519 0
-21.65889949204689 -395.4248504873068 0
-21.25136195811968 -398.3840464666354 0
-13.94247806480984 -395.4624048943937 0
24.15249587066587 -395.2663686894971 0
-25.18626268542916 -415.0417528227362 0
125.4515297336246 -395.4101544630186 0
-125.5148880516637 -395.5486479878733 0
8.607105146095753 -411.194183610104 0
9.470480669641807 -414.1408867255489 0
84.97810190747174 -408.3343009190872 0
16.50834000523709 -416.720702693587 0
19.62459177932661 -416.6395732288494 0
7.683886681683099 -402.1583579647416 0
-9.726427112680989 -406.7018314936233 0
108.9233023635829 -402.7752320005116 0
-109.9824836528911 -402.3703026630014 0
25.79895400267039 -416.4655215006398 0
28.90534488874808 -416.2999045379975 0
35.07011964082016 -415.8557750820562 0
24.12588157532138 -403.3345106342286 0
38.17047870214978 -415.5649118070826 0
44.37073628522208 -414.931954214671 0
47.48418889978405 -414.5402033189852 0
32.9200039287239 -402.245663598494 0
51.22714739917024 -401.7547281533516 0
43.3996938394715 -401.6806060089758 0
57.18565060295998 -412.4432302947277 0
72.91165965884655 -410.7727845086906 0
64.03381937703551 -402.906047783883 0
-31.28686656878735 -401.8969363398488 0
-91.71740368976124 -407.0274684093974 0
15.92698597532754 -404.264073556367 0
-54.83923228981025 -401.6760951277558 0
-40.74111649929574 -412.0309130262218 0
91.02622989565445 -407.0993599270075 0
97.03085978723925 -405.747441650767 0
-97.82253882628522 -405.7681147986995 0
103.0233493391242 -404.3455030360731 0
101.3326489955032 -401.7271415744548 0
-37.09997189055714 -401.3482938289447 0
3.419657879329074 -405.4850804324551 0
-81.26774921061653 -398.4495289980488 0
114.8852616824698 -401.0589808231053 0
-18.13636150175029 -401.6664371204189 0
-122.152110178393 -399.0293155961939 0
-116.2157718027894 -400.7073791594444 0
120.9669148457778 -398.5687491888017 0
-85.46808689081882 -395.4029952974331 0
-35.22653122307258 -398.6363887598015 0
10.34557065771794 -417.0312309805391 0
1.255397849568844 -419.4120592162968 0
-44.35815799933928 -411.5378646986753 0
-2.943946485303406 -402.8725613632863 0
-131.7630921371076 -395.1231942185112 0
131.7782209769678 -395.1184153374253 0
-85.10955300017049 -408.1105555837573 0
-43.61268457641692 -414.8324687653701 0
-31.66648543031563 -398.7177704979097 0
23.61955531329104 -401.1740110647004 0
-51.83284158112185 -395.5966665541823 0
20.38913851146855 -395.5494109467202 0
-6.84372649917387 -407.5979330891916 0
-9.692598324110037 -414.3262834083968 0
4.305763075829967 -401.7760665573536 0
91.10505469258221 -396.6364919049091 0
60.26077610836675 -410.1055538269217 0
41.48219003019573 -399.0041454564865 0
32.18828816208821 -398.792388975217 0
72.29101851922761 -398.5009729995641 0
61.33701836615915 -396.0447745059654 0
81.18119602195512 -399.1651718657316 0
66.84289241793344 -411.9112469416159 0
104.2719390236007 -401.1329879337057 0
-21.68699281926162 -401.0743935460713 0
-37.00691739728911 -415.6039545903376 0
-103.8818810061026 -404.1505855033853 0
-70.82334378287696 -395.5029145882036 0
-38.55932997301281 -398.9053482015282 0
-2.303066283503542 -413.4910594740933 0
30.80873389614681 -413.3734823337157 0
39.86277360579219 -412.429039712105 0
115.8896115448989 -398.2015471677967 0
-115.5739924204658 -397.9496967300219 0
3.767544091530921 -415.1559726891076 0
28.8736792963267 -398.4782269567241 0
-88.28971394610173 -398.4990214760105 0
-15.08640727394978 -416.9064961319497 0
-12.37117565402547 -414.2725320768168 0
53.7056830214133 -413.4646385535533 0
-7.856511245173744 -404.2349509179888 0
-55.10078732085995 -398.5642294170967 0
-33.74211482567301 -416.0092342647437 0
-43.25296173600588 -398.8107976354546 0
49.34242661106948 -395.4520239364055 0
21.78072412707181 -413.7178652708005 0
-69.97139579164131 -409.9348963529068 0
-127.6683215316651 -398.3554969725889 0
127.8047974181822 -398.326847307674 0
-5.890625211217946 -401.7662441674055 0
-58.21230430175172 -413.3666198957822 0
-0.6295445909593622 -410.9046068922653 0
1.158778418010142 -419.7975216682997 0
2.07038740126455 -401.188410968891 0
86.62698236905837 -404.8598096143561 0
-58.70818962257319 -398.5029161762853 0
92.47766944150169 -403.688522019217 0
49.10009067862161 -411.2055988498965 0
-135.0014337922997 -394.5048851162036 0
135.0034960228796 -394.5035257902671 0
-74.2780248382268 -398.3617589722917 0
-0.9309657415050535 -419.2862715730378 0
-30.58570979158002 -413.8111975737001 0
78.14230510269759 -399.8375168115268 0
96.68110687138773 -399.3381240276542 0
81.97899344716085 -408.9315943023699 0
12.50912708009891 -413.8484716584531 0
-63.13420731745818 -413.0737694352582 0
-7.504593565205155 -398.0457683704136 0
38.94337688842074 -398.9881880434202 0
98.33944786376199 -402.3128770656757 0
25.84548868983054 -397.9457993327807 0
68.39216904050642 -395.5216289658172 0
-97.00936318558053 -403.2538903353899 0
-10.51292182905221 -395.2404747291081 0
-91.73402023311338 -398.4799259840129 0
-62.34120624765026 -398.7169033524338 0
68.90021123009274 -408.4702955280119 0
57.11922441634935 -401.6970893833152 0
18.65114501273733 -399.0242926878946 0
-71.05730613358243 -412.4457219863397 0
-42.92771148140237 -400.9978392189458 0
87.52523023470026 -398.7463388417118 0
-66.55623225346326 -399.4320611920975 0
52.86330344311727 -399.6969585512168 0
-105.9220589213493 -400.5187259816701 0
-66.3979165059644 -411.8426523550881 0
-27.4656237794488 -416.7650602603166 0
24.80958406639517 -413.6812066615497 0
33.8103182254044 -413.1107123190697 0
75.95115974228632 -410.1599337160771 0
-61.19828298413265 -410.9085746201798 0
58.24066244383867 -410.2447389109818 0
106.9539198713362 -400.3690174394119 0
-24.61949327704961 -398.3959836541927 0
46.06664093118716 -395.449804643895 0
15.40770977966393 -402.0636357613255 0
117.9523793577425 -397.2218257397384 0
-118.4918901587879 -397.1305039933659 0
-94.24774408940526 -401.3293062829334 0
-94.23354785459919 -403.8546196074636 0
63.8410977615919 -412.3967273268258 0
-58.51750553444023 -410.8448405792844 0
0.5785102275151781 -419.0938652400153 0
0.3037038498893265 -419.5833266665612 0
-0.103362339500728 -418.9589973560801 0
42.97329853771843 -412.0606972218926 0
-67.45363042530215 -409.9232691691292 0
-1.47789952419385 -401.1449489827837 0
-77.78180254380892 -398.3593459344822 0
-47.34387250655525 -399.5236198032699 0
22.60998318725426 -398.0305635203645 0
-76.40530721716938 -411.1438266724622 0
-24.57014872861551 -416.8981550523195 0
1.423225676970642 -415.9325268309013 0
-61.50306495121467 -401.5361917717385 0
99.92258904243225 -398.8420752519558 0
128.2011407948658 -394.1349275611235 0
-128.2159273294345 -394.1653438753845 0
-52.15752471538819 -414.9531727626007 0
74.50692210203648 -398.6094116223235 0
$EndNodes
$Elements
10 796 1 796
0 1 15 1
1 1 
0 2 15 1
2 2 
0 3 15 1
3 3 
0 4 15 1
4 4 
1 1 1 80
5 1 5 
6 5 6 
7 6 7 
8 7 8 
9 8 9 
10 9 10 
11 10 11 
12 11 12 
13 12 13 
14 13 14 
15 14 15 
16 15 16 
17 16 17 
18 17 18 
19 18 19 
20 19 20 
21 20 21 
22 21 22 
23 22 23 
24 23 24 
25 24 25 
26 25 26 
27 26 27 
28 27 28 
29 28 29 
30 29 30 
31 30 31 
32 31 32 
33 32 33 
34 33 34 
35 34 35 
36 35 36 
37 36 37 
38 37 38 
39 38 39 
40 39 40 
41 40 41 
42 41 42 
43 42 43 
44 43 44 
45 44 45 
46 45 46 
47 46 47 
48 47 48 
49 48 49 
50 49 50 
51 50 51 
52 51 52 
53 52 53 
54 53 54 
55 54 55 
56 55 56 
57 56 57 
58 57 58 
59 58 59 
60 59 60 
61 60 61 
62 61 62 
63 62 63 
64 63 64 
65 64 65 
66 65 66 
67 66 67 
68 67 68 
69 68 69 
70 69 70 
71 70 71 
72 71 72 
73 72 73 
74 73 74 
75 74 75 
76 75 76 
77 76 77 
78 77 78 
79 78 79 
80 79 80 
81 80 81 
82 81 82 
83 82 83 
84 83 2 
1 2 1 48
85 3 84 
86 84 85 
87 85 86 
88 86 87 
89 87 88 
90 88 89 
91 89 90 
92 90 91 
93 91 92 
94 92 93 
95 93 94 
96 94 95 
97 95 96 
98 96 97 
99 97 98 
100 98 99 
101 99 100 
102 100 101 
103 101 102 
104 102 103 
105 103 104 
106 104 105 
107 105 106 
108 106 107 
109 107 108 
110 108 109 
111 109 110 
112 110 111 
113 111 112 
114 112 113 
115 113 114 
116 114 115 
117 115 116 
118 116 117 
119 117 118 
120 118 119 
121 119 120 
122 120 121 
123 121 122 
124 122 123 
125 123 124 
126 124 125 
127 125 126 
128 126 127 
129 127 128 
130 128 129 
131 129 130 
132 130 1 
1 3 1 16
133 4 131 
134 131 132 
135 132 133 
136 133 134 
137 134 135 
138 135 136 
139 136 137 
140 137 138 
141 138 139 
142 139 140 
143 140 141 
144 141 142 
145 142 143 
146 143 144 
147 144 145 
148 145 3 
1 4 1 48
149 2 146 
150 146 147 
151 147 148 
152 148 149 
153 149 150 
154 150 151 
155 151 152 
156 152 153 
157 153 154 
158 154 155 
159 155 156 
160 156 157 
161 157 158 
162 158 159 
163 159 160 
164 160 161 
165 161 162 
166 162 163 
167 163 164 
168 164 165 
169 165 166 
170 166 167 
171 167 168 
172 168 169 
173 169 170 
174 170 171 
175 171 172 
176 172 173 
177 173 174 
178 174 175 
179 175 176 
180 176 177 
181 177 178 
182 178 179 
183 179 180 
184 180 181 
185 181 182 
186 182 183 
187 183 184 
188 184 185 
189 185 186 
190 186 187 
191 187 188 
192 188 189 
193 189 190 
194 190 191 
195 191 192 
196 192 4 
2 1 2 16
197 436 570 4 
198 570 436 672 
199 5 130 129 
200 130 5 1 
201 146 83 147 
202 83 146 2 
203 621 132 131 
204 132 621 133 
205 135 208 136 
206 208 135 134 
207 207 138 137 
208 138 207 139 
209 209 141 140 
210 141 209 142 
211 143 209 144 
212 209 143 142 
2 1 3 584
213 235 567 433 561 
214 6 128 127 7 
215 82 81 149 148 
216 434 193 84 3 
217 490 197 492 491 
218 413 429 227 575 
219 392 230 509 587 
220 237 469 505 595 
221 460 245 535 461 
222 429 431 550 227 
223 611 199 631 482 
224 444 412 443 223 
225 431 669 232 550 
226 417 214 508 577 
227 528 569 196 635 
228 591 216 646 393 
229 109 108 223 443 
230 419 420 664 218 
231 371 448 569 528 
232 188 530 196 189 
233 567 239 605 433 
234 373 375 412 444 
235 158 534 240 159 
236 118 117 241 535 
237 410 596 229 629 
238 554 408 623 226 
239 537 384 657 536 
240 260 262 311 582 
241 494 493 607 313 
242 596 410 652 225 
243 211 422 354 522 
244 205 411 438 688 
245 195 86 85 446 
246 584 424 633 242 
247 195 607 493 606 
248 679 518 579 369 
249 585 212 670 416 
250 282 502 500 532 
251 264 598 442 620 
252 588 228 641 418 
253 97 440 205 98 
254 456 246 458 457 
255 564 450 526 253 
256 566 252 525 449 
257 396 513 512 399 
258 282 665 504 502 
259 70 459 246 71 
260 555 425 625 233 
261 672 673 136 208 
262 411 205 440 439 
263 618 572 677 496 
264 441 656 682 524 
265 462 461 654 463 
266 40 522 643 41 
267 354 421 643 522 
268 653 220 613 428 
269 415 224 589 447 
270 369 579 221 610 
271 88 492 197 89 
272 540 386 658 538 
273 571 576 203 553 
274 636 476 655 103 
275 406 478 234 590 
276 247 16 15 462 
277 571 340 451 439 
278 210 48 47 503 
279 243 18 17 465 
280 337 451 340 335 
281 455 244 562 454 
282 512 511 400 399 
283 422 211 520 521 
284 643 421 637 201 
285 462 463 464 247 
286 239 20 19 470 
287 383 287 284 486 
288 465 466 467 243 
289 483 594 611 482 
290 466 464 505 469 
291 530 188 187 531 
292 415 418 641 224 
293 497 499 206 498 
294 313 607 582 311 
295 46 501 503 47 
296 679 612 219 518 
297 489 490 491 345 
298 575 443 412 413 
299 449 76 75 254 
300 452 13 12 255 
301 84 258 446 85 
302 553 203 594 483 
303 329 331 487 488 
304 495 43 42 201 
305 192 194 436 4 
306 439 451 358 411 
307 439 440 576 571 
308 475 365 367 474 
309 453 74 73 250 
310 444 474 367 373 
311 427 307 305 426 
312 498 495 496 497 
313 475 380 361 363 
314 456 72 71 246 
315 608 426 626 204 
316 525 77 76 449 
317 526 450 12 11 
318 451 337 357 358 
319 657 384 290 383 
320 438 411 358 377 
321 359 361 380 473 
322 459 70 69 242 
323 485 283 280 484 
324 331 333 340 487 
325 488 339 327 329 
326 325 327 339 381 
327 16 247 465 17 
328 325 381 382 324 
329 254 75 74 453 
330 251 14 13 452 
331 416 393 349 348 
332 14 251 462 15 
333 72 456 250 73 
334 584 68 67 238 
335 377 358 357 359 
336 314 317 345 494 
337 478 66 65 234 
338 480 64 63 228 
339 481 23 22 235 
340 488 483 482 339 
341 511 510 402 400 
342 647 517 653 343 
343 514 27 26 225 
344 206 45 44 498 
345 221 29 28 515 
346 390 301 300 299 
347 493 494 345 491 
348 18 243 470 19 
349 489 345 317 319 
350 516 59 58 220 
351 385 296 295 294 
352 219 32 31 518 
353 291 477 385 294 
354 506 33 32 219 
355 498 44 43 495 
356 297 472 390 299 
357 490 382 441 524 
358 508 35 34 231 
359 507 54 53 230 
360 321 323 325 324 
361 479 346 344 308 
362 211 39 38 520 
363 215 51 50 523 
364 519 37 36 214 
365 509 52 51 215 
366 522 40 39 211 
367 471 305 304 302 
368 319 321 324 489 
369 383 290 288 287 
370 238 67 66 478 
371 234 65 64 480 
372 229 24 23 481 
373 424 409 625 425 
374 45 206 501 46 
375 20 239 567 21 
376 515 28 27 514 
377 520 38 37 519 
378 218 55 54 507 
379 231 34 33 506 
380 230 53 52 509 
381 214 36 35 508 
382 308 307 427 479 
383 412 375 388 389 
384 577 508 231 568 
385 475 363 364 365 
386 404 403 402 510 
387 210 503 502 504 
388 396 394 646 513 
389 456 457 662 455 
390 340 333 334 335 
391 244 455 662 534 
392 348 347 344 346 
393 471 302 300 301 
394 307 306 304 305 
395 513 547 659 512 
396 490 489 324 382 
397 472 297 295 296 
398 379 280 279 278 
399 477 291 288 290 
400 291 294 295 293 
401 379 278 274 527 
402 284 287 288 286 
403 566 449 254 666 
404 12 450 667 255 
405 486 284 281 283 
406 466 465 247 464 
407 29 221 579 30 
408 370 273 272 271 
409 499 500 501 206 
410 361 359 357 360 
411 584 238 651 423 
412 412 389 414 413 
413 48 210 580 49 
414 283 281 279 280 
415 371 603 194 448 
416 500 502 503 501 
417 327 325 323 326 
418 363 361 360 362 
419 365 366 372 367 
420 335 336 356 337 
421 333 331 330 332 
422 460 461 462 251 
423 454 250 456 455 
424 429 430 432 431 
425 367 372 374 373 
426 331 329 328 330 
427 413 414 430 429 
428 329 327 326 328 
429 373 374 388 375 
430 584 423 409 424 
431 531 187 186 198 
432 516 220 653 517 
433 399 398 397 396 
434 483 488 487 553 
435 597 506 219 612 
436 528 527 273 371 
437 323 321 320 322 
438 321 319 318 320 
439 484 530 531 485 
440 79 574 628 80 
441 9 8 627 573 
442 223 681 445 444 
443 529 166 165 226 
444 272 273 527 274 
445 293 292 288 291 
446 307 308 343 306 
447 406 651 238 478 
448 479 427 546 661 
449 286 285 281 284 
450 378 292 293 351 
451 297 299 352 298 
452 399 400 401 398 
453 319 317 316 318 
454 470 644 605 239 
455 302 304 309 303 
456 326 323 322 549 
457 376 285 286 289 
458 24 229 596 25 
459 337 356 552 357 
460 278 279 282 277 
461 394 396 397 395 
462 514 225 652 645 
463 278 277 276 274 
464 355 354 338 353 
465 631 199 656 441 
466 218 507 638 586 
467 224 61 60 589 
468 357 552 368 360 
469 428 420 419 309 
470 328 326 549 342 
471 534 158 157 244 
472 535 245 119 118 
473 440 97 96 576 
474 448 191 190 569 
475 395 397 418 415 
476 533 315 314 312 
477 295 543 351 293 
478 276 277 282 532 
479 353 338 316 315 
480 300 545 352 299 
481 348 349 548 347 
482 306 544 309 304 
483 349 393 646 394 
484 389 561 433 414 
485 185 536 198 186 
486 149 81 80 628 
487 127 627 8 7 
488 183 200 537 184 
489 665 376 648 504 
490 182 538 200 183 
491 180 202 540 181 
492 179 541 202 180 
493 177 204 542 178 
494 286 288 292 539 
495 189 196 569 190 
496 297 298 543 295 
497 302 303 545 300 
498 339 482 631 381 
499 317 314 315 316 
500 279 281 285 551 
501 174 212 546 175 
502 235 22 21 567 
503 184 537 536 185 
504 434 310 259 193 
505 181 540 538 182 
506 442 370 271 620 
507 447 350 347 548 
508 170 547 216 171 
509 178 542 541 179 
510 394 395 548 349 
511 309 419 545 303 
512 494 313 312 314 
513 286 539 578 289 
514 417 663 519 214 
515 527 528 635 379 
516 466 469 642 468 
517 330 328 342 559 
518 271 272 560 269 
519 532 500 499 583 
520 382 381 631 441 
521 301 391 626 471 
522 112 111 227 550 
523 164 554 226 165 
524 443 575 110 109 
525 259 258 84 193 
526 447 548 395 415 
527 422 521 593 563 
528 113 112 550 232 
529 163 233 554 164 
530 114 113 232 556 
531 162 555 233 163 
532 269 268 266 267 
533 161 236 555 162 
534 115 114 556 237 
535 292 378 578 539 
536 407 405 623 408 
537 436 194 603 683 
538 95 203 576 96 
539 160 557 236 161 
540 587 509 215 604 
541 354 422 563 338 
542 679 334 650 612 
543 318 316 338 563 
544 111 110 575 227 
545 296 385 658 386 
546 392 638 507 230 
547 274 276 560 272 
548 313 311 265 312 
549 159 240 557 160 
550 268 269 560 275 
551 523 50 49 580 
552 518 31 30 579 
553 311 262 263 265 
554 226 623 404 529 
555 416 348 346 585 
556 340 571 553 487 
557 624 515 514 645 
558 68 584 242 69 
559 77 525 686 78 
560 11 10 687 526 
561 61 224 641 62 
562 261 260 258 259 
563 266 264 620 267 
564 156 562 244 157 
565 120 119 245 565 
566 312 265 581 533 
567 261 264 266 263 
568 155 248 562 156 
569 121 120 565 249 
570 191 448 194 192 
571 475 476 660 380 
572 268 270 581 266 
573 198 614 485 531 
574 322 320 593 341 
575 263 262 260 261 
576 270 268 275 572 
577 218 586 545 419 
578 55 218 664 56 
579 196 530 484 635 
580 122 121 249 564 
581 154 566 248 155 
582 568 342 549 577 
583 216 547 513 646 
584 296 386 600 472 
585 59 516 589 60 
586 580 210 504 648 
587 532 583 560 276 
588 86 195 606 87 
589 418 397 398 588 
590 322 417 577 549 
591 496 637 355 618 
592 245 460 602 565 
593 153 252 566 154 
594 123 122 564 253 
595 384 537 200 599 
596 438 619 101 100 
597 117 116 595 241 
598 511 222 634 510 
599 256 525 252 617 
600 257 616 253 526 
601 377 671 619 438 
602 464 463 654 505 
603 92 199 611 93 
604 491 492 606 493 
605 405 406 590 403 
606 175 546 608 176 
607 265 263 266 581 
608 511 512 659 222 
609 203 95 94 594 
610 172 591 670 173 
611 290 384 599 477 
612 171 216 591 172 
613 237 595 116 115 
614 414 433 605 430 
615 428 613 664 420 
616 270 609 533 581 
617 453 601 666 254 
618 452 255 667 602 
619 563 593 320 318 
620 298 392 587 543 
621 526 687 573 257 
622 525 256 574 686 
623 582 446 258 260 
624 400 402 632 401 
625 486 614 657 383 
626 225 26 25 596 
627 438 100 99 688 
628 150 574 256 151 
629 126 125 257 573 
630 496 677 622 497 
631 490 524 682 197 
632 308 344 647 343 
633 445 681 107 106 
634 426 608 546 427 
635 477 599 658 385 
636 520 519 663 521 
637 342 568 597 559 
638 89 197 682 90 
639 104 217 649 105 
640 446 582 607 195 
641 444 445 615 474 
642 365 364 652 366 
643 168 222 659 169 
644 409 423 651 407 
645 273 370 603 371 
646 250 454 601 453 
647 251 452 602 460 
648 335 334 679 336 
649 472 600 675 390 
650 558 557 240 592 
651 492 88 87 606 
652 204 177 176 608 
653 595 505 654 241 
654 393 416 670 591 
655 506 597 568 231 
656 330 559 597 332 
657 386 540 202 600 
658 353 609 618 355 
659 125 124 616 257 
660 151 256 617 152 
661 264 261 259 598 
662 306 343 653 544 
663 594 94 93 611 
664 516 517 647 350 
665 305 471 626 426 
666 557 558 639 236 
667 545 586 638 352 
668 346 479 661 585 
669 454 562 248 601 
670 351 604 640 378 
671 652 364 684 645 
672 283 485 614 486 
673 253 616 124 123 
674 252 153 152 617 
675 369 610 552 356 
676 220 58 57 613 
677 301 390 675 391 
678 407 408 625 409 
679 615 676 475 474 
680 497 622 583 499 
681 542 391 675 541 
682 495 201 637 496 
683 621 570 672 208 
684 315 533 609 353 
685 269 267 620 271 
686 374 629 678 388 
687 285 376 665 551 
688 246 459 685 458 
689 543 587 604 351 
690 424 425 639 633 
691 102 101 619 213 
692 403 404 623 405 
693 574 150 149 628 
694 573 627 127 126 
695 166 529 634 167 
696 447 589 516 350 
697 680 578 378 640 
698 359 473 671 377 
699 401 632 480 689 
700 389 388 678 561 
701 280 379 635 484 
702 403 590 632 402 
703 259 310 442 598 
704 597 612 650 332 
705 410 629 374 372 
706 592 458 685 558 
707 222 168 167 634 
708 639 558 685 633 
709 683 435 437 436 
710 404 510 634 529 
711 391 542 204 626 
712 671 473 380 660 
713 583 622 275 560 
714 103 102 213 636 
715 228 63 62 641 
716 408 554 233 625 
717 201 42 41 643 
718 354 355 637 421 
719 298 352 638 392 
720 640 523 580 680 
721 243 467 644 470 
722 466 468 668 467 
723 572 618 609 270 
724 561 678 481 235 
725 363 362 684 364 
726 523 640 604 215 
727 360 368 684 362 
728 445 106 105 649 
729 565 602 667 249 
730 461 535 241 654 
731 199 92 91 656 
732 309 544 653 428 
733 573 687 10 9 
734 574 79 78 686 
735 347 350 647 344 
736 432 644 467 668 
737 480 632 590 234 
738 613 57 56 664 
739 547 170 169 659 
740 289 387 648 376 
741 333 332 650 334 
742 425 555 236 639 
743 405 407 651 406 
744 103 655 217 104 
745 372 366 652 410 
746 212 174 173 670 
747 458 592 662 457 
748 469 237 556 642 
749 398 401 689 588 
750 437 435 310 434 
751 656 91 90 682 
752 322 341 663 417 
753 368 552 610 624 
754 599 200 538 658 
755 431 432 668 669 
756 356 336 679 369 
757 593 521 663 341 
758 108 107 681 223 
759 585 661 546 212 
760 98 205 688 99 
761 648 387 680 580 
762 515 624 610 221 
763 279 551 665 282 
764 600 202 541 675 
765 242 633 685 459 
766 229 481 678 629 
767 536 657 614 198 
768 480 228 588 689 
769 660 213 619 671 
770 430 605 644 432 
771 450 564 249 667 
772 601 248 566 666 
773 289 578 680 387 
774 475 676 655 476 
775 622 677 572 275 
776 442 683 603 370 
777 534 662 592 240 
778 217 615 445 649 
779 310 435 683 442 
780 624 645 684 368 
781 232 669 642 556 
782 207 137 136 673 
783 668 468 642 669 
784 476 636 213 660 
785 615 217 655 676 
786 434 630 674 437 
787 436 437 674 672 
788 145 630 434 3 
789 128 6 5 129 
790 148 147 83 82 
791 4 570 621 131 
792 621 208 134 133 
793 209 140 139 207 
794 145 144 209 630 
795 630 209 207 674 
796 672 674 207 673 
$EndElements
