$MeshFormat
4.1 0 8
$EndMeshFormat
$Entities
4 4 1 0
1 -150 -392.300904918661 0 0 
2 150 -392.300904918661 0 0 
3 -1.75000000000139 -419.996354150843 0 0 
4 1.74999999999862 -419.996354150843 0 0 
1 -150.0000001 -392.300905018661 -1e-07 150.0000001 -392.300904818661 1e-07 0 2 1 -2 
2 -150.0000001000001 -419.996354250843 -1e-07 -1.749999900001413 -392.3009048186609 1e-07 0 2 3 -1 
3 -1.75000010000139 -419.996354250843 -1e-07 1.75000009999862 -419.996354050843 1e-07 0 2 4 -3 
4 1.74999989999867 -419.9963542508424 -1e-07 150.0000000999999 -392.3009048186605 1e-07 0 2 2 -4 
1 -150.0000001000001 -419.996354250843 -1e-07 150.0000001 -392.3009048186605 1e-07 0 4 -1 -2 -3 -4 
$EndEntities
$Nodes
9 217 1 217
0 1 0 1
1
-150 -392.300904918661 0
0 2 0 1
2
150 -392.300904918661 0
0 3 0 1
3
-1.75000000000139 -419.996354150843 0
0 4 0 1
4
1.74999999999862 -419.996354150843 0
1 1 0 39
5
6
7
8
9
10
11
12
13
14
15
16
17
18
19
20
21
22
23
24
25
26
27
28
29
30
31
32
33
34
35
36
37
38
39
40
41
42
43
-142.5 -392.300904918661 0
-135 -392.300904918661 0
-127.5 -392.300904918661 0
-120 -392.300904918661 0
-112.5 -392.300904918661 0
-105 -392.300904918661 0
-97.50000000000001 -392.300904918661 0
-90.00000000000001 -392.300904918661 0
-82.50000000000004 -392.300904918661 0
-75.00000000000007 -392.300904918661 0
-67.5000000000001 -392.300904918661 0
-60.00000000000011 -392.300904918661 0
-52.50000000000013 -392.300904918661 0
-45.00000000000014 -392.300904918661 0
-37.50000000000017 -392.300904918661 0
-30.00000000000018 -392.300904918661 0
-22.50000000000021 -392.300904918661 0
-15.00000000000023 -392.300904918661 0
-7.500000000000227 -392.300904918661 0
-2.557953848736361e-13 -392.300904918661 0
7.499999999999716 -392.300904918661 0
14.99999999999969 -392.300904918661 0
22.49999999999966 -392.300904918661 0
29.99999999999963 -392.300904918661 0
37.4999999999996 -392.300904918661 0
44.99999999999957 -392.300904918661 0
52.49999999999957 -392.300904918661 0
59.99999999999955 -392.300904918661 0
67.49999999999955 -392.300904918661 0
74.99999999999952 -392.300904918661 0
82.49999999999952 -392.300904918661 0
89.99999999999949 -392.300904918661 0
97.49999999999955 -392.300904918661 0
104.9999999999996 -392.300904918661 0
112.4999999999997 -392.300904918661 0
119.9999999999997 -392.300904918661 0
127.4999999999998 -392.300904918661 0
134.9999999999998 -392.300904918661 0
142.4999999999999 -392.300904918661 0
1 2 0 23
44
45
46
47
48
49
50
51
52
53
54
55
56
57
58
59
60
61
62
63
64
65
66
-8.069566184609712 -419.9477222990537 0
-14.38763548358415 -419.8018382628821 0
-20.70271136585109 -419.558736597187 0
-27.01329800937327 -419.2184748843057 0
-33.31790065545805 -418.7811337204143 0
-39.61502596281393 -418.2468166964377 0
-45.90318236127128 -417.6156503735121 0
-52.18088040508276 -416.8877842530073 0
-58.44663312572241 -416.0633907411151 0
-64.69895638409609 -415.142665108012 0
-70.93636922208252 -414.1258254416067 0
-77.15739421332098 -413.0131125958825 0
-83.3605578131622 -411.8047901338475 0
-89.5443907076998 -410.5011442651055 0
-95.70742816179984 -409.1024837780633 0
-101.8482103660456 -407.6091399667888 0
-107.9652827825157 -406.0214665525396 0
-114.0571964893137 -404.3398395999782 0
-120.1225085237669 -402.5646574280958 0
-126.159782224215 -400.6963405158639 0
-132.1675875703042 -398.7353314026379 0
-138.1445015217101 -396.6820945833347 0
-144.0891083552064 -394.53711639841 0
1 3 0 7
67
68
69
70
71
72
73
1.312499999998617 -419.996354150843 0
0.8749999999986148 -419.996354150843 0
0.4374999999986122 -419.996354150843 0
-1.390443316040546e-12 -419.996354150843 0
-0.4375000000013902 -419.996354150843 0
-0.8750000000013902 -419.996354150843 0
-1.31250000000139 -419.996354150843 0
1 4 0 23
74
75
76
77
78
79
80
81
82
83
84
85
86
87
88
89
90
91
92
93
94
95
96
144.0891083552061 -394.5371163984098 0
138.1445015217098 -396.6820945833348 0
132.1675875703039 -398.7353314026382 0
126.1597822242146 -400.6963405158642 0
120.1225085237665 -402.5646574280963 0
114.0571964893131 -404.3398395999789 0
107.9652827825151 -406.0214665525403 0
101.8482103660448 -407.6091399667898 0
95.70742816179894 -409.1024837780643 0
89.54439070769881 -410.5011442651065 0
83.36055781316094 -411.8047901338485 0
77.15739421331965 -413.0131125958836 0
70.93636922208108 -414.1258254416077 0
64.69895638409454 -415.142665108013 0
58.44663312572079 -416.0633907411161 0
52.18088040508104 -416.8877842530082 0
45.90318236126945 -417.6156503735129 0
39.61502596281218 -418.2468166964384 0
33.31790065545619 -418.7811337204149 0
27.01329800937111 -419.2184748843061 0
20.70271136584866 -419.5587365971872 0
14.38763548358162 -419.8018382628821 0
8.069566184607073 -419.9477222990535 0
2 1 0 121
97
98
99
100
101
102
103
104
105
106
107
108
109
110
111
112
113
114
115
116
117
118
119
120
121
122
123
124
125
126
127
128
129
130
131
132
133
134
135
136
137
138
139
140
141
142
143
144
145
146
147
148
149
150
151
152
153
154
155
156
157
158
159
160
161
162
163
164
165
166
167
168
169
170
171
172
173
174
175
176
177
178
179
180
181
182
183
184
185
186
187
188
189
190
191
192
193
194
195
196
197
198
199
200
201
202
203
204
205
206
207
208
209
210
211
212
213
214
215
216
217
-10.58333333333415 -406.3540012723126 0
10.58333333333246 -406.3540012723126 0
-8.36664071357518e-13 -406.2513154035323 0
-56.09044020254144 -404.5943445858342 0
-28.50664900468673 -405.7596899014834 0
-42.30751298140704 -405.2738608075493 0
28.50664900468536 -405.7596899014836 0
56.09044020254029 -404.5943445858346 0
42.30751298140587 -405.2738608075497 0
-83.5786971066605 -402.6570087572717 0
-69.8494781920481 -403.7217850133365 0
83.57869710665956 -402.6570087572723 0
69.84947819204702 -403.721785013337 0
-1.113553693699032e-12 -413.1238347771877 0
-5.291666666667494 -406.3026583379224 0
-6.166666666667779 -413.1751777115778 0
-3.083333333334442 -413.1495062443827 0
6.166666666665542 -413.1751777115778 0
5.291666666665813 -406.3026583379224 0
3.083333333332214 -413.1495062443827 0
20.29166666666604 -399.3274530954868 0
17.33965107512383 -409.5646456791844 0
-20.29166666666717 -399.3274530954868 0
-17.33965107512566 -409.5646456791844 0
-5.500044863993026e-13 -399.2761101610967 0
-10.14583333333386 -399.3017816282917 0
10.14583333333275 -399.3017816282917 0
-110.9241051830228 -399.9550224427249 0
-97.27219535384991 -401.4010245918832 0
-124.5609034494581 -398.4121081923557 0
110.9241051830223 -399.9550224427254 0
97.27219535384918 -401.4010245918838 0
124.5609034494578 -398.412108192356 0
-58.04522010127078 -398.4476247522476 0
-49.19897659197424 -404.9341026966918 0
-43.65375649070359 -398.7873828631052 0
-54.1356603038121 -410.7410644194208 0
-40.96126947211049 -411.7603387519935 0
-27.75997350703 -412.4890823928945 0
-35.40708099304689 -405.5167753545164 0
-29.25332450234346 -399.0302974100722 0
43.65375649070272 -398.7873828631053 0
49.19897659197308 -404.9341026966922 0
58.04522010126991 -398.4476247522478 0
29.25332450234249 -399.0302974100723 0
35.40708099304562 -405.5167753545167 0
27.75997350702823 -412.4890823928948 0
40.96126947210902 -411.7603387519941 0
54.13566030381066 -410.7410644194214 0
-86.78934855333027 -397.4789568379664 0
-76.7140876493543 -403.1893968853041 0
-72.42473909602408 -398.0113449659988 0
-80.36804565999074 -407.8350606765771 0
-67.27421728807209 -409.4322250606742 0
-62.96995919729476 -404.1580647995853 0
72.42473909602326 -398.011344965999 0
76.71408764935329 -403.1893968853046 0
86.78934855332952 -397.4789568379666 0
62.96995919729365 -404.1580647995858 0
67.27421728807077 -409.432225060675 0
80.3680456599896 -407.8350606765779 0
-1.251998504869789e-12 -416.5600944640153 0
-1.541666666667778 -413.1366705107852 0
-1.979166666667916 -416.5729301976128 0
-9.75108882528275e-13 -409.68757509036 0
-2.645833333334165 -406.2769868707273 0
-4.187500000000968 -409.7260822911526 0
-7.937500000000822 -406.3283298051175 0
-8.375000000000965 -409.7645894919452 0
-4.62500000000111 -413.1623419779802 0
-3.958333333334593 -416.5857659312103 0
1.979166666665414 -416.5729301976128 0
1.54166666666555 -413.1366705107852 0
3.95833333333208 -416.5857659312104 0
4.624999999998878 -413.1623419779802 0
8.374999999999002 -409.7645894919452 0
7.937499999999137 -406.3283298051175 0
4.187499999999013 -409.7260822911526 0
2.645833333332488 -406.2769868707273 0
15.86364327935273 -414.6832419710333 0
11.75315887089469 -411.3699116953811 0
22.9231500399046 -407.662167790334 0
25.14583333333283 -395.8141790070739 0
18.81565887089494 -404.4460493873356 0
15.43749999999925 -402.8407271838997 0
-11.75315887089672 -411.3699116953811 0
-15.8636432793549 -414.6832419710333 0
-15.43750000000066 -402.8407271838997 0
-18.81565887089641 -404.4460493873356 0
-25.14583333333368 -395.8141790070739 0
-22.9231500399062 -407.6621677903339 0
-15.21875000000052 -399.3146173618892 0
-12.57291666666705 -395.8013432734763 0
-7.718750000000678 -402.8022199831071 0
-6.933342788784103e-13 -402.7637127823145 0
-5.072916666667206 -399.2889458946942 0
-4.066746939201948e-13 -395.7885075398788 0
12.57291666666621 -395.8013432734763 0
15.21874999999939 -399.3146173618892 0
5.072916666666098 -399.2889458946942 0
7.718749999999279 -402.8022199831071 0
-90.4254462302552 -402.0290166745775 0
-93.40829303077486 -405.9510844284944 0
-101.136097676925 -396.8509647552721 0
-115.4620525915114 -396.1279636806929 0
-104.0981502684364 -400.678023517304 0
-106.3861577745342 -403.7820812047569 0
-131.3527024855841 -397.5471013878453 0
-129.7804517247291 -395.3565065555084 0
-119.3090499693859 -401.375973896167 0
-117.7425043162405 -399.1835653175403 0
93.408293030774 -405.9510844284952 0
90.42544623025437 -402.029016674578 0
106.3861577745335 -403.7820812047576 0
104.0981502684357 -400.6780235173046 0
115.462052591511 -396.1279636806932 0
101.1360976769244 -396.8509647552723 0
129.7804517247288 -395.3565065555085 0
131.3527024855838 -397.5471013878454 0
117.74250431624 -399.1835653175407 0
119.3090499693854 -401.3759738961675 0
$EndNodes
$Elements
8 100 1 100
0 1 15 1
1 1 
0 2 15 1
2 2 
0 3 15 1
3 3 
0 4 15 1
4 4 
1 1 1 40
5 1 5 
6 5 6 
7 6 7 
8 7 8 
9 8 9 
10 9 10 
11 10 11 
12 11 12 
13 12 13 
14 13 14 
15 14 15 
16 15 16 
17 16 17 
18 17 18 
19 18 19 
20 19 20 
21 20 21 
22 21 22 
23 22 23 
24 23 24 
25 24 25 
26 25 26 
27 26 27 
28 27 28 
29 28 29 
30 29 30 
31 30 31 
32 31 32 
33 32 33 
34 33 34 
35 34 35 
36 35 36 
37 36 37 
38 37 38 
39 38 39 
40 39 40 
41 40 41 
42 41 42 
43 42 43 
44 43 2 
1 2 1 24
45 3 44 
46 44 45 
47 45 46 
48 46 47 
49 47 48 
50 48 49 
51 49 50 
52 50 51 
53 51 52 
54 52 53 
55 53 54 
56 54 55 
57 55 56 
58 56 57 
59 57 58 
60 58 59 
61 59 60 
62 60 61 
63 61 62 
64 62 63 
65 63 64 
66 64 65 
67 65 66 
68 66 1 
1 3 1 8
69 4 67 
70 67 68 
71 68 69 
72 69 70 
73 70 71 
74 71 72 
75 72 73 
76 73 3 
1 4 1 24
77 2 74 
78 74 75 
79 75 76 
80 76 77 
81 77 78 
82 78 79 
83 79 80 
84 80 81 
85 81 82 
86 82 83 
87 83 84 
88 84 85 
89 85 86 
90 86 87 
91 87 88 
92 88 89 
93 89 90 
94 90 91 
95 91 92 
96 92 93 
97 93 94 
98 94 95 
99 95 96 
100 96 4 
$EndElements
