$MeshFormat
4.1 0 8
$EndMeshFormat
$PhysicalNames
4
1 1 "Fixed"
1 2 "Loaded"
1 4 "Symmetry"
2 3 "Wheel"
$EndPhysicalNames
$Entities
13 17 6 0
1 0 0 0 0 
2 4.361938736533601 -99.90482215818578 0 0 
3 1.499943750632805 -99.98875021093592 0 0 
4 6.123233995736766e-15 -100 0 0 
5 6.542908104800401 -149.8572332372787 0 0 
6 2.249915625949208 -149.9831253164039 0 0 
7 9.184850993605149e-15 -150 0 0 
8 10.904846841334 -249.7620553954644 0 0 
9 3.749859376582014 -249.9718755273398 0 0 
10 1.530808498934192e-14 -250 0 0 
11 20.06491818805456 -459.5621819276546 0 0 
12 6.899741252910905 -459.9482509703052 0 0 
13 2.816687638038913e-14 -460 0 0 
1 1.499943750632806 -99.98875021093595 0 4.361938736533602 -99.90482215818579 0 1 1 2 2 -3 
2 6.439293542825908e-15 -100 0 1.499943750632805 -99.98875021093592 0 1 1 2 3 -4 
3 2.24991562594921 -149.983125316404 0 6.542908104800404 -149.8572332372787 0 0 2 5 -6 
4 9.325873406851315e-15 -150.0000000000001 0 2.249915625949209 -149.9831253164039 0 0 2 6 -7 
5 3.749859376582015 -249.9718755273398 0 10.904846841334 -249.7620553954644 0 0 2 8 -9 
6 1.509903313490213e-14 -250 0 3.749859376582014 -249.9718755273398 0 0 2 9 -10 
7 6.899741252910902 -459.9482509703051 0 20.06491818805456 -459.5621819276544 0 0 2 11 -12 
8 3.019806626980426e-14 -460.0000000000001 0 6.899741252910907 -459.9482509703053 0 1 2 2 12 -13 
9 4.361938736533601 -149.8572332372787 0 6.542908104800401 -99.90482215818578 0 0 2 2 -5 
10 6.542908104800401 -249.7620553954644 0 10.904846841334 -149.8572332372787 0 0 2 5 -8 
11 10.904846841334 -459.5621819276546 0 20.06491818805456 -249.7620553954644 0 0 2 8 -11 
12 1.499943750632805 -149.9831253164039 0 2.249915625949208 -99.98875021093592 0 0 2 3 -6 
13 2.249915625949208 -249.9718755273398 0 3.749859376582014 -149.9831253164039 0 0 2 6 -9 
14 3.749859376582014 -459.9482509703052 0 6.899741252910905 -249.9718755273398 0 0 2 9 -12 
15 6.123233995736766e-15 -150 0 9.184850993605149e-15 -100 0 1 4 2 4 -7 
16 9.184850993605149e-15 -250 0 1.530808498934192e-14 -150 0 1 4 2 7 -10 
17 1.530808498934192e-14 -460 0 2.816687638038913e-14 -250 0 1 4 2 10 -13 
1 1.499943750632806 -149.983125316404 0 6.542908104800404 -99.90482215818578 0 1 3 4 1 12 -3 -9 
2 6.217248937900877e-15 -150.0000000000001 0 2.249915625949209 -99.98875021093592 0 1 3 4 2 15 -4 -12 
3 2.249915625949208 -249.9718755273398 0 10.904846841334 -149.8572332372787 0 1 3 4 3 13 -5 -10 
4 9.103828801926284e-15 -250 0 3.749859376582014 -149.9831253164039 0 1 3 4 4 16 -6 -13 
5 3.749859376582014 -459.9482509703052 0 20.06491818805456 -249.7620553954644 0 1 3 4 5 14 -7 -11 
6 1.509903313490213e-14 -460.0000000000001 0 6.899741252910907 -249.9718755273398 0 1 3 4 6 17 -8 -14 
$EndEntities
$Nodes
35 368 1 368
0 2 0 1
1
4.361938736533601 -99.90482215818578 0
0 3 0 1
2
1.499943750632805 -99.98875021093592 0
0 4 0 1
3
6.123233995736766e-15 -100 0
0 5 0 1
4
6.542908104800401 -149.8572332372787 0
0 6 0 1
5
2.249915625949208 -149.9831253164039 0
0 7 0 1
6
9.184850993605149e-15 -150 0
0 8 0 1
7
10.904846841334 -249.7620553954644 0
0 9 0 1
8
3.749859376582014 -249.9718755273398 0
0 10 0 1
9
1.530808498934192e-14 -250 0
0 11 0 1
10
20.06491818805456 -459.5621819276546 0
0 12 0 1
11
6.899741252910905 -459.9482509703052 0
0 13 0 1
12
2.816687638038913e-14 -460 0
1 1 0 3
13
14
15
2.931241636342313 -99.9570298801909 0
3.646683616354621 -99.93348637269798 0
2.215649460380138 -99.97545147419299 0
1 2 0 5
16
17
18
19
20
0.9999833321137455 -99.99500004167955 0
0.49999791637389 -99.99875000260563 0
1.249967447623984 -99.99218760173157 0
0.7499929668871174 -99.9971875131977 0
0.2499997397326319 -99.99968750016239 0
1 3 0 3
21
22
23
4.396862455701214 -149.9355448202516 0
5.470025423756976 -149.9002295590753 0
3.32347418775179 -149.963177211352 0
1 4 0 5
24
25
26
27
28
1.49997499853968 -149.9925000625157 0
0.7499968754629989 -149.998125003904 0
1.874951172556692 -149.9882814025834 0
1.124989451458774 -149.9957812697881 0
0.3749996106472309 -149.999531250241 0
1 5 0 3
29
30
31
7.328104096572916 -249.8925747003096 0
9.116709045373229 -249.8337159315812 0
5.539123646953012 -249.9386286855711 0
1 6 0 5
32
33
34
35
36
2.499958329512113 -249.9875001042066 0
1.249994790509681 -249.9968750065162 0
3.124918618602218 -249.9804690043347 0
1.8749824177259 -249.9929687829904 0
0.6249993484477088 -249.9992187504081 0
1 7 0 3
37
38
39
13.48371152859613 -459.8023374488362 0
16.7747446403153 -459.694037314225 0
10.19198750802146 -459.8870767815032 0
1 8 0 5
40
41
42
43
44
4.599923327551606 -459.9770001917278 0
2.299990412861701 -459.9942500119984 0
5.749850258875772 -459.9640629679678 0
3.449967647809313 -459.9870625607085 0
1.149998799791126 -459.9985625007545 0
1 9 0 13
45
46
47
48
49
50
51
52
53
54
55
56
57
4.506627852838477 -103.2187477554424 0
4.687489244546086 -107.3611546678764 0
4.913565982636809 -112.5391632730604 0
5.196161907894878 -119.0116740901132 0
5.549406812808967 -127.1023125734434 0
5.990962943007693 -137.2156106559875 0
4.434283294686039 -101.5617849568141 0
4.597058548692234 -105.2899512116583 0
4.800527613591252 -109.9501589704639 0
5.054863945265585 -115.7754186815809 0
5.372784360351509 -123.0569933317688 0
5.770184877909687 -132.1589616147465 0
6.266935523904028 -143.5364219466327 0
1 10 0 13
58
59
60
61
62
63
64
65
66
67
68
69
70
7.166042210018379 -164.1293506884227 0
7.789176315234283 -178.4014681395192 0
8.412310420450709 -192.6735855906277 0
9.03544452567159 -206.9457030418382 0
9.65857863089237 -221.2178204930464 0
10.28171273611312 -235.4899379442539 0
6.854475157410238 -156.9932919628701 0
7.477609262626371 -171.2654094139719 0
8.100743367842917 -185.5375268650831 0
8.723877473059638 -199.8096443161983 0
9.347011578281979 -214.0817617674423 0
9.970145683503489 -228.3538792186672 0
10.59327978872371 -242.6259966698626 0
1 11 0 13
71
72
73
74
75
76
77
78
79
80
81
82
83
13.22301652085221 -302.8568702366314 0
15.07755226767849 -345.3327221831253 0
16.56118086832246 -379.3134038132217 0
17.74808375441263 -406.4979492449875 0
18.69760605439919 -428.2455853868869 0
19.45722389957217 -445.6436944191331 0
12.06393168109311 -276.309462816048 0
14.15028439426535 -324.0947962098784 0
15.81936656799992 -362.3230629981609 0
17.15463231136675 -392.9056765290863 0
18.22284490440558 -417.3717673159296 0
19.07741497698685 -436.9446399030368 0
19.7610710438144 -452.6029381734176 0
1 12 0 13
84
85
86
87
88
89
90
91
92
93
94
95
96
1.549698125669706 -103.3054597711224 0
1.611891093202545 -107.4513466371428 0
1.689632302088156 -112.6337051843084 0
1.786808814104583 -119.1116534288885 0
1.908279453554688 -127.2090886965877 0
2.06011775254264 -137.3308827595681 0
1.524820938151295 -101.6471049910318 0
1.580794609436174 -105.3784032041359 0
1.6507616976453 -110.0425259107222 0
1.738220558096312 -115.8726793065946 0
1.847544133829514 -123.16037106273 0
1.984198603048664 -132.2699857280779 0
2.155016689245991 -143.6570040379905 0
1 13 0 13
97
98
99
100
101
102
103
104
105
106
107
108
109
2.464193304610276 -164.267232489344 0
2.678470983271344 -178.551339662284 0
2.892748661932412 -192.8354468352241 0
3.107026340594241 -207.1195540082149 0
3.321304019256832 -221.4036611812566 0
3.535581697919423 -235.6877683542982 0
2.357054465279742 -157.1251789028739 0
2.571332143940902 -171.4092860758201 0
2.785609822601487 -185.693393248728 0
2.999887501263141 -199.9775004217071 0
3.214165179925562 -214.2616075947374 0
3.428442858588127 -228.5457147677774 0
3.642720537250661 -242.8298219408152 0
1 14 0 13
110
111
112
113
114
115
116
117
118
119
120
121
122
4.547010444884734 -303.1112942657255 0
5.184731300631215 -345.6228293300488 0
5.69490798632365 -379.6320574545187 0
6.103049336794609 -406.8394400818858 0
6.429562414115462 -428.605345980067 0
6.690772877754693 -446.0180708174397 0
4.148434910733667 -276.5415848965522 0
4.865870872758189 -324.3670617979015 0
5.439819643476866 -362.6274433922459 0
5.898978661558637 -393.2357487681694 0
6.26630587545566 -417.722393031018 0
6.56016764593512 -437.3117083987563 0
6.795257065332857 -452.9831608938763 0
1 15 0 13
123
124
125
126
127
128
129
130
131
132
133
134
135
6.326346732819024e-15 -103.317082724973 0
6.580237649014903e-15 -107.46343604697 0
6.897601292092836e-15 -112.6463776640777 0
7.294305849652384e-15 -119.1250547460862 0
7.790186544272009e-15 -127.2234010605481 0
8.410037411236573e-15 -137.346333932232 0
6.22479036427794e-15 -101.6585413624872 0
6.453292190917058e-15 -105.390259385973 0
6.738919470553839e-15 -110.0549068555234 0
7.095953570872659e-15 -115.8857162050828 0
7.542246196961315e-15 -123.1742279033028 0
8.100111977754142e-15 -132.2848674963876 0
8.797444202422013e-15 -143.6731669661348 0
1 16 0 13
136
137
138
139
140
141
142
143
144
145
146
147
148
1.00595987072728e-14 -164.2857142855668 0
1.093434642094045e-14 -178.5714285711337 0
1.180909413460811e-14 -192.8571428567005 0
1.268384184827575e-14 -207.1428571422673 0
1.35585895619569e-14 -221.4285714280545 0
1.443333727564941e-14 -235.7142857140272 0
9.622224850439166e-15 -157.1428571427865 0
1.049697256410705e-14 -171.4285714283571 0
1.137172027777323e-14 -185.7142857139 0
1.224646799144076e-14 -199.9999999994648 0
1.312121570511643e-14 -214.2857142851626 0
1.399596341880272e-14 -228.5714285710338 0
1.487071113249695e-14 -242.8571428570346 0
1 17 0 13
149
150
151
152
153
154
155
156
157
158
159
160
161
1.856230203522673e-14 -303.1453974835932 0
2.116567567644799e-14 -345.6617155441774 0
2.324837459388394e-14 -379.6747700654648 0
2.491453373565788e-14 -406.8852138102895 0
2.624746103660188e-14 -428.6535686024148 0
2.731380288463506e-14 -446.0682525549733 0
1.693519351228567e-14 -276.5726987418186 0
1.986398885583706e-14 -324.4035565138804 0
2.220702513516324e-14 -362.6682428047766 0
2.408145416477058e-14 -393.2799919378718 0
2.558099738613005e-14 -417.7693912063548 0
2.678063196061813e-14 -437.3609105786885 0
2.774033963251178e-14 -453.0341262774815 0
2 1 0 25
162
163
164
165
166
167
168
169
170
171
172
173
174
175
176
177
178
179
180
181
182
183
184
185
186
3.028473346368318 -103.2726872507683 0
3.150012981432184 -107.4172588798067 0
3.301937524224799 -112.5979733807418 0
3.491843204492788 -119.0738665675149 0
3.729225303713196 -127.1687330129715 0
4.02595292710436 -137.2873160481589 0
2.979857491355316 -101.6148585654796 0
3.767550599603397 -103.2457175031053 0
3.08924316390025 -105.3449730652875 0
3.918751112989135 -107.3892067738415 0
3.225975252828492 -110.0076161302742 0
4.107751753430804 -112.5685683269011 0
3.396890364358794 -115.8359199741284 0
4.344002556193834 -119.042770328814 0
3.610534254102992 -123.1212997902432 0
4.639316058261082 -127.1355227932074 0
3.877589115408778 -132.2280245305652 0
5.008457935056026 -137.2514633520732 0
4.211407691402787 -143.6114304342053 0
2.289085736019012 -103.2890735109454 0
2.380952037317364 -107.4343027584747 0
2.495784913156478 -112.6158392825251 0
2.639326009298686 -119.0927599982017 0
2.818752378633942 -127.1889108547796 0
3.0430353398235 -137.3090994038635 0
2 2 0 44
187
188
189
190
191
192
193
194
195
196
197
198
199
200
201
202
203
204
205
206
207
208
209
210
211
212
213
214
215
216
217
218
219
220
221
222
223
224
225
226
227
228
229
230
1.033153606500615 -103.311916913914 0
1.074616448641995 -107.4580629199901 0
1.126445000965086 -112.640745392215 0
1.19123069197524 -119.1190985431208 0
1.272212805357637 -127.2170399437186 0
1.373440446869175 -137.3394666729052 0
0.5165832609431202 -103.3157912641384 0
0.5373149412335482 -107.4620927568352 0
0.5632295414197649 -112.6449695873264 0
0.595622791955684 -119.1235656860654 0
0.6361143549354328 -127.2218107714471 0
0.686728808551889 -137.3446171066969 0
1.016568469307181 -101.6534584777968 0
1.291425866085161 -103.3086883425182 0
1.053885027571305 -105.384989916952 0
1.34325377092227 -107.4547047785664 0
1.100530724803541 -110.0494041561025 0
1.408038651526621 -112.6372252882617 0
1.158837846470163 -115.8799219676679 0
1.489019753039912 -119.1153759860046 0
1.231721748666438 -123.1680692434197 0
1.590246129456162 -127.2130643201532 0
1.322826626113406 -132.2782533083119 0
1.716779099705908 -137.3351747162367 0
1.436707722704428 -143.6659833677105 0
0.5082905886585052 -101.657270633372 0
0.7748684337218679 -103.3138540890262 0
0.5269491010883343 -105.3889420104868 0
0.8059656949377716 -107.4600778384126 0
0.5502722413266565 -110.0535311720808 0
0.8448372711924257 -112.6428574897707 0
0.5794261666877245 -115.8842676366959 0
0.8934267419654619 -119.1213321145931 0
0.6158685734455585 -123.1726882287562 0
0.9541635801465347 -127.2194253575828 0
0.6614215817436608 -132.283213939072 0
1.030084627710532 -137.342041889801 0
0.7183628420074439 -143.6713710553004 0
0.2582916304715633 -103.3164369945557 0
0.2686574706167774 -107.4627644019026 0
0.2816147707098859 -112.6456736257021 0
0.2978113959778456 -119.1243102160758 0
0.3180571774677203 -127.2226059159976 0
0.3433644042759487 -137.3454755194645 0
2 3 0 25
231
232
233
234
235
236
237
238
239
240
241
242
243
244
245
246
247
248
249
250
251
252
253
254
255
4.815611261539094 -164.2151205173647 0
5.234360067375936 -178.494696214454 0
5.653108873213039 -192.7742719115492 0
6.071857679052751 -207.0538476087209 0
6.490606484892796 -221.3334233059169 0
6.909355290732823 -235.6129990031125 0
4.606236858620154 -157.0753326688081 0
5.990826735778736 -164.1722356028937 0
5.024985664457515 -171.3549083659093 0
6.51176819130511 -178.4480821769866 0
5.443734470294487 -185.6344840630016 0
7.032709646831874 -192.7239287510885 0
5.862483276132895 -199.9140597601351 0
7.553651102362171 -206.9997753252796 0
6.281232081972774 -214.1936354573189 0
8.074592557892583 -221.2756218994816 0
6.69998088781281 -228.4732111545147 0
8.595534013422972 -235.5514684736832 0
7.118729693652869 -242.7527868517111 0
3.639902283074685 -164.2411765033543 0
3.956415525323639 -178.523017938369 0
4.272928767572726 -192.8048593733866 0
4.589442009823497 -207.0867008084679 0
4.905955252074814 -221.3685422435867 0
5.222468494326123 -235.6503836787054 0
2 4 0 44
256
257
258
259
260
261
262
263
264
265
266
267
268
269
270
271
272
273
274
275
276
277
278
279
280
281
282
283
284
285
286
287
288
289
290
291
292
293
294
295
296
297
298
299
1.642829760106663 -164.2775000683885 0
1.785684521673645 -178.5625000742614 0
1.928539283240629 -192.8475000801343 0
2.071394044808119 -207.1325000860408 0
2.214248806376117 -221.4175000920549 0
2.357103567944115 -235.7025000981308 0
0.8214251490408425 -164.2836607184476 0
0.8928534226186862 -178.5691964329913 0
0.9642816961965294 -192.854732147535 0
1.035709969774627 -207.1402678620955 0
1.107138243352978 -221.42580357682 0
1.178566516931329 -235.7113392916681 0
1.571402379323172 -157.1350000654521 0
2.05351153235847 -164.2723662788663 0
1.714257140890154 -171.4200000713249 0
2.232077752472494 -178.5569198682727 0
1.857111902457137 -185.7050000771978 0
2.41064397258652 -192.8414734576792 0
1.999966664024374 -199.9900000830876 0
2.58921019270118 -207.1260270471279 0
2.142821425592118 -214.2750000890479 0
2.767776412816475 -221.4105806366557 0
2.285676187160116 -228.5600000950928 0
2.946342632931769 -235.6951342262145 0
2.428530948728114 -242.8450001011687 0
0.7857110122519206 -157.1408928611758 0
1.232127454573753 -164.2805803934181 0
0.8571392858297644 -171.4264285757195 0
1.339268972146166 -178.5658482536263 0
0.9285675594076077 -185.7119642902632 0
1.446410489718579 -192.8511161138346 0
0.9999958329855783 -199.9975000048152 0
1.553552007291373 -207.1363839740682 0
1.071424106563803 -214.2830357194577 0
1.660693524864548 -221.4216518344374 0
1.142852380142154 -228.5685714342441 0
1.767835042437722 -235.7069196948995 0
1.214280653720505 -242.8541071490922 0
0.4107125745204263 -164.2846875020072 0
0.4464267113093486 -178.5703125020625 0
0.4821408480982706 -192.8559375021177 0
0.5178549848873198 -207.1415625021814 0
0.553569121676496 -221.4271875024372 0
0.5892832584656719 -235.7128125028477 0
2 5 0 25
300
301
302
303
304
305
306
307
308
309
310
311
312
313
314
315
316
317
318
319
320
321
322
323
324
8.88592411432211 -303.0151355428774 0
10.13218013067969 -345.5131842905267 0
11.12918494590507 -379.5116233616097 0
11.92678880183177 -406.7103747462293 0
12.56487188060177 -428.4693756502913 0
13.07533834710126 -445.8765764923302 0
8.107014105447513 -276.4538551215935 0
11.05447031758716 -302.9360028897544 0
9.509052122500901 -324.2641599167021 0
12.60486619917909 -345.422953236826 0
10.63068253829238 -362.5124038260682 0
13.84518290711376 -379.4125135874157 0
11.52798687386842 -393.1109990539195 0
14.8374362781222 -406.6041619956084 0
12.24583034121677 -417.5898751982603 0
15.63123896750048 -428.3574805185891 0
12.82010511385152 -437.1729760713107 0
16.26628112333672 -445.7601354557316 0
13.2795249378487 -452.8394569705832 0
6.716467279603422 -303.0632149043014 0
7.658455715655454 -345.5680068102878 0
8.412046466114361 -379.5718404080642 0
9.014919069313191 -406.7749074140575 0
9.497217147358617 -428.5373608151791 0
9.883055612427977 -445.9473236548849 0
2 6 0 44
325
326
327
328
329
330
331
332
333
334
335
336
337
338
339
340
341
342
343
344
345
346
347
348
349
350
351
352
353
354
355
356
357
358
359
360
361
362
363
364
365
366
367
368
3.031403446284713 -303.1302403400126 0
3.45655954043901 -345.6444326023058 0
3.796684416492631 -379.6557864850896 0
4.06878431861356 -406.8648697191121 0
4.286464238272987 -428.6321361026054 0
4.460608175188916 -446.0459493282408 0
1.515720670061266 -303.1416081739972 0
1.728301374070648 -345.6573947816618 0
1.898365937643249 -379.670024140679 0
2.034417589140356 -406.8801277556897 0
2.143258909319368 -428.6482104439658 0
2.230331966056781 -446.062676713438 0
2.765680887898413 -276.5588702221096 0
3.789206945584723 -303.120767302869 0
3.243981493361861 -324.3873364711592 0
4.320645420535113 -345.6336309661773 0
3.62662197846582 -362.6501095436977 0
4.74579620140814 -379.6439219698042 0
3.932734367553095 -393.2603281021009 0
5.085916827704085 -406.8521549004989 0
4.177624278443274 -417.7485029108587 0
5.358013326194224 -428.6187410413362 0
4.373536206730952 -437.3390427154231 0
5.575690526471805 -446.0320100728403 0
4.530265751370261 -453.0114747599843 0
1.382857730285474 -276.5692415902567 0
2.27356205817299 -303.1359242570049 0
1.622011022065957 -324.3995014778295 0
2.592430457254829 -345.6509136919838 0
1.813333655856949 -362.6637094611704 0
2.84752517706794 -379.6629053128843 0
1.966391763391802 -393.2750759481843 0
3.051600953876958 -406.8724987374009 0
2.088838249229862 -417.7641690998278 0
3.214861573796178 -428.6401732732856 0
2.186795437688075 -437.3554435787019 0
3.345470070622849 -446.0543130208393 0
2.265161189459241 -453.0284633627182 0
0.7578603350306424 -303.1435028287952 0
0.8641506870353348 -345.6595551629196 0
0.9491829688216362 -379.6723971030719 0
1.01720879457019 -406.8826707829896 0
1.071629454659697 -428.6508895231903 0
1.115165983028404 -446.0654646342056 0
$EndNodes
$Elements
12 134 1 134
1 1 8 2
1 1 13 14 
2 13 2 15 
1 2 8 3
3 2 16 18 
4 16 17 19 
5 17 3 20 
1 8 8 3
6 11 40 42 
7 40 41 43 
8 41 12 44 
1 15 8 7
9 3 123 129 
10 123 124 130 
11 124 125 131 
12 125 126 132 
13 126 127 133 
14 127 128 134 
15 128 6 135 
1 16 8 7
16 6 136 142 
17 136 137 143 
18 137 138 144 
19 138 139 145 
20 139 140 146 
21 140 141 147 
22 141 9 148 
1 17 8 7
23 9 149 155 
24 149 150 156 
25 150 151 157 
26 151 152 158 
27 152 153 159 
28 153 154 160 
29 154 12 161 
2 1 16 14
30 1 13 162 45 14 168 169 51 
31 45 162 163 46 169 170 171 52 
32 46 163 164 47 171 172 173 53 
33 47 164 165 48 173 174 175 54 
34 48 165 166 49 175 176 177 55 
35 49 166 167 50 177 178 179 56 
36 50 167 21 4 179 180 22 57 
37 13 2 84 162 15 90 181 168 
38 162 84 85 163 181 91 182 170 
39 163 85 86 164 182 92 183 172 
40 164 86 87 165 183 93 184 174 
41 165 87 88 166 184 94 185 176 
42 166 88 89 167 185 95 186 178 
43 167 89 5 21 186 96 23 180 
2 2 16 21
44 2 16 187 84 18 199 200 90 
45 84 187 188 85 200 201 202 91 
46 85 188 189 86 202 203 204 92 
47 86 189 190 87 204 205 206 93 
48 87 190 191 88 206 207 208 94 
49 88 191 192 89 208 209 210 95 
50 89 192 24 5 210 211 26 96 
51 16 17 193 187 19 212 213 199 
52 187 193 194 188 213 214 215 201 
53 188 194 195 189 215 216 217 203 
54 189 195 196 190 217 218 219 205 
55 190 196 197 191 219 220 221 207 
56 191 197 198 192 221 222 223 209 
57 192 198 25 24 223 224 27 211 
58 17 3 123 193 20 129 225 212 
59 193 123 124 194 225 130 226 214 
60 194 124 125 195 226 131 227 216 
61 195 125 126 196 227 132 228 218 
62 196 126 127 197 228 133 229 220 
63 197 127 128 198 229 134 230 222 
64 198 128 6 25 230 135 28 224 
2 3 16 14
65 4 21 231 58 22 237 238 64 
66 58 231 232 59 238 239 240 65 
67 59 232 233 60 240 241 242 66 
68 60 233 234 61 242 243 244 67 
69 61 234 235 62 244 245 246 68 
70 62 235 236 63 246 247 248 69 
71 63 236 29 7 248 249 30 70 
72 21 5 97 231 23 103 250 237 
73 231 97 98 232 250 104 251 239 
74 232 98 99 233 251 105 252 241 
75 233 99 100 234 252 106 253 243 
76 234 100 101 235 253 107 254 245 
77 235 101 102 236 254 108 255 247 
78 236 102 8 29 255 109 31 249 
2 4 16 21
79 5 24 256 97 26 268 269 103 
80 97 256 257 98 269 270 271 104 
81 98 257 258 99 271 272 273 105 
82 99 258 259 100 273 274 275 106 
83 100 259 260 101 275 276 277 107 
84 101 260 261 102 277 278 279 108 
85 102 261 32 8 279 280 34 109 
86 24 25 262 256 27 281 282 268 
87 256 262 263 257 282 283 284 270 
88 257 263 264 258 284 285 286 272 
89 258 264 265 259 286 287 288 274 
90 259 265 266 260 288 289 290 276 
91 260 266 267 261 290 291 292 278 
92 261 267 33 32 292 293 35 280 
93 25 6 136 262 28 142 294 281 
94 262 136 137 263 294 143 295 283 
95 263 137 138 264 295 144 296 285 
96 264 138 139 265 296 145 297 287 
97 265 139 140 266 297 146 298 289 
98 266 140 141 267 298 147 299 291 
99 267 141 9 33 299 148 36 293 
2 5 16 14
100 7 29 300 71 30 306 307 77 
101 71 300 301 72 307 308 309 78 
102 72 301 302 73 309 310 311 79 
103 73 302 303 74 311 312 313 80 
104 74 303 304 75 313 314 315 81 
105 75 304 305 76 315 316 317 82 
106 76 305 37 10 317 318 38 83 
107 29 8 110 300 31 116 319 306 
108 300 110 111 301 319 117 320 308 
109 301 111 112 302 320 118 321 310 
110 302 112 113 303 321 119 322 312 
111 303 113 114 304 322 120 323 314 
112 304 114 115 305 323 121 324 316 
113 305 115 11 37 324 122 39 318 
2 6 16 21
114 8 32 325 110 34 337 338 116 
115 110 325 326 111 338 339 340 117 
116 111 326 327 112 340 341 342 118 
117 112 327 328 113 342 343 344 119 
118 113 328 329 114 344 345 346 120 
119 114 329 330 115 346 347 348 121 
120 115 330 40 11 348 349 42 122 
121 32 33 331 325 35 350 351 337 
122 325 331 332 326 351 352 353 339 
123 326 332 333 327 353 354 355 341 
124 327 333 334 328 355 356 357 343 
125 328 334 335 329 357 358 359 345 
126 329 335 336 330 359 360 361 347 
127 330 336 41 40 361 362 43 349 
128 33 9 149 331 36 155 363 350 
129 331 149 150 332 363 156 364 352 
130 332 150 151 333 364 157 365 354 
131 333 151 152 334 365 158 366 356 
132 334 152 153 335 366 159 367 358 
133 335 153 154 336 367 160 368 360 
134 336 154 12 41 368 161 44 362 
$EndElements
