$MeshFormat
4.1 0 8
$EndMeshFormat
$PhysicalNames
4
1 1 "Fixed"
1 2 "Loaded"
1 4 "Symmetry"
2 3 "Wheel"
$EndPhysicalNames
$Entities
13 17 6 0
1 0 0 0 0 
2 4.361938736533601 -99.90482215818578 0 0 
3 1.499943750632805 -99.98875021093592 0 0 
4 6.123233995736766e-15 -100 0 0 
5 6.542908104800401 -149.8572332372787 0 0 
6 2.249915625949208 -149.9831253164039 0 0 
7 9.184850993605149e-15 -150 0 0 
8 10.904846841334 -249.7620553954644 0 0 
9 3.749859376582014 -249.9718755273398 0 0 
10 1.530808498934192e-14 -250 0 0 
11 20.06491818805456 -459.5621819276546 0 0 
12 6.899741252910905 -459.9482509703052 0 0 
13 2.816687638038913e-14 -460 0 0 
1 1.499943750632806 -99.98875021093595 0 4.361938736533602 -99.90482215818579 0 1 1 2 2 -3 
2 6.439293542825908e-15 -100 0 1.499943750632805 -99.98875021093592 0 1 1 2 3 -4 
3 2.24991562594921 -149.983125316404 0 6.542908104800404 -149.8572332372787 0 0 2 5 -6 
4 9.325873406851315e-15 -150.0000000000001 0 2.249915625949209 -149.9831253164039 0 0 2 6 -7 
5 3.749859376582015 -249.9718755273398 0 10.904846841334 -249.7620553954644 0 0 2 8 -9 
6 1.509903313490213e-14 -250 0 3.749859376582014 -249.9718755273398 0 0 2 9 -10 
7 6.899741252910902 -459.9482509703051 0 20.06491818805456 -459.5621819276544 0 0 2 11 -12 
8 3.019806626980426e-14 -460.0000000000001 0 6.899741252910907 -459.9482509703053 0 1 2 2 12 -13 
9 4.361938736533601 -149.8572332372787 0 6.542908104800401 -99.90482215818578 0 0 2 2 -5 
10 6.542908104800401 -249.7620553954644 0 10.904846841334 -149.8572332372787 0 0 2 5 -8 
11 10.904846841334 -459.5621819276546 0 20.06491818805456 -249.7620553954644 0 0 2 8 -11 
12 1.499943750632805 -149.9831253164039 0 2.249915625949208 -99.98875021093592 0 0 2 3 -6 
13 2.249915625949208 -249.9718755273398 0 3.749859376582014 -149.9831253164039 0 0 2 6 -9 
14 3.749859376582014 -459.9482509703052 0 6.899741252910905 -249.9718755273398 0 0 2 9 -12 
15 6.123233995736766e-15 -150 0 9.184850993605149e-15 -100 0 1 4 2 4 -7 
16 9.184850993605149e-15 -250 0 1.530808498934192e-14 -150 0 1 4 2 7 -10 
17 1.530808498934192e-14 -460 0 2.816687638038913e-14 -250 0 1 4 2 10 -13 
1 1.499943750632806 -149.983125316404 0 6.542908104800404 -99.90482215818578 0 1 3 4 1 12 -3 -9 
2 6.217248937900877e-15 -150.0000000000001 0 2.249915625949209 -99.98875021093592 0 1 3 4 2 15 -4 -12 
3 2.249915625949208 -249.9718755273398 0 10.904846841334 -149.8572332372787 0 1 3 4 3 13 -5 -10 
4 9.103828801926284e-15 -250 0 3.749859376582014 -149.9831253164039 0 1 3 4 4 16 -6 -13 
5 3.749859376582014 -459.9482509703052 0 20.06491818805456 -249.7620553954644 0 1 3 4 5 14 -7 -11 
6 1.509903313490213e-14 -460.0000000000001 0 6.899741252910907 -249.9718755273398 0 1 3 4 6 17 -8 -14 
$EndEntities
$Nodes
35 1051 1 1051
0 2 0 1
1
4.361938736533601 -99.90482215818578 0
0 3 0 1
2
1.499943750632805 -99.98875021093592 0
0 4 0 1
3
6.123233995736766e-15 -100 0
0 5 0 1
4
6.542908104800401 -149.8572332372787 0
0 6 0 1
5
2.249915625949208 -149.9831253164039 0
0 7 0 1
6
9.184850993605149e-15 -150 0
0 8 0 1
7
10.904846841334 -249.7620553954644 0
0 9 0 1
8
3.749859376582014 -249.9718755273398 0
0 10 0 1
9
1.530808498934192e-14 -250 0
0 11 0 1
10
20.06491818805456 -459.5621819276546 0
0 12 0 1
11
6.899741252910905 -459.9482509703052 0
0 13 0 1
12
2.816687638038913e-14 -460 0
1 1 0 9
13
14
15
16
17
18
19
20
21
3.789750761459618 -99.92816314316009 0
3.217438505329953 -99.94822704512784 0
2.645020736240007 -99.9650132061456 0
2.072516227156453 -99.97852107571994 0
4.075861457842966 -99.91690224069436 0
3.503608995243131 -99.9386047731729 0
2.931241636039757 -99.95702988019977 0
2.358778150424285 -99.97217695757698 0
1.786237311853466 -99.98404550859975 0
1 2 0 13
22
23
24
25
26
27
28
29
30
31
32
33
34
1.285678862773257 -99.99173480774208 0
1.071408071249147 -99.99426025900119 0
0.8571323598884032 -99.9963265531171 0
0.6428527139971126 -99.99793368059215 0
0.4285701168252911 -99.99908163405784 0
0.2142855506684305 -99.9997704082503 0
1.392812106244361 -99.99029990172396 0
1.17854414350486 -99.99305492733889 0
0.9642707687230309 -99.99535080134768 0
0.7499929671141617 -99.997187513196 0
0.5357117229139179 -99.99856505445432 0
0.3214280181785891 -99.99948341881138 0
0.1071428368913785 -99.99994260204603 0
1 3 0 9
35
36
37
38
39
40
41
42
43
5.68462614528703 -149.8922447146227 0
4.826157759389027 -149.9223405676469 0
3.967531105897946 -149.9475198091777 0
3.10877434264096 -149.9677816135405 0
6.113792189510399 -149.8753533609296 0
5.255413496250728 -149.9079071596407 0
4.396862456348955 -149.9355448202326 0
3.538167228901786 -149.9582654362885 0
2.679355968338136 -149.9760682628897 0
1 4 0 13
44
45
46
47
48
49
50
51
52
53
54
55
56
1.928518293886743 -149.9876022116167 0
1.607112107559503 -149.9913903884945 0
1.285698540091269 -149.9944898296735 0
0.9642790715604881 -149.9969005208846 0
0.6428551753445608 -149.9986224510863 0
0.3214283257609316 -149.999655612376 0
2.089218159159895 -149.9854498525889 0
1.767816215760068 -149.9895823910024 0
1.446406154100624 -149.9930262020118 0
1.124989450776309 -149.9957812697932 0
0.8035675850025654 -149.9978475816781 0
0.48214202680402 -149.9992251282186 0
0.1607142548744904 -149.9999139030696 0
1 5 0 9
57
58
59
60
61
62
63
64
65
9.474376907913008 -249.8204078577385 0
8.043596267879527 -249.8705676126729 0
6.612551847411003 -249.9125330151838 0
5.181290570353822 -249.9463026892488 0
10.1896536463568 -249.7922556016645 0
8.75902249495684 -249.8465119326921 0
7.328104093202095 -249.8925747004084 0
5.896945381837921 -249.9304423938061 0
4.465593282706835 -249.9601137714444 0
1 6 0 13
66
67
68
69
70
71
72
73
74
75
76
77
78
3.214197156888426 -249.9793370193558 0
2.678520177081326 -249.9856506475141 0
2.1428308985373 -249.9908163828029 0
1.607131783627643 -249.9948342014892 0
1.071425291127277 -249.9977040851486 0
0.5357138749025609 -249.9994260206296 0
3.482030265202286 -249.9757497543156 0
2.946360357901275 -249.9826373183573 0
2.410676921910697 -249.9883770033682 0
1.874982416866627 -249.9929687829969 0
1.339279305897141 -249.9964126361432 0
0.8035700440764768 -249.9987085470328 0
0.2678570907731719 -249.9998565051167 0
1 7 0 9
79
80
81
82
83
84
85
86
87
17.43285350956461 -459.6695504582764 0
14.80021712926715 -459.7618444074349 0
12.16709538579179 -459.8390607482937 0
9.5335746456908 -459.9011969482955 0
18.74896270511443 -459.6177503072331 0
16.11660138596362 -459.71758195632 0
13.48371152530265 -459.8023374489328 0
10.85037949621563 -459.8720140047533 0
8.216691631542231 -459.9266093396119 0
1 8 0 13
88
89
90
91
92
93
94
95
96
97
98
99
100
5.914122768038101 -459.9619801156229 0
4.928477127837162 -459.9735971914045 0
3.94280885427982 -459.9831021443491 0
2.957122482273586 -459.9904949307376 0
1.971422534406035 -459.995775516679 0
0.9857135314238272 -459.9989438779551 0
6.40693568798489 -459.9553795479407 0
5.42130305955466 -459.9680526657656 0
4.435645537461577 -459.9786136861866 0
3.449967646994638 -459.9870625607146 0
2.464273923040589 -459.9933992505026 0
1.478568882231543 -459.9976237265369 0
0.4928570479136081 -459.9997359694138 0
1 9 0 17
101
102
103
104
105
106
107
108
109
110
111
112
113
114
115
116
117
4.446464826498134 -101.8407879054591 0
4.552122436571222 -104.2607450349806 0
4.684194449118568 -107.2856914458745 0
4.849284465198769 -111.0668744685622 0
5.055646984440382 -115.7933532272557 0
5.313600133547324 -121.7014516768806 0
5.636041568195199 -129.0865746991553 0
6.039093360689434 -138.3179784583182 0
4.404201781515821 -100.8728050318214 0
4.49929363153452 -103.0507664702162 0
4.618158442845028 -105.7732182404306 0
4.76673945715865 -109.1762829572179 0
4.952465724819501 -113.4301138479072 0
5.184623558993842 -118.7474024520679 0
5.47482085087089 -125.3940131880095 0
5.837567464442474 -133.7022765787404 0
6.291000732745445 -144.0876058478105 0
1 10 0 17
118
119
120
121
122
123
124
125
126
127
128
129
130
131
132
133
134
7.027567964414491 -160.9577690326154 0
7.512227824027613 -172.0583048279299 0
7.996887683639287 -183.1588406232112 0
8.481547543253082 -194.2593764185412 0
8.966207402869216 -205.3599122139247 0
9.450867262485509 -216.4604480093118 0
9.935527122101734 -227.5609838046974 0
10.42018698171768 -238.6615196000766 0
6.785238034607445 -155.407501134947 0
7.269897894221369 -166.5080369302799 0
7.754557753833704 -177.6085727255764 0
8.239217613446229 -188.7091085208772 0
8.723877473060615 -199.8096443162207 0
9.20853733267753 -210.9101801116221 0
9.69319719229331 -222.0107159069975 0
10.17785705191002 -233.1112517023942 0
10.66251691152506 -244.2117874977527 0
1 11 0 17
135
136
137
138
139
140
141
142
143
144
145
146
147
148
149
150
151
13.02086876584763 -298.2269254498649 0
14.71368630357644 -336.9988214502779 0
16.0679403346856 -368.0163382718201 0
17.1513435639514 -392.8303518293371 0
18.01806614601342 -412.6815626444167 0
18.71144421361514 -428.5625313411907 0
19.2661466656182 -441.2673062510087 0
19.70990862677121 -451.4311261685692 0
11.96285780359106 -273.9944904226701 0
13.86727753471204 -317.6128734500716 0
15.39081331912967 -352.507579861018 0
16.60964194932028 -380.4233450506193 0
17.58470485498279 -402.7559572368856 0
18.3647551798147 -420.6220469928134 0
18.9887954396168 -434.9149187961027 0
19.48802764619476 -446.3492162097903 0
19.88741340741271 -455.4966540481079 0
1 12 0 17
152
153
154
155
156
157
158
159
160
161
162
163
164
165
166
167
168
1.529009812323544 -101.9263423244967 0
1.565342388617702 -104.3483324118341 0
1.610758108970254 -107.3758200199962 0
1.667527759547397 -111.160179539295 0
1.738489822473435 -115.8906289187274 0
1.827192401149988 -121.8036906442847 0
1.938070623898538 -129.195017761425 0
2.076668402053517 -138.4341766391378 0
1.514476781478183 -100.9575462677168 0
1.547176100470541 -103.1373373681599 0
1.588050248794024 -105.8620762159182 0
1.639142934258825 -109.2679997796456 0
1.703008791010441 -113.5254042290129 0
1.782841111811697 -118.8471597815051 0
1.882631512523955 -125.4993542028343 0
2.007369512975846 -133.8145972002693 0
2.163292014001032 -144.2086509777488 0
1 13 0 17
169
170
171
172
173
174
175
176
177
178
179
180
181
182
183
184
185
2.416576042685594 -161.0929864509128 0
2.58323645942198 -172.2028475854218 0
2.749896876158366 -183.3127087199307 0
2.916557292894752 -194.4225698544396 0
3.083217709631731 -205.5324309889881 0
3.249878126369302 -216.642292123576 0
3.416538543106872 -227.752153258164 0
3.583198959844443 -238.8620143927519 0
2.333245834317464 -155.5380558836626 0
2.499906251053804 -166.6479170181684 0
2.666566667790156 -177.7577781526751 0
2.833227084526624 -188.8676392871895 0
2.99988750126297 -199.9775004216958 0
3.166547918000596 -211.0873615562874 0
3.333208334738087 -222.19722269087 0
3.499868751475572 -233.3070838254522 0
3.666529168213271 -244.4169449600487 0
1 14 0 17
186
187
188
189
190
191
192
193
194
195
196
197
198
199
200
201
202
4.477497713229527 -298.4774597242501 0
5.059608382591993 -337.2819270847419 0
5.525296918952257 -368.3255010311505 0
5.897847749989258 -393.1603603181868 0
6.19588841470684 -413.0282477403485 0
6.434320947435599 -428.9225577417193 0
6.62506697313013 -441.6380057102534 0
6.777663793712255 -451.8103640868471 0
4.113678544906671 -274.224667625855 0
4.768553047910745 -317.879693404495 0
5.292452650771413 -352.8037140578987 0
5.711572334470716 -380.7429306746658 0
6.046868082347938 -403.0943040292603 0
6.315104681071309 -420.9754027410399 0
6.529693960282865 -435.2802817259864 0
6.701365383421077 -446.7241848985426 0
6.838702523311595 -455.8793075285772 0
1 15 0 17
203
204
205
206
207
208
209
210
211
212
213
214
215
216
217
218
219
6.24189064335494e-15 -101.9378101131002 0
6.390211449533104e-15 -104.3600726998546 0
6.575612457193736e-15 -107.387900932284 0
6.807363717325571e-15 -111.1726862319017 0
7.097052791284517e-15 -115.9036678367307 0
7.459164133809975e-15 -121.8173948440209 0
7.911803309530708e-15 -129.2095535633493 0
8.477602278049707e-15 -138.4497519440241 0
6.182562319545908e-15 -100.968905056551 0
6.316051046444084e-15 -103.1489414064784 0
6.482911953363066e-15 -105.8739868160636 0
6.69148808725956e-15 -109.2802935820913 0
6.952208254305214e-15 -113.538177034319 0
7.278108462547047e-15 -118.8605313403726 0
7.68548372166955e-15 -125.5134742036722 0
8.194702793791324e-15 -133.8296527537049 0
8.831226635827237e-15 -144.2248759720089 0
1 16 0 17
220
221
222
223
224
225
226
227
228
229
230
231
232
233
234
235
236
9.865210326457768e-15 -161.1111111109964 0
1.054556965931038e-14 -172.2222222219928 0
1.1225928992163e-14 -183.3333333329893 0
1.190628832501562e-14 -194.4444444439857 0
1.258664765786824e-14 -205.5555555549821 0
1.326700699072606e-14 -216.6666666660636 0
1.394736632359801e-14 -227.7777777773757 0
1.462772565646996e-14 -238.8888888886879 0
9.525030660031354e-15 -155.5555555554965 0
1.020538999288408e-14 -166.6666666664946 0
1.088574932573696e-14 -177.7777777774954 0
1.156610865858945e-14 -188.8888888884896 0
1.224646799144157e-14 -199.999999999478 0
1.292682732429682e-14 -211.1111111105174 0
1.360718665716186e-14 -222.2222222217167 0
1.428754599003331e-14 -233.3333333330207 0
1.496790532290563e-14 -244.4444444443388 0
1 17 0 17
237
238
239
240
241
242
243
244
245
246
247
248
249
250
251
252
253
1.827852957947442e-14 -298.5110415868583 0
2.065488525176311e-14 -337.3198748593284 0
2.255596979314323e-14 -368.3669415352667 0
2.40768374341963e-14 -393.2045950058341 0
2.52935315465851e-14 -413.0747177748791 0
2.626688684039123e-14 -428.9708160537268 0
2.704557107344258e-14 -441.6876946442477 0
2.766851845999202e-14 -451.8611975184342 0
1.679330728440549e-14 -274.2555207933854 0
1.946670741561582e-14 -317.9154582230452 0
2.160542752244932e-14 -352.8434081972347 0
2.331640361366983e-14 -380.7857682705514 0
2.468518449039232e-14 -403.1396563903829 0
2.578020919348784e-14 -421.0227669142976 0
2.665622895691627e-14 -435.3292553489769 0
2.735704476671763e-14 -446.7744460813464 0
2.791769742019057e-14 -455.9305987592171 0
2 1 0 108
254
255
256
257
258
259
260
261
262
263
264
265
266
267
268
269
270
271
272
273
274
275
276
277
278
279
280
281
282
283
284
285
286
287
288
289
290
291
292
293
294
295
296
297
298
299
300
301
302
303
304
305
306
307
308
309
310
311
312
313
314
315
316
317
318
319
320
321
322
323
324
325
326
327
328
329
330
331
332
333
334
335
336
337
338
339
340
341
342
343
344
345
346
347
348
349
350
351
352
353
354
355
356
357
358
359
360
361
3.863188935097158 -101.8645811943949 0
3.954986650074051 -104.285103703856 0
4.069733793756926 -107.310756839674 0
4.213167723704645 -111.0928232685225 0
4.392460135393263 -115.8204062849109 0
4.61657565005178 -121.7298850566561 0
4.89672004186677 -129.1167334815688 0
5.246900530926841 -138.3502939940212 0
3.279786354123562 -101.8850338966856 0
3.357721163358156 -104.3060424065399 0
3.45513967486893 -107.332303042849 0
3.576912814549617 -111.1151288473169 0
3.729129238517077 -115.8436610832238 0
3.919399768516963 -121.7543263793691 0
4.157237929736364 -129.1426579597704 0
4.454535630658913 -138.3780724165769 0
2.696276215620466 -101.902145341628 0
2.760345563401293 -104.3235604563795 0
2.840432248100635 -107.3503293488097 0
2.940540604215115 -111.1337904734342 0
3.065676048837472 -115.8631168595318 0
3.222095354648794 -121.7747748434172 0
3.41761948586023 -129.1643472834837 0
3.662024649379805 -138.4013128148652 0
2.112677656276093 -101.9159149680638 0
2.162879441543621 -104.3376572788851 0
2.22563167310711 -107.3648351664024 0
2.304071962749851 -111.1488075348907 0
2.402122324395204 -115.8787729758135 0
2.524685276478088 -121.7912297782323 0
2.67788896575675 -129.1818007414566 0
2.869393576967355 -138.4200144267798 0
3.826469848278388 -100.8963721687775 0
4.154826880797646 -101.852684549927 0
3.909087792585605 -103.0748424491254 0
4.253554543322636 -104.2729243694183 0
4.012360221915489 -105.797930271765 0
4.376964121437747 -107.2982241427742 0
4.141450758730786 -109.2017900540983 0
4.531226094451707 -111.0798488685424 0
4.302813929548954 -113.4566147767167 0
4.724053559916822 -115.8068797560833 0
4.504517892722522 -118.7751456707835 0
4.965087891799552 -121.7156683667684 0
4.756647845959275 -125.4233092691125 0
5.266380805030984 -129.101654090362 0
5.071810286396806 -133.733513737795 0
5.642996945808138 -138.3341362261697 0
5.465763338106935 -144.121269354322 0
3.248612429726758 -100.9166304709067 0
3.57148764461036 -101.8748075455402 0
3.318753758740859 -103.0955381516127 0
3.656353906716104 -104.2955730551979 0
3.406430419113543 -105.8191727246945 0
3.762436734312928 -107.3215299412615 0
3.516026244709273 -109.223715945083 0
3.895040269127131 -111.1039760579197 0
3.653021026533347 -113.4793949652704 0
4.06079468695517 -115.8320336840674 0
3.82426450351702 -118.7989937312965 0
4.267987709284371 -121.7421057180126 0
4.038318849126664 -125.4484921695697 0
4.526978985801566 -129.1296957206696 0
4.305886780197638 -133.7603651881736 0
4.850718080792877 -138.364183205299 0
4.64034669502397 -144.1502064921119 0
2.670648475930236 -100.9335792738868 0
2.988031284872014 -101.8935896191568 0
2.72831088951088 -103.1128528990037 0
3.059033363379725 -104.3148014314597 0
2.800388905750964 -105.8369449025946 0
3.147785961484783 -107.3413161958294 0
2.890486426157875 -109.2420599111219 0
3.258726709382366 -111.1244596603755 0
3.003108326526294 -113.498453666483 0
3.397402643677275 -115.8533889713778 0
3.143885701743133 -118.8189458514745 0
3.570747561582879 -121.7645506113932 0
3.319857420254512 -125.4695610634504 0
3.787428707798297 -129.153502621627 0
3.539822067620018 -133.7828300491744 0
4.058280140019359 -138.389692615721 0
3.814777877638876 -144.1744163120215 0
2.092596941716273 -100.9472180218919 0
2.40447693594828 -101.9090301548459 0
2.137778548909857 -103.1267861234745 0
2.461612502472457 -104.3306088676323 0
2.194255557325365 -105.8512462226438 0
2.533031960603872 -107.3575822576061 0
2.264851817928481 -109.2568213506465 0
2.622306283482483 -111.1412990041624 0
2.353097143572528 -113.5137902553521 0
2.733899186616338 -115.8709449176726 0
2.463403800436646 -118.8350013770229 0
2.873390315563441 -121.7830023108247 0
2.601287121117419 -125.4865152598444 0
3.04775422580849 -129.1730740124701 0
2.773641271362052 -133.8009075841182 0
3.26570911317358 -138.4106636208225 0
2.989083959804158 -144.1938980201601 0
1.820843734299819 -101.9211286462803 0
1.864110915080662 -104.3429948453596 0
1.918194891038682 -107.3703275931993 0
1.985799861148624 -111.1544935370928 0
2.07030607343432 -115.8847009472705 0
2.175938838814038 -121.7974602112585 0
2.307979794827644 -129.1884092514408 0
2.473030989510436 -138.4270955329588 0
2 2 0 158
362
363
364
365
366
367
368
369
370
371
372
373
374
375
376
377
378
379
380
381
382
383
384
385
386
387
388
389
390
391
392
393
394
395
396
397
398
399
400
401
402
403
404
405
406
407
408
409
410
411
412
413
414
415
416
417
418
419
420
421
422
423
424
425
426
427
428
429
430
431
432
433
434
435
436
437
438
439
440
441
442
443
444
445
446
447
448
449
450
451
452
453
454
455
456
457
458
459
460
461
462
463
464
465
466
467
468
469
470
471
472
473
474
475
476
477
478
479
480
481
482
483
484
485
486
487
488
489
490
491
492
493
494
495
496
497
498
499
500
501
502
503
504
505
506
507
508
509
510
511
512
513
514
515
516
517
518
519
1.310592877787622 -101.9293847571202 0
1.341735395853342 -104.3514471392275 0
1.380663543422513 -107.3790251158514 0
1.429323728000934 -111.1634975957254 0
1.490148958470769 -115.8940881758762 0
1.566180496574352 -121.8073264023297 0
1.66121991869199 -129.1988741455928 0
1.780019196098428 -138.4383088059913 0
1.092169925233079 -101.9319591468273 0
1.118122242127793 -104.354082701993 0
1.150562638235368 -107.3817371449393 0
1.191113133467304 -111.1663052077141 0
1.241801252296227 -115.8970152664906 0
1.305161400845956 -121.8104028412244 0
1.384361586106581 -129.2021372698406 0
1.483361817481851 -138.4418052869628 0
0.8737419574510925 -101.9340654817982 0
0.8945039539362902 -104.3562390880313 0
0.9204564495341327 -107.3839560948114 0
0.9528970691094107 -111.1686023623763 0
0.9934478434097105 -115.8994101771401 0
1.044136311295945 -121.812919946856 0
1.107496895812506 -129.2048071192029 0
1.186697626297798 -138.4446660660208 0
0.6553099789232475 -101.9357037523503 0
0.670881559729791 -104.357916287429 0
0.6903460357314801 -107.3856819552652 0
0.7146766307920723 -111.1703890491482 0
0.7450898744912138 -115.9012728968092 0
0.7831064291232849 -121.8148777076449 0
0.830627122157449 -129.2068836813946 0
0.8900279883298466 -138.4468911299984 0
0.4368749918950355 -101.936873950973 0
0.447256085498132 -104.359114292497 0
0.4602324524976754 -107.3869147183894 0
0.4764529112860924 -111.1716652598404 0
0.4967284846872135 -115.9026034169612 0
0.5220729514440453 -121.8162761146198 0
0.5537535347194673 -129.2083669469014 0
0.5933542637335395 -138.4484804687027 0
0.2184379977308509 -101.9375760722999 0
0.2236285564418344 -104.3598330977414 0
0.2301167548283999 -107.3876543785302 0
0.2382270028311007 -111.1724309885993 0
0.2483648127922767 -115.9034017314928 0
0.2610370752464617 -121.8171151613654 0
0.2768774032288841 -129.209256908918 0
0.2966778131668092 -138.4494340748405 0
1.29813587028044 -100.9605597824311 0
1.419801345055583 -101.9278635408085 0
1.326164136820482 -103.1404159481738 0
1.453538892235522 -104.3498897755308 0
1.361199469637928 -105.8652361275394 0
1.495710826196384 -107.3774225679238 0
1.404993635711723 -109.2712613557884 0
1.548425743774165 -111.1618385675102 0
1.459736343235851 -113.5287928858008 0
1.614319390472102 -115.8923585473018 0
1.528164727522561 -118.8507072891029 0
1.69668644886217 -121.8055085233072 0
1.613700207633171 -125.5031002739613 0
1.799645271295264 -129.1969459535089 0
1.720619557395209 -133.818591475792 0
1.928343799075973 -138.4362427225645 0
1.854268744992586 -144.212955508804 0
1.081788998241113 -100.9631097029142 0
1.20138140151035 -101.9306719519737 0
1.105146083680436 -103.1430209244101 0
1.229928818990568 -104.3527649206102 0
1.13434244018158 -105.8679099234661 0
1.26561309082894 -107.3803811303954 0
1.170837885851336 -109.2740211763267 0
1.310218430734119 -111.1649014017198 0
1.216457192881765 -113.5316602371024 0
1.365975105383498 -115.8955517211834 0
1.273481326571092 -118.8537090538575 0
1.435670948710154 -121.8088646217771 0
1.344761493476268 -125.5062700555325 0
1.522790752399285 -129.2005057077167 0
1.433861701794216 -133.8219712784017 0
1.63169050679014 -138.440057046477 0
1.545236962520677 -144.2165978377286 0
0.8654371586697478 -100.9651960174576 0
0.9829559413420859 -101.9330123143127 0
0.8841229556936914 -103.1451522849148 0
1.006313098032042 -104.3551608950121 0
0.9074802017352115 -105.8700975914214 0
1.03550954388475 -107.3828466198754 0
0.9366767593217717 -109.2762792285939 0
1.072005101288357 -111.1674537850452 0
0.9731724562595606 -113.5340062697582 0
1.117624547852969 -115.8982127218154 0
1.018792077352828 -118.8561650619981 0
1.17464885607095 -121.8116613940402 0
1.075816603554225 -125.5088635330295 0
1.245929240959543 -129.2034721945218 0
1.147097261055152 -133.8247365926119 0
1.335029721889824 -138.4432356764918 0
1.236198083194533 -144.2195779478471 0
0.6490813464601801 -100.9668187164712 0
0.76452596818717 -101.9348846170743 0
0.6630957693265193 -103.1468100198896 0
0.7826927568330406 -104.3570776877301 0
0.6806137977306356 -105.8717991213471 0
0.8054012426328064 -107.3848190250383 0
0.7025113332617763 -109.2780355022067 0
0.8337868499507415 -111.1694957057623 0
0.729883252641643 -113.5358309729787 0
0.8692688589504621 -115.9003415369746 0
0.7640981518072494 -118.858075302227 0
0.9136213702096148 -121.8138988272505 0
0.8068667756403669 -125.5108806945198 0
0.9690620089849774 -129.2058454002988 0
0.8603275552436478 -133.8268874056965 0
1.038362807313822 -138.4457785980096 0
0.9271535299451674 -144.2218958254415 0
0.4327225543601633 -100.9679777925154 0
0.5460924854091415 -101.9362888516617 0
0.4420655386965837 -103.147994121735 0
0.5590688226139615 -104.358515289963 0
0.4537442689979037 -105.8730145054432 0
0.5752892441145778 -107.3862983368273 0
0.4683426818918839 -109.2792899891149 0
0.5955647710390823 -111.1710271544943 0
0.4865906979866529 -113.5371343384008 0
0.6209091795892137 -115.9019381568852 0
0.5094007180656295 -118.8594397657905 0
0.6525896902836651 -121.8155769111323 0
0.5379132430817564 -125.5123215307606 0
0.6921903284384582 -129.207625314148 0
0.5735538992265035 -133.8284237078021 0
0.7416911260316931 -138.4476857993506 0
0.6181047195390501 -144.2235514598945 0
0.2163617741996407 -100.9686732402751 0
0.3276564948129432 -101.9372250116364 0
0.2210332770863427 -103.1487045850206 0
0.3354423209699832 -104.3594736951192 0
0.2268726556351171 -105.8737437381358 0
0.3451746036630376 -107.3872845484598 0
0.2341718788297503 -109.2800426835648 0
0.3573399570585966 -111.1720481242199 0
0.2432959078116887 -113.5379163600461 0
0.3725466487397451 -115.903002574227 0
0.2547009440193692 -118.8602584464291 0
0.3915550133452535 -121.8166956379926 0
0.2689572392376729 -125.5131860351416 0
0.4153154689741757 -129.2088119279097 0
0.2867776081978467 -133.8293454918792 0
0.4450160384501743 -138.4489572717716 0
0.3090530694638705 -144.2245448436083 0
0.1092189988654286 -101.9376930927 0
0.1118142782209204 -104.359952898798 0
0.1150583774142032 -107.3877776554071 0
0.1191135014155538 -111.1725586102505 0
0.1241824063961419 -115.9035347841118 0
0.1305185376232346 -121.8172550026931 0
0.138438701614446 -129.2094052361336 0
0.1483389065834088 -138.4495930094323 0
2 3 0 108
520
521
522
523
524
525
526
527
528
529
530
531
532
533
534
535
536
537
538
539
540
541
542
543
544
545
546
547
548
549
550
551
552
553
554
555
556
557
558
559
560
561
562
563
564
565
566
567
568
569
570
571
572
573
574
575
576
577
578
579
580
581
582
583
584
585
586
587
588
589
590
591
592
593
594
595
596
597
598
599
600
601
602
603
604
605
606
607
608
609
610
611
612
613
614
615
616
617
618
619
620
621
622
623
624
625
626
627
6.105709563355862 -160.995373952725 0
6.526792981423917 -172.0985031908095 0
6.947876399490818 -183.2016324288675 0
7.368959817559409 -194.3047616669643 0
7.790043235629995 -205.4078909051119 0
8.211126653700827 -216.5110201432703 0
8.632210071771603 -227.6141493814274 0
9.053293489842154 -238.7172786195795 0
5.183650926998393 -161.0276991281792 0
5.541144094607177 -172.1330576886982 0
5.898637262215093 -183.2384162491973 0
6.256130429824282 -194.3437748097255 0
6.613623597435113 -205.4491333703016 0
6.971116765046274 -216.5544919308958 0
7.328609932657395 -227.659850491489 0
7.686103100268348 -238.7652090520784 0
4.261422299398739 -161.0547434987033 0
4.555313492899146 -172.1619671882201 0
4.849204686398972 -183.2691908777236 0
5.143095879899649 -194.3764145672465 0
5.436987073401616 -205.4836382568145 0
5.730878266904001 -216.5908619464078 0
6.024769460406359 -227.6980856360003 0
6.318660653908607 -238.8053093255903 0
3.33905392349732 -161.076506177473 0
3.569333504353487 -172.1852307414011 0
3.799613085209363 -183.2939553053226 0
4.029892666065662 -194.4026798692538 0
4.260172246922906 -205.5114044332273 0
4.490451827780655 -216.6201289972331 0
4.72073140863839 -227.7288535612387 0
4.951010989496068 -238.8375781252428 0
5.895167854321446 -155.4438093336739 0
6.566638763885177 -160.9765714926702 0
6.31625127238989 -166.5469385717673 0
7.019510402725765 -172.0784040093697 0
6.737334690457367 -177.6500678098385 0
7.472382041565052 -183.1802365260394 0
7.158418108525114 -188.7531970479159 0
7.925253680406246 -194.2820690427528 0
7.579501526594703 -199.8563262860381 0
8.378125319249605 -205.3839015595183 0
8.000584944665411 -210.9594555241911 0
8.830996958093168 -216.4857340762911 0
8.421668362736215 -222.0625847623489 0
9.283868596936667 -227.5875665930624 0
8.842751780806879 -233.1657140005035 0
9.736740235779918 -238.6893991098281 0
9.263835198877581 -244.268843238659 0
5.00490434319371 -155.4750198479131 0
5.644680245177128 -161.0115365404521 0
5.362397510802785 -166.5803784084387 0
6.033968538015547 -172.1157804397538 0
5.719890678411135 -177.6857369689477 0
6.423256830852956 -183.2200243390324 0
6.077383846019687 -188.7910955294614 0
6.812545123691845 -194.3242682383449 0
6.434877013629698 -199.8964540900135 0
7.201833416532555 -205.4285121377068 0
6.792370181240694 -211.0018126505987 0
7.59112170937355 -216.5327560370831 0
7.149863348851834 -222.1071712111924 0
7.980410002214499 -227.6369999364582 0
7.507356516462872 -233.2125297717837 0
8.369698295055251 -238.741243835829 0
7.864849684073938 -244.3178883323757 0
4.114476702648343 -155.5011316539405 0
4.722536613198566 -161.0412213134413 0
4.408367896148943 -166.6083553434617 0
5.048228793753162 -172.1475124384591 0
4.702259089649059 -177.7155790329718 0
5.373920974307032 -183.2538035634604 0
4.99615028314931 -188.822802722485 0
5.699613154861965 -194.360094688486 0
5.290041476650632 -199.9300264120305 0
6.025305335418365 -205.4663858135581 0
5.583932670152809 -211.0372501016111 0
6.350997515975138 -216.5726769386518 0
5.877823863655181 -222.144473791204 0
6.676689696531877 -227.6789680637446 0
6.171715057157483 -233.2516974807953 0
7.002381877088478 -238.7852591888343 0
6.465606250659805 -244.358921170387 0
3.22391413306914 -155.5221438955068 0
3.80023811144803 -161.0656248380882 0
3.454193713925403 -166.6308684594371 0
4.062323498626316 -172.1735989648106 0
3.684473294781425 -177.7395930233619 0
4.324408885804168 -183.2815730915231 0
3.914752875637513 -188.8483175872882 0
4.586494272982655 -194.3895472182501 0
4.145032456494285 -199.9570421512406 0
4.848579660162261 -205.4975213450209 0
4.37531203735178 -211.0657667152302 0
5.110665047342328 -216.6054954718204 0
4.605591618209522 -222.1744912792359 0
5.372750434522374 -227.7134695986194 0
4.835871199067229 -233.2832158432407 0
5.634835821702337 -238.8214437254165 0
5.066150779924945 -244.3919404072458 0
2.877814983091457 -161.0847463141929 0
3.076284981887734 -172.1940391634114 0
3.274754980683865 -183.3033320126266 0
3.473224979480207 -194.4126248618467 0
3.671694978277318 -205.5219177111077 0
3.870164977074978 -216.6312105604046 0
4.068634975872631 -227.7405034097013 0
4.267104974670255 -238.8497962589973 0
2 4 0 158
628
629
630
631
632
633
634
635
636
637
638
639
640
641
642
643
644
645
646
647
648
649
650
651
652
653
654
655
656
657
658
659
660
661
662
663
664
665
666
667
668
669
670
671
672
673
674
675
676
677
678
679
680
681
682
683
684
685
686
687
688
689
690
691
692
693
694
695
696
697
698
699
700
701
702
703
704
705
706
707
708
709
710
711
712
713
714
715
716
717
718
719
720
721
722
723
724
725
726
727
728
729
730
731
732
733
734
735
736
737
738
739
740
741
742
743
744
745
746
747
748
749
750
751
752
753
754
755
756
757
758
759
760
761
762
763
764
765
766
767
768
769
770
771
772
773
774
775
776
777
778
779
780
781
782
783
784
785
2.071371500886423 -161.0977949679819 0
2.214224707886102 -172.207987724347 0
2.357077914885781 -183.3181804807123 0
2.499931121885461 -194.4283732370775 0
2.642784328885647 -205.5385659934766 0
2.785637535886342 -216.6487587499217 0
2.928490742887036 -227.7589515063997 0
3.071343949887732 -238.8691442628777 0
1.726157448617061 -161.1018637505468 0
1.845202789674618 -172.212337112599 0
1.964248130732174 -183.3228104746514 0
2.083293471789732 -194.4332838367038 0
2.202338812847713 -205.5437571987842 0
2.321384153906116 -216.6542305609173 0
2.440429494964519 -227.7647039231163 0
2.559474836022922 -238.8751772853152 0
1.380935468807156 -161.1051927799495 0
1.476172397523043 -172.2158957302255 0
1.57140932623893 -183.3265986805015 0
1.666646254954817 -194.4373016307775 0
1.761883183671043 -205.548004581076 0
1.857120112387607 -216.6587075314335 0
1.952357041104172 -227.7694104818899 0
2.047593969820735 -238.8801134323464 0
1.035707150678806 -161.1077820408694 0
1.107135229797126 -172.218663560854 0
1.178563308915444 -183.3295450808387 0
1.249991388033763 -194.4404266008235 0
1.321419467152336 -205.551308120825 0
1.392847546271162 -216.6621896408922 0
1.46427562538999 -227.7730711610913 0
1.535703704508816 -238.8839526812902 0
0.6904740770980266 -161.1096315214445 0
0.7380929788514926 -172.2206405918027 0
0.7857118806049583 -183.3316496621608 0
0.8333307823584242 -194.442658732519 0
0.8809496841120593 -205.5536678028884 0
0.9285685858658638 -216.6646768733299 0
0.9761874876196683 -227.7756859439362 0
1.023806389373473 -238.8866950145424 0
0.345237831221028 -161.1107412131892 0
0.3690473366811245 -172.2218268140023 0
0.3928568421412209 -183.3329124148154 0
0.4166663476013172 -194.4439980156285 0
0.4404758530614982 -205.5550836164473 0
0.4642853585217639 -216.6661692173446 0
0.4880948639820296 -227.7772548184396 0
0.5119043694422953 -238.8883404195346 0
1.999944897386583 -155.5426985897993 0
2.243973771786008 -161.0953907094473 0
2.142798104386262 -166.6528913461644 0
2.398730583654041 -172.2054176548844 0
2.285651311385942 -177.7630841025297 0
2.553487395522073 -183.3154446003215 0
2.428504518385621 -188.8732768588949 0
2.708244207390107 -194.4254715457586 0
2.571357725385554 -199.983469615277 0
2.863001019258689 -205.5354984912324 0
2.714210932385995 -211.0936623716992 0
3.017757831127822 -216.6455254367488 0
2.857064139386689 -222.2038551281607 0
3.172514642996954 -227.7555523822818 0
2.999917346387384 -233.3140478846387 0
3.327271454866088 -238.8655793278148 0
3.142770553388079 -244.4242406411167 0
1.666634778088282 -155.5466270695206 0
1.898764474751742 -161.0998293592643 0
1.785680119145839 -166.6571004315729 0
2.02971374878036 -172.210162418473 0
1.904725460203396 -177.7675737936252 0
2.160663022808977 -183.3204954776819 0
2.023770801260953 -188.8780471556776 0
2.291612296837596 -194.4308285368906 0
2.142816142318723 -199.988520517744 0
2.42256157086668 -205.5411615961305 0
2.261861483376915 -211.0989938798508 0
2.553510844896229 -216.6514946554195 0
2.380906824435318 -222.2094672420168 0
2.684460118925777 -227.761827714758 0
2.49995216549372 -233.3199406042157 0
2.815409392955327 -238.8721607740965 0
2.618997506552124 -244.4304139664147 0
1.333317004449212 -155.5498413048115 0
1.553546458712108 -161.1035282652481 0
1.4285539331651 -166.6605442550875 0
1.66068759359883 -172.2141164214123 0
1.523790861880987 -177.7712472053635 0
1.767828728485552 -183.3247045775765 0
1.619027790596874 -188.8819501556395 0
1.874969863372275 -194.4352927337406 0
1.71426471931293 -199.9926531059267 0
1.982110998259378 -205.5458808899301 0
1.809501648029325 -211.1033560562548 0
2.089252133146862 -216.6564690461754 0
1.904738576745889 -222.2140590066617 0
2.196393268034345 -227.7670572025031 0
1.999975505462453 -233.3247619571181 0
2.303534402921828 -238.8776453588308 0
2.095212434179017 -244.4354649075746 0
0.9999931111196473 -155.552341280877 0
1.208321309742981 -161.1064874104094 0
1.071421190237966 -166.6632228008617 0
1.291653813660084 -172.2172796455397 0
1.142849269356285 -177.7741043208464 0
1.374986317577187 -183.3280718806701 0
1.214277348474604 -188.8849858408311 0
1.45831882149429 -194.4388641158005 0
1.28570542759305 -199.9958673608243 0
1.541651325411689 -205.5496563509505 0
1.357133506711749 -211.1067488808586 0
1.624983829329385 -216.6604485861629 0
1.428561585830576 -222.2176304009917 0
1.708316333247081 -227.7712408214906 0
1.499989664949403 -233.3285119211907 0
1.791648837164775 -238.8820330568183 0
1.571417744068229 -244.4393934413897 0
0.6666646262212936 -155.5541269862654 0
0.8630906138884165 -161.1087067811569 0
0.7142835279747596 -166.6651360566236 0
0.9226141043243092 -172.2196520763284 0
0.7619024297282255 -177.7761451269817 0
0.9821375947602013 -183.3305973714997 0
0.8095213314816913 -188.8871541973399 0
1.041661085196094 -194.4415426666713 0
0.8571402332352418 -199.9981632677037 0
1.101184575632198 -205.5524879618567 0
0.9047591349889615 -211.1091723381092 0
1.160708066068513 -216.6634332571111 0
0.9523780367427661 -222.2201814086331 0
1.220231556504829 -227.7743785525137 0
0.9999969384965707 -233.3311904792393 0
1.279755046941145 -238.8853238479163 0
1.047615840250375 -244.4421995498455 0
0.3333330784909798 -155.5551984127826 0
0.5178559541595273 -161.1101863673168 0
0.3571425839510763 -166.6662840135957 0
0.5535701577663086 -172.2212337029025 0
0.3809520894111727 -177.7773696144088 0
0.5892843613730896 -183.3322810384881 0
0.404761594871269 -188.8884552152219 0
0.6249985649798706 -194.4433283740738 0
0.4285711003314077 -199.9995408160379 0
0.6607127685867787 -205.5543757096679 0
0.4523806057916311 -211.1106264168959 0
0.6964269721938139 -216.6654230453373 0
0.4761901112518968 -222.2217120178921 0
0.7321411758008489 -227.7764703811879 0
0.4999996167121625 -233.3327976189871 0
0.7678553794078842 -238.8875177170385 0
0.5238091221724281 -244.4438832200821 0
0.1726189156105189 -161.1109261620928 0
0.1845236683405675 -172.2220245179976 0
0.196428421070616 -183.3331228739023 0
0.2083331738006645 -194.4442212298071 0
0.2202379265307554 -205.5553195857147 0
0.2321426792608886 -216.6664179417041 0
0.2440474319910218 -227.7775162979077 0
0.255952184721155 -238.8886146541113 0
2 5 0 108
786
787
788
789
790
791
792
793
794
795
796
797
798
799
800
801
802
803
804
805
806
807
808
809
810
811
812
813
814
815
816
817
818
819
820
821
822
823
824
825
826
827
828
829
830
831
832
833
834
835
836
837
838
839
840
841
842
843
844
845
846
847
848
849
850
851
852
853
854
855
856
857
858
859
860
861
862
863
864
865
866
867
868
869
870
871
872
873
874
875
876
877
878
879
880
881
882
883
884
885
886
887
888
889
890
891
892
893
11.31282448447281 -298.2966008210389 0
12.78358254422383 -337.0775551577848 0
13.96018899293968 -368.1023186557564 0
14.90147415580513 -392.9221295603499 0
15.65450228499456 -412.7779782577826 0
16.25692479009883 -428.6626572642289 0
16.73886279242183 -441.3704004247901 0
17.12441319392595 -451.5365949453567 0
9.604409205300799 -298.3564937378134 0
10.85305955412628 -337.1452346132447 0
11.85197983409057 -368.1762273495266 0
12.65111606146893 -393.0010216506973 0
13.2904250425164 -412.8608570700846 0
13.80187222890766 -428.7487254578826 0
14.21102997657818 -441.4590201265314 0
14.53835617445552 -451.6272558559801 0
7.89567895898098 -298.4066022359124 0
8.922180647510736 -337.2018575970285 0
9.743381999227276 -368.238061929219 0
10.40034308352149 -393.0670255130418 0
10.92591195034935 -412.9301963632441 0
11.34636704516544 -428.8207330994802 0
11.6827311198938 -441.5331624498872 0
11.95182237951259 -451.7031059271546 0
6.186689780820461 -298.4469246721487 0
6.991009148852881 -337.2474222522167 0
7.634464644160342 -368.287820366928 0
8.149229042841238 -393.1201389826889 0
8.561040561426182 -412.9859938631357 0
8.890489777448408 -428.878677827352 0
9.154049149459674 -441.592824963152 0
9.364896646999989 -451.7641426711461 0
10.39360069619291 -274.0585043393887 0
12.16684662516023 -298.2617631354519 0
12.04820351434832 -317.6870779894118 0
13.74863442390014 -337.0381883040313 0
13.37188576858176 -352.5899369067706 0
15.01406466381264 -368.0593284637882 0
14.43083157437241 -380.5122241080531 0
16.02640885987827 -392.8762406948435 0
15.27798822039985 -402.8500539090662 0
16.83628421550399 -412.7297704510996 0
15.9557135375467 -420.7203177610057 0
17.48418450185699 -428.6125943027098 0
16.49789379126033 -435.0165288445095 0
18.00250472902001 -441.3188533378994 0
16.93163799317389 -446.4534976850734 0
18.41716091034858 -451.4838605569629 0
17.27863335174528 -455.6030727018166 0
8.824002736590163 -274.1135306752432 0
10.45861684488681 -298.3265472794261 0
10.22873437971354 -317.750864175529 0
11.81832104917505 -337.1113948855148 0
11.35251969410842 -352.6607309813857 0
12.90608441351512 -368.1392730026415 0
12.25154794777975 -380.588624500112 0
13.77629510863703 -392.9615756055236 0
12.97077055199267 -402.930939360391 0
14.47246366375548 -412.8194176639336 0
13.54614863571203 -420.8047912639836 0
15.02939850950325 -428.7056913610558 0
14.00645110274292 -435.103872792207 0
15.4749463845 -441.4147102756607 0
14.37469307551685 -446.5431379912558 0
15.83138468419074 -451.5819254006684 0
14.66928665186133 -455.6945501317075 0
7.254115403195992 -274.159567625548 0
8.750044082140889 -298.3815479868629 0
8.408929803245858 -317.8042299164704 0
9.887620100818506 -337.1735461051366 0
9.332781323369005 -352.7199597631237 0
10.79768091665892 -368.2071446393728 0
10.07186254137438 -380.6525437211304 0
11.52572957249521 -393.0340235818695 0
10.66312751693542 -402.998610938143 0
12.10816849643287 -412.8955267166644 0
11.1361394977574 -420.8754647313622 0
12.57411963703655 -428.7847292786814 0
11.51454908252962 -435.1769477746838 0
12.94688054823599 -441.4960912882093 0
11.81727674970319 -446.6181341885209 0
13.24508927698405 -451.6651808915674 0
12.05945888265219 -455.7710833377241 0
5.683990175587141 -274.1966136806988 0
7.041184369900721 -298.4267634540305 0
6.588849464836671 -317.8471734621827 0
7.956594898181809 -337.2246399246226 0
7.312736896506612 -352.7676213095723 0
8.68892332169381 -368.2629411480735 0
7.89184684350079 -380.7039796748085 0
9.274786063181363 -393.0935822478654 0
8.35513480213371 -403.0530664229123 0
9.743476255887765 -412.9580951131899 0
8.725765169437295 -420.9323358452438 0
10.11842841130693 -428.8497054634161 0
9.022269463454041 -435.235751395252 0
10.41839013467673 -441.5629937065196 0
9.259472898229831 -446.6784838171491 0
10.65835951325629 -451.7336242991504 0
9.449235646345395 -455.8326698097208 0
5.332093747024993 -298.4621921981994 0
6.025308765722437 -337.2646746684793 0
6.5798807815563 -368.3066606990392 0
7.023538396415248 -393.1402496504379 0
7.378464488066511 -413.0071208017421 0
7.662405362442003 -428.9006177845357 0
7.889558061294902 -441.6154153367027 0
8.071280220356122 -451.7872533789966 0
2 6 0 158
894
895
896
897
898
899
900
901
902
903
904
905
906
907
908
909
910
911
912
913
914
915
916
917
918
919
920
921
922
923
924
925
926
927
928
929
930
931
932
933
934
935
936
937
938
939
940
941
942
943
944
945
946
947
948
949
950
951
952
953
954
955
956
957
958
959
960
961
962
963
964
965
966
967
968
969
970
971
972
973
974
975
976
977
978
979
980
981
982
983
984
985
986
987
988
989
990
991
992
993
994
995
996
997
998
999
1000
1001
1002
1003
1004
1005
1006
1007
1008
1009
1010
1011
1012
1013
1014
1015
1016
1017
1018
1019
1020
1021
1022
1023
1024
1025
1026
1027
1028
1029
1030
1031
1032
1033
1034
1035
1036
1037
1038
1039
1040
1041
1042
1043
1044
1045
1046
1047
1048
1049
1050
1051
3.837893364524829 -298.4863690752798 0
4.336850330672059 -337.2919947229854 0
4.736015904335814 -368.3364952991583 0
5.055348364937223 -393.1720958899945 0
5.310814333322337 -413.0405763552045 0
5.515187108848739 -428.9353607910104 0
5.678685328851168 -441.6511883070932 0
5.809483904875822 -451.8238503217261 0
3.198271392350564 -298.4939078261577 0
3.614072364597708 -337.3005135720418 0
3.946713143017071 -368.3457982267505 0
4.21282576714458 -393.1820260804034 0
4.425715866366572 -413.051008355875 0
4.596027946426104 -428.9461942398864 0
4.732277610124812 -441.6623429145338 0
4.841277341102704 -451.8352618560192 0
2.558634734091012 -298.500075942261 0
2.891277802559387 -337.3074835927996 0
3.157392257831407 -368.3534097712245 0
3.370283823162647 -393.190150843838 0
3.540597075363625 -413.0595436944859 0
3.676847677669961 -428.955058038635 0
3.785848159235893 -441.6714694813929 0
3.873048544503783 -451.8445986373672 0
1.918986330883618 -298.50487339524 0
2.168469968707451 -337.3129047532155 0
2.368056879339511 -368.3593298975827 0
2.52772640868038 -393.1964701429362 0
2.655462032105066 -413.0661823317851 0
2.757650531253981 -428.9619521464901 0
2.839401330363761 -441.6785679656939 0
2.904801969662941 -451.8518606228254 0
1.279329118254261 -298.508300163097 0
1.44565217996855 -337.3167770284339 0
1.578710629588645 -368.3635585786822 0
1.685157389841537 -393.2009839487266 0
1.770314798011844 -413.0709242373366 0
1.838440724820869 -428.9668765318463 0
1.892941466128519 -441.6836383348943 0
1.93654205918221 -451.8570477791018 0
0.6396660275289019 -298.5103562301248 0
0.722827749636326 -337.3191004007016 0
0.7893571274465967 -368.3660957951338 0
0.8425806299732224 -393.2036922405113 0
0.8851594319785194 -413.0737693893959 0
0.9192224737191471 -428.9698311721203 0
0.9464729070418643 -441.6866805657414 0
0.9682732537038238 -451.8601600824078 0
3.526045260706628 -274.2328530473177 0
4.157695538877178 -298.4819143997649 0
4.087371847598444 -317.8891818991326 0
4.698229356632026 -337.2869609038637 0
4.536433117503936 -352.8142450110719 0
5.130656411644036 -368.3309981651544 0
4.895682134636519 -380.7542955945764 0
5.47659805746324 -393.1662281040906 0
5.18308134912978 -403.1063361225995 0
5.753351374014589 -413.0344120477765 0
5.413000721085538 -420.9879685731074 0
5.974754028142168 -428.9289592663649 0
5.596936218849954 -435.2932745490518 0
6.151876150990649 -441.6445970086733 0
5.744084616863495 -446.7375193144096 0
6.293573849294038 -451.8171072042866 0
5.861803336456962 -455.8929152186745 0
2.938395784715945 -274.2397792368359 0
3.518082378437696 -298.4901384507187 0
3.406171878474136 -317.8972106990998 0
3.975461347634883 -337.2962541475137 0
3.78039275380739 -352.8231558993962 0
4.341364523676443 -368.3411467629544 0
4.079769455080826 -380.7639121535769 0
4.634087066040902 -393.1770609851989 0
4.319270816755576 -403.1165172181392 0
4.868265099844454 -413.0457923555397 0
4.510871906396337 -420.9986012978807 0
5.055607527637422 -428.9407775154484 0
4.664152778275458 -435.3042685772101 0
5.205481469487991 -441.6567656108135 0
4.786777475613758 -446.7488023852765 0
5.325380622989263 -451.8295560888727 0
4.884877234469933 -455.9044295237119 0
2.350732816314156 -274.2454461625319 0
2.878453063220788 -298.4969918842094 0
2.724956268325199 -317.9037797675303 0
3.252675083578547 -337.3039985824207 0
3.024335030195397 -352.8304466820121 0
3.552052700424239 -368.3496039989875 0
3.263838040497027 -380.7717803075312 0
3.791554795153614 -393.1860884621207 0
3.455440449263136 -403.1248472691619 0
3.983156470865098 -413.0552760251804 0
3.608722376516793 -421.0073008665605 0
4.136437812048033 -428.9506261392607 0
3.731347918452927 -435.313263760014 0
4.259062884680352 -441.6669061979634 0
3.829448351869838 -446.7580340593801 0
4.357162942803244 -451.8399302466932 0
3.907928699391801 -455.9138503908582 0
1.76305905725563 -274.2498537983646 0
2.238810532487315 -298.5024746687505 0
2.043728149795534 -317.9088890742278 0
2.529873885633419 -337.3101941730075 0
2.268263424023481 -352.8361173253991 0
2.762724568585459 -368.3563698344036 0
2.447891644009946 -380.7779000202594 0
2.949005115921513 -393.1933104933871 0
2.591594220392723 -403.1313262373606 0
3.098029553734345 -413.0628630131355 0
2.706556281679523 -421.0140672391376 0
3.217249104461971 -428.9585050925625 0
2.798525930808871 -435.320260056092 0
3.312624744799827 -441.6750187235434 0
2.872101650013351 -446.7652142942596 0
3.388925257083362 -451.8482296300963 0
2.930962225968264 -455.9211777767815 0
1.175377204690769 -274.2530021241228 0
1.599157724568939 -298.5065867791685 0
1.362490649111405 -317.9125385957655 0
1.807061074338001 -337.3148408908247 0
1.512181404778598 -352.840167803558 0
1.973383754464078 -368.3614442381324 0
1.631934009715091 -380.7822712637044 0
2.106441899260958 -393.1987270458314 0
1.72773609392669 -403.1359540930316 0
2.212888415058455 -413.0685532845608 0
1.804377761416356 -421.0189003845915 0
2.298045628037425 -428.9644143391682 0
1.865691095474694 -435.3252574333703 0
2.36617139824614 -441.6811031502941 0
1.914741762655365 -446.7703430569981 0
2.420672014422576 -451.8544542009636 0
1.953982296794122 -455.9264116478904 0
0.5876899512157314 -274.2548911253772 0
0.9594975728915813 -298.5093281966109 0
0.681246888582614 -317.9147283154132 0
1.084239964802438 -337.3179387145677 0
0.7560924385414614 -352.8425980979177 0
1.184033878517621 -368.364827186908 0
0.8159688787099095 -380.7848940178225 0
1.263869009907379 -393.2023380946189 0
0.8638700309758709 -403.1387308149536 0
1.327737114995182 -413.0723468133663 0
0.9021909528488332 -421.0218002807581 0
1.378831599270008 -428.9683538519832 0
0.9328476903805056 -435.3282558689309 0
1.419707186585192 -441.6851594503179 0
0.957373080372844 -446.7734203240746 0
1.452407656443017 -451.8586039307548 0
0.9769933925638254 -455.9295519801814 0
0.3198330137644601 -298.5106989084916 0
0.3614138748181733 -337.319487630015 0
0.3946785637233096 -368.3665186652003 0
0.4212903149866232 -393.2041436231726 0
0.4425797159892724 -413.0742435821375 0
0.4596112368595867 -428.9703236129235 0
0.4732364535209456 -441.6871876049946 0
0.4841366268519257 -451.860678800421 0
$EndNodes
$Elements
12 370 1 370
1 1 8 5
1 1 13 17 
2 13 14 18 
3 14 15 19 
4 15 16 20 
5 16 2 21 
1 2 8 7
6 2 22 28 
7 22 23 29 
8 23 24 30 
9 24 25 31 
10 25 26 32 
11 26 27 33 
12 27 3 34 
1 8 8 7
13 11 88 94 
14 88 89 95 
15 89 90 96 
16 90 91 97 
17 91 92 98 
18 92 93 99 
19 93 12 100 
1 15 8 9
20 3 203 211 
21 203 204 212 
22 204 205 213 
23 205 206 214 
24 206 207 215 
25 207 208 216 
26 208 209 217 
27 209 210 218 
28 210 6 219 
1 16 8 9
29 6 220 228 
30 220 221 229 
31 221 222 230 
32 222 223 231 
33 223 224 232 
34 224 225 233 
35 225 226 234 
36 226 227 235 
37 227 9 236 
1 17 8 9
38 9 237 245 
39 237 238 246 
40 238 239 247 
41 239 240 248 
42 240 241 249 
43 241 242 250 
44 242 243 251 
45 243 244 252 
46 244 12 253 
2 1 16 45
47 1 13 254 101 17 286 287 109 
48 101 254 255 102 287 288 289 110 
49 102 255 256 103 289 290 291 111 
50 103 256 257 104 291 292 293 112 
51 104 257 258 105 293 294 295 113 
52 105 258 259 106 295 296 297 114 
53 106 259 260 107 297 298 299 115 
54 107 260 261 108 299 300 301 116 
55 108 261 35 4 301 302 39 117 
56 13 14 262 254 18 303 304 286 
57 254 262 263 255 304 305 306 288 
58 255 263 264 256 306 307 308 290 
59 256 264 265 257 308 309 310 292 
60 257 265 266 258 310 311 312 294 
61 258 266 267 259 312 313 314 296 
62 259 267 268 260 314 315 316 298 
63 260 268 269 261 316 317 318 300 
64 261 269 36 35 318 319 40 302 
65 14 15 270 262 19 320 321 303 
66 262 270 271 263 321 322 323 305 
67 263 271 272 264 323 324 325 307 
68 264 272 273 265 325 326 327 309 
69 265 273 274 266 327 328 329 311 
70 266 274 275 267 329 330 331 313 
71 267 275 276 268 331 332 333 315 
72 268 276 277 269 333 334 335 317 
73 269 277 37 36 335 336 41 319 
74 15 16 278 270 20 337 338 320 
75 270 278 279 271 338 339 340 322 
76 271 279 280 272 340 341 342 324 
77 272 280 281 273 342 343 344 326 
78 273 281 282 274 344 345 346 328 
79 274 282 283 275 346 347 348 330 
80 275 283 284 276 348 349 350 332 
81 276 284 285 277 350 351 352 334 
82 277 285 38 37 352 353 42 336 
83 16 2 152 278 21 160 354 337 
84 278 152 153 279 354 161 355 339 
85 279 153 154 280 355 162 356 341 
86 280 154 155 281 356 163 357 343 
87 281 155 156 282 357 164 358 345 
88 282 156 157 283 358 165 359 347 
89 283 157 158 284 359 166 360 349 
90 284 158 159 285 360 167 361 351 
91 285 159 5 38 361 168 43 353 
2 2 16 63
92 2 22 362 152 28 410 411 160 
93 152 362 363 153 411 412 413 161 
94 153 363 364 154 413 414 415 162 
95 154 364 365 155 415 416 417 163 
96 155 365 366 156 417 418 419 164 
97 156 366 367 157 419 420 421 165 
98 157 367 368 158 421 422 423 166 
99 158 368 369 159 423 424 425 167 
100 159 369 44 5 425 426 50 168 
101 22 23 370 362 29 427 428 410 
102 362 370 371 363 428 429 430 412 
103 363 371 372 364 430 431 432 414 
104 364 372 373 365 432 433 434 416 
105 365 373 374 366 434 435 436 418 
106 366 374 375 367 436 437 438 420 
107 367 375 376 368 438 439 440 422 
108 368 376 377 369 440 441 442 424 
109 369 377 45 44 442 443 51 426 
110 23 24 378 370 30 444 445 427 
111 370 378 379 371 445 446 447 429 
112 371 379 380 372 447 448 449 431 
113 372 380 381 373 449 450 451 433 
114 373 381 382 374 451 452 453 435 
115 374 382 383 375 453 454 455 437 
116 375 383 384 376 455 456 457 439 
117 376 384 385 377 457 458 459 441 
118 377 385 46 45 459 460 52 443 
119 24 25 386 378 31 461 462 444 
120 378 386 387 379 462 463 464 446 
121 379 387 388 380 464 465 466 448 
122 380 388 389 381 466 467 468 450 
123 381 389 390 382 468 469 470 452 
124 382 390 391 383 470 471 472 454 
125 383 391 392 384 472 473 474 456 
126 384 392 393 385 474 475 476 458 
127 385 393 47 46 476 477 53 460 
128 25 26 394 386 32 478 479 461 
129 386 394 395 387 479 480 481 463 
130 387 395 396 388 481 482 483 465 
131 388 396 397 389 483 484 485 467 
132 389 397 398 390 485 486 487 469 
133 390 398 399 391 487 488 489 471 
134 391 399 400 392 489 490 491 473 
135 392 400 401 393 491 492 493 475 
136 393 401 48 47 493 494 54 477 
137 26 27 402 394 33 495 496 478 
138 394 402 403 395 496 497 498 480 
139 395 403 404 396 498 499 500 482 
140 396 404 405 397 500 501 502 484 
141 397 405 406 398 502 503 504 486 
142 398 406 407 399 504 505 506 488 
143 399 407 408 400 506 507 508 490 
144 400 408 409 401 508 509 510 492 
145 401 409 49 48 510 511 55 494 
146 27 3 203 402 34 211 512 495 
147 402 203 204 403 512 212 513 497 
148 403 204 205 404 513 213 514 499 
149 404 205 206 405 514 214 515 501 
150 405 206 207 406 515 215 516 503 
151 406 207 208 407 516 216 517 505 
152 407 208 209 408 517 217 518 507 
153 408 209 210 409 518 218 519 509 
154 409 210 6 49 519 219 56 511 
2 3 16 45
155 4 35 520 118 39 552 553 126 
156 118 520 521 119 553 554 555 127 
157 119 521 522 120 555 556 557 128 
158 120 522 523 121 557 558 559 129 
159 121 523 524 122 559 560 561 130 
160 122 524 525 123 561 562 563 131 
161 123 525 526 124 563 564 565 132 
162 124 526 527 125 565 566 567 133 
163 125 527 57 7 567 568 61 134 
164 35 36 528 520 40 569 570 552 
165 520 528 529 521 570 571 572 554 
166 521 529 530 522 572 573 574 556 
167 522 530 531 523 574 575 576 558 
168 523 531 532 524 576 577 578 560 
169 524 532 533 525 578 579 580 562 
170 525 533 534 526 580 581 582 564 
171 526 534 535 527 582 583 584 566 
172 527 535 58 57 584 585 62 568 
173 36 37 536 528 41 586 587 569 
174 528 536 537 529 587 588 589 571 
175 529 537 538 530 589 590 591 573 
176 530 538 539 531 591 592 593 575 
177 531 539 540 532 593 594 595 577 
178 532 540 541 533 595 596 597 579 
179 533 541 542 534 597 598 599 581 
180 534 542 543 535 599 600 601 583 
181 535 543 59 58 601 602 63 585 
182 37 38 544 536 42 603 604 586 
183 536 544 545 537 604 605 606 588 
184 537 545 546 538 606 607 608 590 
185 538 546 547 539 608 609 610 592 
186 539 547 548 540 610 611 612 594 
187 540 548 549 541 612 613 614 596 
188 541 549 550 542 614 615 616 598 
189 542 550 551 543 616 617 618 600 
190 543 551 60 59 618 619 64 602 
191 38 5 169 544 43 177 620 603 
192 544 169 170 545 620 178 621 605 
193 545 170 171 546 621 179 622 607 
194 546 171 172 547 622 180 623 609 
195 547 172 173 548 623 181 624 611 
196 548 173 174 549 624 182 625 613 
197 549 174 175 550 625 183 626 615 
198 550 175 176 551 626 184 627 617 
199 551 176 8 60 627 185 65 619 
2 4 16 63
200 5 44 628 169 50 676 677 177 
201 169 628 629 170 677 678 679 178 
202 170 629 630 171 679 680 681 179 
203 171 630 631 172 681 682 683 180 
204 172 631 632 173 683 684 685 181 
205 173 632 633 174 685 686 687 182 
206 174 633 634 175 687 688 689 183 
207 175 634 635 176 689 690 691 184 
208 176 635 66 8 691 692 72 185 
209 44 45 636 628 51 693 694 676 
210 628 636 637 629 694 695 696 678 
211 629 637 638 630 696 697 698 680 
212 630 638 639 631 698 699 700 682 
213 631 639 640 632 700 701 702 684 
214 632 640 641 633 702 703 704 686 
215 633 641 642 634 704 705 706 688 
216 634 642 643 635 706 707 708 690 
217 635 643 67 66 708 709 73 692 
218 45 46 644 636 52 710 711 693 
219 636 644 645 637 711 712 713 695 
220 637 645 646 638 713 714 715 697 
221 638 646 647 639 715 716 717 699 
222 639 647 648 640 717 718 719 701 
223 640 648 649 641 719 720 721 703 
224 641 649 650 642 721 722 723 705 
225 642 650 651 643 723 724 725 707 
226 643 651 68 67 725 726 74 709 
227 46 47 652 644 53 727 728 710 
228 644 652 653 645 728 729 730 712 
229 645 653 654 646 730 731 732 714 
230 646 654 655 647 732 733 734 716 
231 647 655 656 648 734 735 736 718 
232 648 656 657 649 736 737 738 720 
233 649 657 658 650 738 739 740 722 
234 650 658 659 651 740 741 742 724 
235 651 659 69 68 742 743 75 726 
236 47 48 660 652 54 744 745 727 
237 652 660 661 653 745 746 747 729 
238 653 661 662 654 747 748 749 731 
239 654 662 663 655 749 750 751 733 
240 655 663 664 656 751 752 753 735 
241 656 664 665 657 753 754 755 737 
242 657 665 666 658 755 756 757 739 
243 658 666 667 659 757 758 759 741 
244 659 667 70 69 759 760 76 743 
245 48 49 668 660 55 761 762 744 
246 660 668 669 661 762 763 764 746 
247 661 669 670 662 764 765 766 748 
248 662 670 671 663 766 767 768 750 
249 663 671 672 664 768 769 770 752 
250 664 672 673 665 770 771 772 754 
251 665 673 674 666 772 773 774 756 
252 666 674 675 667 774 775 776 758 
253 667 675 71 70 776 777 77 760 
254 49 6 220 668 56 228 778 761 
255 668 220 221 669 778 229 779 763 
256 669 221 222 670 779 230 780 765 
257 670 222 223 671 780 231 781 767 
258 671 223 224 672 781 232 782 769 
259 672 224 225 673 782 233 783 771 
260 673 225 226 674 783 234 784 773 
261 674 226 227 675 784 235 785 775 
262 675 227 9 71 785 236 78 777 
2 5 16 45
263 7 57 786 135 61 818 819 143 
264 135 786 787 136 819 820 821 144 
265 136 787 788 137 821 822 823 145 
266 137 788 789 138 823 824 825 146 
267 138 789 790 139 825 826 827 147 
268 139 790 791 140 827 828 829 148 
269 140 791 792 141 829 830 831 149 
270 141 792 793 142 831 832 833 150 
271 142 793 79 10 833 834 83 151 
272 57 58 794 786 62 835 836 818 
273 786 794 795 787 836 837 838 820 
274 787 795 796 788 838 839 840 822 
275 788 796 797 789 840 841 842 824 
276 789 797 798 790 842 843 844 826 
277 790 798 799 791 844 845 846 828 
278 791 799 800 792 846 847 848 830 
279 792 800 801 793 848 849 850 832 
280 793 801 80 79 850 851 84 834 
281 58 59 802 794 63 852 853 835 
282 794 802 803 795 853 854 855 837 
283 795 803 804 796 855 856 857 839 
284 796 804 805 797 857 858 859 841 
285 797 805 806 798 859 860 861 843 
286 798 806 807 799 861 862 863 845 
287 799 807 808 800 863 864 865 847 
288 800 808 809 801 865 866 867 849 
289 801 809 81 80 867 868 85 851 
290 59 60 810 802 64 869 870 852 
291 802 810 811 803 870 871 872 854 
292 803 811 812 804 872 873 874 856 
293 804 812 813 805 874 875 876 858 
294 805 813 814 806 876 877 878 860 
295 806 814 815 807 878 879 880 862 
296 807 815 816 808 880 881 882 864 
297 808 816 817 809 882 883 884 866 
298 809 817 82 81 884 885 86 868 
299 60 8 186 810 65 194 886 869 
300 810 186 187 811 886 195 887 871 
301 811 187 188 812 887 196 888 873 
302 812 188 189 813 888 197 889 875 
303 813 189 190 814 889 198 890 877 
304 814 190 191 815 890 199 891 879 
305 815 191 192 816 891 200 892 881 
306 816 192 193 817 892 201 893 883 
307 817 193 11 82 893 202 87 885 
2 6 16 63
308 8 66 894 186 72 942 943 194 
309 186 894 895 187 943 944 945 195 
310 187 895 896 188 945 946 947 196 
311 188 896 897 189 947 948 949 197 
312 189 897 898 190 949 950 951 198 
313 190 898 899 191 951 952 953 199 
314 191 899 900 192 953 954 955 200 
315 192 900 901 193 955 956 957 201 
316 193 901 88 11 957 958 94 202 
317 66 67 902 894 73 959 960 942 
318 894 902 903 895 960 961 962 944 
319 895 903 904 896 962 963 964 946 
320 896 904 905 897 964 965 966 948 
321 897 905 906 898 966 967 968 950 
322 898 906 907 899 968 969 970 952 
323 899 907 908 900 970 971 972 954 
324 900 908 909 901 972 973 974 956 
325 901 909 89 88 974 975 95 958 
326 67 68 910 902 74 976 977 959 
327 902 910 911 903 977 978 979 961 
328 903 911 912 904 979 980 981 963 
329 904 912 913 905 981 982 983 965 
330 905 913 914 906 983 984 985 967 
331 906 914 915 907 985 986 987 969 
332 907 915 916 908 987 988 989 971 
333 908 916 917 909 989 990 991 973 
334 909 917 90 89 991 992 96 975 
335 68 69 918 910 75 993 994 976 
336 910 918 919 911 994 995 996 978 
337 911 919 920 912 996 997 998 980 
338 912 920 921 913 998 999 1000 982 
339 913 921 922 914 1000 1001 1002 984 
340 914 922 923 915 1002 1003 1004 986 
341 915 923 924 916 1004 1005 1006 988 
342 916 924 925 917 1006 1007 1008 990 
343 917 925 91 90 1008 1009 97 992 
344 69 70 926 918 76 1010 1011 993 
345 918 926 927 919 1011 1012 1013 995 
346 919 927 928 920 1013 1014 1015 997 
347 920 928 929 921 1015 1016 1017 999 
348 921 929 930 922 1017 1018 1019 1001 
349 922 930 931 923 1019 1020 1021 1003 
350 923 931 932 924 1021 1022 1023 1005 
351 924 932 933 925 1023 1024 1025 1007 
352 925 933 92 91 1025 1026 98 1009 
353 70 71 934 926 77 1027 1028 1010 
354 926 934 935 927 1028 1029 1030 1012 
355 927 935 936 928 1030 1031 1032 1014 
356 928 936 937 929 1032 1033 1034 1016 
357 929 937 938 930 1034 1035 1036 1018 
358 930 938 939 931 1036 1037 1038 1020 
359 931 939 940 932 1038 1039 1040 1022 
360 932 940 941 933 1040 1041 1042 1024 
361 933 941 93 92 1042 1043 99 1026 
362 71 9 237 934 78 245 1044 1027 
363 934 237 238 935 1044 246 1045 1029 
364 935 238 239 936 1045 247 1046 1031 
365 936 239 240 937 1046 248 1047 1033 
366 937 240 241 938 1047 249 1048 1035 
367 938 241 242 939 1048 250 1049 1037 
368 939 242 243 940 1049 251 1050 1039 
369 940 243 244 941 1050 252 1051 1041 
370 941 244 12 93 1051 253 100 1043 
$EndElements
