1 1389 1425 1339 1305 1403 1381 1319 1348
2 1425 1452 1363 1339 1434 1408 1351 1381
3 1452 1481 1399 1363 1469 1436 1385 1408
4 1481 1506 1429 1399 1492 1471 1410 1436
5 1506 1522 1453 1429 1515 1489 1438 1471
6 1522 1544 1477 1453 1532 1510 1468 1489
7 1544 1557 1490 1477 1551 1525 1483 1510
8 1557 1564 1508 1490 1561 1541 1500 1525
9 1564 1575 1518 1508 1570 1553 1511 1541
10 1575 1579 1527 1518 1577 1559 1521 1553
11 1579 1583 1530 1527 1581 1563 1528 1559
12 1583 1587 1535 1530 1585 1565 1534 1563
13 1587 1591 1538 1535 1589 1568 1536 1565
14 1591 1595 1540 1538 1593 1569 1539 1568
15 1595 1596 1546 1540 1597 1571 1543 1569
16 1596 1592 1550 1546 1594 1573 1548 1571
17 1592 1588 1556 1550 1590 1574 1555 1573
18 1588 1584 1547 1556 1586 1567 1549 1574
19 1584 1580 1529 1547 1582 1560 1537 1567
20 1580 1576 1520 1529 1578 1554 1524 1560
21 1576 1566 1509 1520 1572 1542 1514 1554
22 1566 1558 1494 1509 1562 1526 1504 1542
23 1558 1545 1480 1494 1552 1513 1485 1526
24 1545 1523 1470 1480 1533 1497 1476 1513
25 1523 1507 1437 1470 1516 1475 1455 1497
26 1507 1482 1406 1437 1493 1440 1427 1475
27 1482 1454 1375 1406 1472 1413 1394 1440
28 1454 1426 1341 1375 1435 1382 1356 1413
29 1426 1390 1302 1341 1404 1345 1318 1382
30 1390 1350 1269 1302 1370 1306 1284 1345
31 1350 1312 1234 1269 1332 1273 1252 1306
32 1312 1272 1202 1234 1288 1235 1216 1273
33 1349 1389 1305 1278 1367 1348 1290 1313
34 1310 1349 1278 1241 1331 1313 1259 1277
35 1271 1310 1241 1206 1289 1277 1220 1236
36 1231 1271 1206 1163 1254 1236 1185 1199
37 1192 1231 1163 1122 1210 1199 1143 1155
38 1149 1192 1122 1087 1168 1155 1103 1112
39 1107 1149 1087 1049 1129 1112 1070 1081
40 1072 1107 1049 1015 1089 1081 1035 1042
41 1032 1072 1015 987 1051 1042 1002 1011
42 993 1032 987 951 1012 1011 965 970
43 953 993 951 910 973 970 926 927
44 917 953 910 870 932 927 886 887
45 875 917 870 836 892 887 855 857
46 838 875 836 808 858 857 823 825
47 800 838 808 769 821 825 786 782
48 758 800 769 717 774 782 745 734
49 708 758 717 674 727 734 698 690
50 669 708 674 635 683 690 655 650
51 626 669 635 598 647 650 616 613
52 589 626 598 546 607 613 574 570
53 541 589 546 504 563 570 525 523
54 496 541 504 459 518 523 485 478
55 451 496 459 416 471 478 437 434
56 404 451 416 373 430 434 391 388
57 350 404 373 340 377 388 361 345
58 306 350 340 314 329 345 328 310
59 271 306 314 278 287 310 295 277
60 242 271 278 246 254 277 261 243
61 213 242 246 214 223 243 225 211
62 188 213 214 187 199 211 198 186
63 157 188 187 153 169 186 168 154
64 121 157 153 115 140 154 136 117
65 88 121 115 82 103 117 100 83
66 55 88 82 58 72 83 71 53
67 33 55 58 38 44 53 47 32
68 13 33 38 19 22 32 26 15
69 2 13 19 9 7 15 11 4
70 3 2 9 10 1 4 8 5
71 14 3 10 20 6 5 12 17
72 34 14 20 39 24 17 30 36
73 56 34 39 63 45 36 51 60
74 89 56 63 94 73 60 75 90
75 123 89 94 126 104 90 106 124
76 158 123 126 150 141 124 138 155
77 189 158 150 179 171 155 165 182
78 215 189 179 204 200 182 194 209
79 244 215 204 238 224 209 220 239
80 272 244 238 263 257 239 251 265
81 307 272 263 304 289 265 285 303
82 351 307 304 339 330 303 324 342
83 405 351 339 372 378 342 357 387
84 452 405 372 419 431 387 395 435
85 497 452 419 468 472 435 447 487
86 543 497 468 517 519 487 494 527
87 590 543 517 561 566 527 540 575
88 627 590 561 605 608 575 585 617
89 670 627 605 641 648 617 621 654
90 709 670 641 678 684 654 663 694
91 759 709 678 719 728 694 700 736
92 802 759 719 765 775 736 744 779
93 839 802 765 806 822 779 784 824
94 876 839 806 844 859 824 828 863
95 918 876 844 881 893 863 866 898
96 954 918 881 919 933 898 900 936
97 994 954 919 946 974 936 931 966
98 1033 994 946 979 1013 966 961 1004
99 1073 1033 979 1019 1052 1004 999 1044
100 1108 1073 1019 1057 1090 1044 1038 1083
101 1150 1108 1057 1094 1131 1083 1077 1118
102 1193 1150 1094 1125 1169 1118 1106 1156
103 1232 1193 1125 1159 1211 1156 1144 1198
104 1272 1232 1159 1202 1253 1198 1181 1235
105 729 749 819 801 743 781 809 770
106 749 746 814 819 750 777 816 781
107 704 729 801 766 720 770 778 732
108 746 722 805 814 730 767 810 777
109 722 692 776 805 707 731 792 767
110 672 704 766 718 687 732 741 695
111 629 672 718 665 652 695 689 646
112 582 629 665 609 606 646 637 597
113 526 582 609 542 554 597 577 533
114 480 526 542 469 502 533 507 473
115 439 480 469 407 458 473 440 421
116 415 439 407 367 424 421 386 390
117 692 656 748 776 675 699 762 731
118 656 611 706 748 634 658 724 699
119 412 415 367 352 411 390 360 384
120 428 412 352 365 418 384 359 394
121 460 428 365 396 444 394 379 433
122 506 460 396 449 486 433 422 477
123 555 506 449 513 528 477 484 536
124 611 555 513 594 587 536 552 599
125 706 611 594 673 658 599 633 688
126 1302 1269 1197 1226 1284 1233 1212 1263
127 1269 1234 1160 1197 1252 1200 1177 1233
128 1234 1202 1134 1160 1216 1166 1148 1200
129 1341 1302 1226 1261 1318 1263 1242 1297
130 1202 1159 1100 1134 1181 1130 1111 1166
131 1159 1125 1069 1100 1144 1096 1084 1130
132 1125 1094 1037 1069 1106 1068 1054 1096
133 1094 1057 1009 1037 1077 1034 1022 1068
134 1057 1019 964 1009 1038 997 986 1034
135 1019 979 923 964 999 950 942 997
136 1375 1341 1261 1294 1356 1297 1279 1335
137 979 946 902 923 961 925 914 950
138 946 919 888 902 931 905 897 925
139 919 881 861 888 900 871 874 905
140 881 844 817 861 866 832 837 871
141 844 806 772 817 828 789 795 832
142 806 765 733 772 784 751 757 789
143 765 719 696 733 744 703 712 751
144 719 678 657 696 700 667 676 703
145 678 641 619 657 663 628 638 667
146 641 605 586 619 621 596 601 628
147 605 561 544 586 585 553 564 596
148 561 517 503 544 540 509 524 553
149 517 468 456 503 494 461 481 509
150 468 419 399 456 447 409 429 461
151 419 372 331 399 395 347 364 409
152 372 339 304 331 357 324 317 347
153 304 263 276 331 285 268 299 317
154 263 238 231 276 251 232 252 268
155 238 204 196 231 220 201 212 232
156 204 179 167 196 194 173 184 201
157 179 150 149 167 165 148 162 173
158 150 126 135 149 138 130 144 148
159 126 94 102 135 106 99 116 130
160 94 63 76 102 75 70 92 99
161 63 39 52 76 51 48 65 70
162 39 20 37 52 30 28 43 48
163 20 10 21 37 12 16 29 28
164 10 9 27 21 8 18 23 16
165 9 19 35 27 11 25 31 18
166 19 38 50 35 26 42 40 25
167 38 58 69 50 47 62 54 42
168 58 82 93 69 71 86 78 62
169 82 115 122 93 100 118 105 86
170 115 153 159 122 136 156 142 118
171 153 187 195 159 168 191 176 156
172 187 214 219 195 198 217 207 191
173 214 246 250 219 225 247 234 217
174 246 278 292 250 261 283 267 247
175 278 314 335 292 295 323 313 283
176 314 340 373 335 328 361 353 323
177 1406 1375 1294 1340 1394 1335 1315 1374
178 1437 1406 1340 1383 1427 1374 1359 1409
179 1470 1437 1383 1423 1455 1409 1401 1439
180 1480 1470 1423 1412 1476 1439 1417 1444
181 1494 1480 1412 1428 1485 1444 1421 1466
182 1509 1494 1428 1442 1504 1466 1431 1479
183 1520 1509 1442 1450 1514 1479 1446 1487
184 1529 1520 1450 1467 1524 1487 1462 1499
185 1547 1529 1467 1486 1537 1499 1478 1517
186 1556 1547 1486 1512 1549 1517 1502 1531
187 1550 1556 1512 1488 1555 1531 1503 1519
188 1546 1550 1488 1460 1548 1519 1474 1505
189 1540 1546 1460 1443 1543 1505 1448 1495
190 1538 1540 1443 1449 1539 1495 1445 1496
191 1535 1538 1449 1464 1536 1496 1456 1501
192 1530 1535 1464 1465 1534 1501 1463 1498
193 1527 1530 1465 1459 1528 1498 1461 1491
194 1518 1527 1459 1441 1521 1491 1447 1484
195 1508 1518 1441 1430 1511 1484 1433 1473
196 1490 1508 1430 1411 1500 1473 1424 1451
197 1477 1490 1411 1400 1483 1451 1402 1432
198 1453 1477 1400 1384 1468 1432 1391 1418
199 1429 1453 1384 1352 1438 1418 1362 1393
200 1399 1429 1352 1314 1410 1393 1333 1355
201 1363 1399 1314 1283 1385 1355 1298 1323
202 1339 1363 1283 1258 1351 1323 1270 1295
203 1305 1339 1258 1238 1319 1295 1250 1274
204 1278 1305 1238 1218 1290 1274 1229 1249
205 1241 1278 1218 1188 1259 1249 1205 1214
206 1206 1241 1188 1145 1220 1214 1164 1171
207 1163 1206 1145 1101 1185 1171 1121 1133
208 1122 1163 1101 1065 1143 1133 1082 1092
209 1087 1122 1065 1027 1103 1092 1043 1058
210 1049 1087 1027 985 1070 1058 1008 1016
211 1015 1049 985 962 1035 1016 978 991
212 987 1015 962 956 1002 991 959 972
213 951 987 956 920 965 972 939 935
214 910 951 920 869 926 935 891 885
215 870 910 869 829 886 885 850 851
216 836 870 829 796 855 851 813 818
217 808 836 796 780 823 818 790 794
218 769 808 780 747 786 794 763 756
219 717 769 747 681 745 756 710 702
220 674 717 681 644 698 702 664 661
221 635 674 644 603 655 661 622 620
222 598 635 603 560 616 620 584 580
223 546 598 560 515 574 580 538 531
224 504 546 515 466 525 531 493 489
225 373 416 375 335 391 392 354 353
226 416 459 420 375 437 442 400 392
227 459 504 466 420 485 489 448 442
228 594 513 467 565 552 491 516 579
229 513 449 382 467 484 417 427 491
230 449 396 320 382 422 356 344 417
231 396 365 294 320 379 326 301 356
232 365 352 288 294 359 318 290 326
233 352 367 300 288 360 334 296 318
234 367 407 348 300 386 376 325 334
235 407 469 463 348 440 464 410 376
236 469 542 559 463 507 547 512 464
237 542 609 643 559 577 624 602 547
238 609 665 715 643 637 686 677 624
239 665 718 788 715 689 755 753 686
240 718 766 833 788 741 803 812 755
241 766 801 877 833 778 840 856 803
242 801 819 912 877 809 865 890 840
243 819 814 911 912 816 864 909 865
244 814 805 901 911 810 854 904 864
245 805 776 872 901 792 830 883 854
246 776 748 846 872 762 798 860 830
247 748 706 841 846 724 773 842 798
248 841 706 673 783 773 688 723 811
249 594 565 636 673 579 600 653 633
250 219 250 222 195 234 237 208 207
251 292 335 375 332 313 354 349 309
252 250 292 332 293 267 309 311 266
253 375 420 385 332 400 402 355 349
254 420 466 438 385 448 453 413 402
255 466 515 490 438 493 501 462 453
256 515 560 530 490 538 545 510 501
257 560 603 572 530 584 588 549 545
258 603 644 612 572 622 625 591 588
259 644 681 649 612 664 666 630 625
260 681 747 737 649 710 739 691 666
261 747 780 796 737 763 790 771 739
262 796 829 768 737 813 797 752 771
263 920 956 962 903 939 959 934 913
264 962 985 915 903 978 949 908 934
265 980 1027 1065 1000 1003 1043 1031 990
266 1065 1101 1045 1000 1082 1075 1025 1031
267 1101 1145 1095 1045 1121 1116 1074 1075
268 1145 1188 1146 1095 1164 1165 1117 1116
269 1188 1218 1183 1146 1205 1203 1161 1165
270 1218 1238 1184 1183 1229 1209 1182 1203
271 1238 1258 1189 1184 1250 1221 1187 1209
272 1258 1283 1208 1189 1270 1246 1201 1221
273 1283 1314 1244 1208 1298 1280 1222 1246
274 1291 1352 1384 1329 1320 1362 1354 1311
275 1450 1442 1395 1378 1446 1419 1386 1414
276 1467 1450 1378 1368 1462 1414 1373 1416
277 1442 1428 1360 1395 1431 1397 1377 1419
278 1428 1412 1330 1360 1421 1371 1343 1397
279 1412 1423 1383 1330 1417 1401 1353 1371
280 1383 1340 1275 1330 1359 1303 1299 1353
281 1340 1294 1219 1275 1315 1257 1248 1303
282 1294 1261 1196 1219 1279 1224 1207 1257
283 1261 1226 1157 1196 1242 1194 1172 1224
284 1226 1197 1132 1157 1212 1162 1147 1194
285 1197 1160 1098 1132 1177 1128 1109 1162
286 1160 1134 1076 1098 1148 1102 1086 1128
287 1134 1100 1040 1076 1111 1071 1061 1102
288 1100 1069 1006 1040 1084 1036 1024 1071
289 1069 1037 981 1006 1054 1010 996 1036
290 1037 1009 967 981 1022 988 976 1010
291 1009 964 924 967 986 943 944 988
292 964 923 843 924 942 879 880 943
293 923 902 848 843 914 873 845 879
294 902 888 861 848 897 874 853 873
295 861 817 785 848 837 804 820 853
296 817 772 740 785 795 760 764 804
297 772 733 716 740 757 725 726 760
298 733 696 679 716 712 685 701 725
299 696 657 639 679 676 645 662 685
300 657 619 592 639 638 604 614 645
301 619 586 571 592 601 578 581 604
302 586 544 535 571 564 539 551 578
303 544 503 498 535 524 500 514 539
304 503 456 455 498 481 454 476 500
305 1486 1467 1368 1422 1478 1416 1398 1457
306 1512 1486 1422 1488 1502 1457 1458 1503
307 1460 1488 1422 1316 1474 1458 1364 1388
308 1443 1460 1316 1321 1448 1388 1317 1387
309 1449 1443 1321 1334 1445 1387 1327 1396
310 1464 1449 1334 1358 1456 1396 1346 1407
311 1465 1464 1358 1380 1463 1407 1365 1420
312 1459 1465 1380 1376 1461 1420 1379 1415
313 1441 1459 1376 1369 1447 1415 1372 1405
314 1430 1441 1369 1347 1433 1405 1357 1392
315 1411 1430 1347 1325 1424 1392 1337 1366
316 1400 1411 1325 1322 1402 1366 1324 1361
317 1384 1400 1322 1329 1391 1361 1326 1354
318 456 399 398 455 429 397 426 454
319 399 331 343 398 364 336 371 397
320 331 276 286 343 299 280 315 336
321 276 231 233 286 252 228 259 280
322 231 196 181 233 212 190 206 228
323 196 167 151 181 184 161 166 190
324 167 149 135 151 162 144 143 161
325 135 102 125 151 116 110 137 143
326 102 76 95 125 92 81 107 110
327 76 52 80 95 65 68 87 81
328 52 37 57 80 43 46 67 68
329 37 21 27 57 29 23 41 46
330 27 35 64 57 31 49 59 41
331 35 50 74 64 40 61 66 49
332 50 69 91 74 54 77 79 61
333 69 93 101 91 78 97 96 77
334 93 122 133 101 105 128 114 97
335 122 159 172 133 142 164 147 128
336 159 195 222 172 176 208 197 164
337 846 841 948 955 842 889 952 899
338 872 846 955 992 860 899 971 928
339 901 872 992 1056 883 928 1021 977
340 911 901 1056 1041 904 977 1046 975
341 912 911 1041 1063 909 975 1048 982
342 877 912 1063 989 890 982 1020 929
343 833 877 989 896 856 929 940 867
344 788 833 896 878 812 867 884 834
345 715 788 878 791 753 834 835 754
346 643 715 791 697 677 754 742 668
347 559 643 697 595 602 668 642 576
348 463 559 595 475 512 576 532 465
349 348 463 475 370 410 465 423 358
350 382 320 253 308 344 282 279 338
351 467 382 308 436 427 338 369 450
352 565 467 436 556 516 450 499 557
353 320 294 235 253 301 262 245 282
354 294 288 229 235 290 258 230 262
355 288 300 240 229 296 264 236 258
356 300 348 260 240 325 298 249 264
357 571 535 537 592 551 534 562 581
358 985 1027 980 915 1008 1003 945 949
359 1208 1244 1186 1137 1222 1213 1158 1170
360 1189 1208 1137 1113 1201 1170 1127 1153
361 151 125 139 181 137 132 160 166
362 1316 1422 1368 1225 1364 1398 1293 1268
363 1321 1316 1173 1179 1317 1243 1176 1251
364 1334 1321 1179 1204 1327 1251 1191 1264
365 1358 1334 1204 1262 1346 1264 1230 1307
366 1380 1358 1262 1309 1365 1307 1285 1344
367 869 920 903 831 891 913 868 852
368 829 869 831 768 850 852 799 797
369 1376 1380 1309 1292 1379 1344 1301 1336
370 1369 1376 1292 1308 1372 1336 1300 1342
371 1347 1369 1308 1265 1357 1342 1286 1304
372 1325 1347 1265 1237 1337 1304 1255 1281
373 1322 1325 1237 1256 1324 1281 1247 1287
374 1237 1119 1186 1256 1174 1151 1217 1247
375 1000 1045 995 930 1025 1017 960 963
376 1045 1095 1064 995 1074 1079 1026 1017
377 1329 1322 1256 1291 1326 1287 1276 1311
378 1352 1291 1244 1314 1320 1267 1280 1333
379 1256 1186 1244 1291 1217 1213 1267 1276
380 260 348 370 284 298 358 322 269
381 332 385 346 293 355 366 319 311
382 385 438 414 346 413 425 383 366
383 438 490 470 414 462 483 445 425
384 490 530 511 470 510 521 492 483
385 530 572 529 511 549 548 520 521
386 572 612 573 529 591 593 550 548
387 612 649 568 573 630 610 569 593
388 737 768 671 649 752 713 660 691
389 948 841 930 995 889 882 960 968
390 980 1000 930 915 990 963 922 945
391 233 181 139 202 206 160 170 216
392 95 80 139 125 87 109 132 107
393 286 233 284 333 259 255 302 305
394 343 286 333 403 315 305 368 374
395 455 398 343 403 426 371 374 432
396 498 455 537 535 476 495 534 514
397 565 556 671 636 557 618 651 600
398 556 436 482 568 499 457 522 558
399 568 649 671 556 610 660 618 558
400 573 568 482 529 569 522 505 550
401 673 636 671 783 653 651 721 723
402 903 915 783 831 908 849 807 868
403 80 57 119 139 67 84 129 109
404 57 64 112 119 59 85 111 84
405 64 74 120 112 66 98 113 85
406 74 91 134 120 79 108 127 98
407 91 101 133 134 96 114 131 108
408 133 172 193 134 147 180 163 131
409 172 222 241 193 197 227 218 180
410 222 250 293 274 237 266 281 248
411 1360 1330 1239 1296 1343 1282 1266 1328
412 1330 1275 1215 1239 1299 1245 1227 1282
413 1275 1219 1141 1215 1248 1180 1175 1245
414 1219 1196 1142 1141 1207 1167 1140 1180
415 1395 1360 1296 1378 1377 1328 1338 1386
416 1368 1378 1296 1225 1373 1338 1260 1293
417 1196 1157 1099 1142 1172 1126 1114 1167
418 1157 1132 1085 1099 1147 1104 1091 1126
419 1132 1098 1030 1085 1109 1067 1059 1104
420 1098 1076 1029 1030 1086 1053 1028 1067
421 1076 1040 984 1029 1061 1014 1007 1053
422 1040 1006 938 984 1024 969 958 1014
423 1006 981 906 938 996 941 921 969
424 981 967 924 906 976 944 916 941
425 924 843 787 906 880 815 847 916
426 848 785 735 843 820 761 793 845
427 785 740 693 735 764 714 711 761
428 740 716 679 693 726 701 682 714
429 693 679 639 623 682 662 631 659
430 229 240 185 175 236 210 177 203
431 235 229 175 178 230 203 174 205
432 134 193 178 120 163 183 146 127
433 235 178 193 253 205 183 221 245
434 120 178 175 112 146 174 145 113
435 112 175 185 119 145 177 152 111
436 240 260 202 185 249 226 192 210
437 284 370 393 333 322 381 362 302
438 119 185 202 139 152 192 170 129
439 370 475 488 393 423 479 443 381
440 488 403 333 393 446 368 362 443
441 475 595 640 488 532 615 567 479
442 595 697 787 640 642 738 705 615
443 697 791 862 787 742 827 826 738
444 787 843 735 640 815 793 680 705
445 735 693 623 640 711 659 632 680
446 455 403 488 537 432 446 508 495
447 787 862 938 906 826 895 921 847
448 488 640 623 537 567 632 583 508
449 592 537 623 639 562 583 631 614
450 791 878 937 862 835 907 894 827
451 938 862 937 984 895 894 957 958
452 1029 984 937 1030 1007 957 983 1028
453 937 878 1018 1030 907 947 1023 983
454 1085 1030 1018 1099 1059 1023 1060 1091
455 1142 1099 1018 1141 1114 1060 1078 1140
456 1018 989 1139 1141 1001 1066 1138 1078
457 1139 1239 1215 1141 1190 1227 1175 1138
458 989 1063 1225 1139 1020 1136 1178 1066
459 1239 1139 1225 1296 1190 1178 1260 1266
460 1173 1063 1041 1179 1110 1048 1105 1176
461 1041 1056 1204 1179 1046 1123 1191 1105
462 1119 1237 1265 1195 1174 1255 1228 1154
463 1265 1308 1292 1195 1286 1300 1240 1228
464 1195 1056 992 1119 1115 1021 1055 1154
465 1292 1309 1262 1195 1301 1285 1223 1240
466 992 955 1062 1119 971 1005 1088 1055
467 1062 955 948 1039 1005 952 998 1047
468 1186 1119 1062 1137 1151 1088 1097 1158
469 948 995 1064 1039 968 1026 1050 998
470 253 193 241 308 221 218 270 279
471 436 308 316 380 369 312 341 408
472 1095 1146 1124 1064 1117 1135 1093 1079
473 1146 1183 1184 1124 1161 1182 1152 1135
474 1039 1064 1124 1113 1050 1093 1120 1080
475 1124 1184 1189 1113 1152 1187 1153 1120
476 511 529 482 470 520 505 474 492
477 316 308 241 275 312 270 256 291
478 241 222 274 275 227 248 273 256
479 274 293 346 327 281 319 337 297
480 414 470 482 401 445 474 441 406
481 346 414 401 327 383 406 363 337
482 275 274 327 316 273 297 321 291
483 316 327 401 380 321 363 389 341
484 401 482 436 380 441 457 408 389
485 671 768 831 783 713 799 807 721
486 1018 878 896 989 947 884 940 1001
487 202 260 284 233 226 269 255 216
488 1039 1113 1137 1062 1080 1127 1097 1047
489 783 915 930 841 849 922 882 811
490 1225 1063 1173 1316 1136 1110 1243 1268
491 1195 1262 1204 1056 1223 1230 1123 1115
