    1      20.2254249      14.6946313               0
    2      23.7764129      7.72542484               0
    3      14.6946313      20.2254248               0
    4       18.698295      5.68930547               0
    5      12.5546662       7.9341016               0
    6      7.76992054      15.8680584               0
    7       19.763806      1.40838996               0
    8              25 -1.44859204e-08               0
    9      7.72542491      23.7764129               0
   10      5.56578139      19.9184246               0
   11      15.3606616     -1.48090347               0
   12      1.33036212      20.0392307               0
   13               5 -2.89718091e-09               0
   14     -1.57469503      15.1992676               0
   15               0               5               0
   16      23.7764129     -7.72542486               0
   17               0              25               0
   18      15.0928206     -9.01273587               0
   19      9.69237537     -10.8626728               0
   20 -5.79437535e-09              -5               0
   21              -5  8.75524737e-09               0
   22     -8.92297995      11.0714139               0
   23      20.2254248     -14.6946313               0
   24     -7.72542485      23.7764129               0
   25      3.73626613     -14.0994388               0
   26     -14.3053255      8.77717927               0
   27     -14.6946313      20.2254249               0
   28      14.6946313     -20.2254249               0
   29     -7.46668234     -8.45453879               0
   30     -13.7675717     0.565492584               0
   31     -2.90508475     -16.3253079               0
   32     -20.2254248      14.6946313               0
   33      7.72542481     -23.7764129               0
   34     -7.94455807     -17.6191404               0
   35     -17.9754341     -5.17691687               0
   36     -13.2031646     -12.7557004               0
   37     -23.7764129      7.72542489               0
   38 -2.89718981e-08             -25               0
   39     -19.8480878     -8.31641321               0
   40     -17.7588924     -11.9222483               0
   41     -7.72542487     -23.7764129               0
   42             -25  4.37762503e-08               0
   43     -14.6946313     -20.2254249               0
   44     -23.7764129     -7.72542481               0
   45     -20.2254249     -14.6946313               0
