    1      3.01341704      24.8177218               0
    2      2.95892686       23.308879               0
    3      4.50637599      24.5904977               0
    4      1.50946246      24.9543889               0
    5      1.65097931      23.2932931               0
    6      4.23691367       22.989197               0
    7      3.07835758      22.1479145               0
    8      5.98289165      24.2735454               0
    9               0              25               0
   10     0.235482597      23.2559956               0
   11      2.17823977      21.6634322               0
   12      5.75698458      22.6503682               0
   13       4.0979061      21.4714324               0
   14     0.661510998      21.4590386               0
   15      7.43757639      23.8680216               0
   16     -1.50946244      24.9543889               0
   17     -1.28376655      23.2375543               0
   18      5.72758335      21.0915412               0
   19      7.14068439      22.3094988               0
   20       3.5574811      19.7760405               0
   21     -1.00341483      21.4671915               0
   22      7.06411701      20.8751079               0
   23      1.23573646      19.4495352               0
   24      -2.7298884      23.1436078               0
   25      8.86512222      23.3754061               0
   26       -3.013417      24.8177219               0
   27      5.90932826      19.4753232               0
   28      8.53244508      21.8993062               0
   29     -2.47672379      21.4836588               0
   30      7.07038513      19.7748777               0
   31    -0.756535399      19.5336094               0
   32      8.34966982      20.5352511               0
   33     -2.42195963      19.8776301               0
   34     -4.12403028      22.9717236               0
   35      10.2603202      22.7974961               0
   36     -4.50637594      24.5904977               0
   37      -3.7516323      21.4462057               0
   38      9.87186906      21.4930505               0
   39      8.15571268      19.0802686               0
   40       4.2271585       16.998843               0
   41     -3.47841175       20.242478               0
   42       1.5943054      16.9629447               0
   43      9.64640451      20.2863215               0
   44    -0.819819319       17.308413               0
   45      7.13525316      17.3468422               0
   46       -5.490382      22.5699669               0
   47      11.0232311      21.0245378               0
   48      10.6037968      20.2138154               0
   49     -4.98492688      20.9137282               0
   50      9.77237557      18.9453604               0
   51      11.6180793      22.1364006               0
   52      -5.9828916      24.2735454               0
   53     -2.94310682       17.983438               0
   54     -4.29841677      19.3369459               0
   55      11.0666233      19.3697805               0
   56       12.045677      20.2673637               0
   57     -6.95324236      22.0613565               0
   58       9.9366312      17.1308821               0
   59      12.9334454      21.3945318               0
   60     -7.43757634      23.8680217               0
   61     -6.43604992       20.235142               0
   62      1.57211262       14.244995               0
   63      4.47498405      13.9975533               0
   64     -1.19775309      14.6457936               0
   65     -5.79740066      18.1270609               0
   66       11.844644      18.0525826               0
   67      13.1299147      19.2723094               0
   68      7.44743514       14.048894               0
   69     -4.23223158       15.410763               0
   70     -8.44896118      21.5722955               0
   71      14.2016187      20.5745966               0
   72     -8.86512217      23.3754061               0
   73       -8.196391      19.6836674               0
   74      12.8872692      16.4222866               0
   75      14.2837547       18.161183               0
   76      10.8476418       14.266752               0
   77     -9.86094343      21.1166794               0
   78      15.4179718       19.679587               0
   79     -10.2603201      22.7974962               0
   80      1.40328054      11.3469002               0
   81     -9.56508953      19.7322544               0
   82     -8.33546338      17.1949779               0
   83     -1.31107407      11.6190033               0
   84      4.22447349      10.9575483               0
   85     -7.19342216      14.3883692               0
   86      7.09851928      10.7016412               0
   87      15.5821542      17.1171696               0
   88      16.5780665      18.7127687               0
   89     -11.6180793      22.1364006               0
   90     -11.2094589      20.3708669               0
   91     -4.12845443      11.6481331               0
   92      14.5730361      15.2086288               0
   93     -10.7117767      18.3226994               0
   94      13.2823358      12.9503101               0
   95       10.089174      10.7247359               0
   96     -8.89442419       13.944739               0
   97     -9.97344036      15.1686038               0
   98      1.08693742      8.63405872               0
   99      16.8884504      16.2488079               0
  100      17.6776696      17.6776695               0
  101     -12.9334453      21.3945318               0
  102     -12.7320526      19.8524755               0
  103     -1.30173923      8.81406001               0
  104      3.64360993      8.05647656               0
  105     -11.6621242      16.0893834               0
  106     -12.7867477      18.2260147               0
  107       16.434483      14.1885725               0
  108      12.5086859      10.3156393               0
  109      17.9403059       15.854528               0
  110     -7.45537786      10.8864408               0
  111     -3.62335789      8.49978101               0
  112      15.1999794      12.0102204               0
  113     -9.51641006      12.2772439               0
  114      18.7127687      16.5780664               0
  115     -14.2016187      20.5745967               0
  116     -14.0613142      19.4320379               0
  117      6.60257131      7.04990196               0
  118     -11.1134098      13.3331093               0
  119      18.2609102      14.7073037               0
  120     -13.4085489      16.5121748               0
  121     0.571808495      6.53428326               0
  122      9.90184908      7.61491107               0
  123     -14.3479806      18.1967227               0
  124      2.56102618      6.09196793               0
  125     -1.35946237      6.50339706               0
  126       -15.01491      19.1345275               0
  127     -12.6786767      14.2686847               0
  128      17.5242867      12.4646328               0
  129       16.499446      11.3320953               0
  130       19.679587      15.4179718               0
  131     -15.4179718       19.679587               0
  132       12.157943      7.98901197               0
  133      14.6927061      9.46233455               0
  134     -5.99942734      7.53934565               0
  135     -10.7726059      10.8115102               0
  136      18.9892649      13.3681423               0
  137     -14.9784162      16.8368807               0
  138     -15.5789869      18.3081334               0
  139      4.46502332      5.10751651               0
  140     -3.19419122      6.00391727               0
  141     -14.2649252      14.9298569               0
  142               0               5               0
  143      1.54508498      4.75528258               0
  144     -12.3211168      11.6108481               0
  145      20.5745967      14.2016186               0
  146     -16.5780664      18.7127687               0
  147     -1.54508497      4.75528258               0
  148     -13.7468224      12.6738236               0
  149      18.4015479       10.955461               0
  150       16.998865        9.486993               0
  151      2.93892627      4.04508497               0
  152     -16.3749906      17.1885147               0
  153      -15.800331      15.4833308               0
  154      19.8229901      12.0018278               0
  155     -10.5162958      8.53938195               0
  156     -4.91047209      4.99420584               0
  157      7.96357831       4.0473773               0
  158     -15.1952438      13.5055075               0
  159      10.9211542      4.76016666               0
  160     -2.93892626      4.04508497               0
  161      5.73683796      3.34578484               0
  162      14.1553217      6.08079329               0
  163      21.3945318      12.9334453               0
  164     -17.6776695      17.6776695               0
  165      4.04508498      2.93892626               0
  166      18.3729406      9.09170219               0
  167     -8.24426497      5.81501635               0
  168     -17.2728625      16.0006342               0
  169      19.3218148      9.87112767               0
  170     -14.8282571      11.3031975               0
  171     -16.6851201      14.1659514               0
  172     -13.6516292      9.62494922               0
  173      20.6322641      10.7409759               0
  174     -16.1191996      12.2008012               0
  175     -4.04508497      2.93892627               0
  176      18.7981418      7.91698591               0
  177      17.4072723      6.64303333               0
  178      22.1364007      11.6180793               0
  179     -18.7127687      16.5780665               0
  180      -6.4786498      3.51488972               0
  181      4.75528258      1.54508497               0
  182       19.962388      8.71913598               0
  183     -18.1729306      14.7817046               0
  184     -15.8231341      10.6487627               0
  185      6.47439689      1.37571865               0
  186     -17.5460528      12.9011439               0
  187      21.3096158      9.47560631               0
  188      19.5318478      7.23683649               0
  189     -15.7022719      9.57174484               0
  190      8.76361884      1.32602309               0
  191     -16.9072448      11.0933559               0
  192     -4.75528258      1.54508498               0
  193      20.5556724      7.65501041               0
  194      22.7974962      10.2603201               0
  195      -19.679587      15.4179718               0
  196      19.3588658       6.2072791               0
  197     -19.0541529      13.5422609               0
  198      -12.606723      5.54627629               0
  199     -10.1243966      3.68035835               0
  200               5 -2.89718395e-09               0
  201      11.7558953      1.34189273               0
  202     -14.9130529      7.30418077               0
  203     -18.3337856      11.6638258               0
  204      21.8925698       8.2190736               0
  205     -16.0595684      8.25706806               0
  206     -17.2747559      9.75619941               0
  207      20.8358838      6.44499555               0
  208     -8.00457958       1.7052517               0
  209      6.67353777    -0.613798545               0
  210      23.3754061      8.86512215               0
  211     -20.5745966      14.2016187               0
  212      17.9994009      3.67824979               0
  213              -5  8.75525014e-09               0
  214     -19.8803992      12.2850663               0
  215      19.6604593        4.504251               0
  216     -18.9076542      10.2747647               0
  217      22.3192773      6.91011209               0
  218      4.75528258     -1.54508497               0
  219      15.5975332      1.54941993               0
  220     -17.5502242      8.10694229               0
  221      8.94614618     -1.25654749               0
  222      21.1674072      5.05712736               0
  223      -11.956889      2.22174105               0
  224      23.8680217      7.43757633               0
  225     -21.3945318      12.9334454               0
  226     -20.5430841      10.9341318               0
  227     -4.75528258     -1.54508496               0
  228      6.32960805     -2.49528062               0
  229      22.6806341      5.53880288               0
  230     -19.4131031      8.72696929               0
  231      20.2697083      3.13503873               0
  232     -17.3300988      5.96876715               0
  233      4.04508497     -2.93892627               0
  234      21.4926515      3.74045999               0
  235      19.3323387      2.01629489               0
  236     -10.7884064     0.140372427               0
  237     -15.0449654      3.06083338               0
  238      11.8716951     -2.03999908               0
  239      24.2735454      5.98289159               0
  240     -22.1364006      11.6180793               0
  241     -21.1070666      9.49308127               0
  242     -4.04508497     -2.93892626               0
  243      22.9748351       4.1763297               0
  244      20.8891241      2.33045037               0
  245      2.93892625     -4.04508498               0
  246      -19.803959      7.10305074               0
  247      8.46020682     -3.65368517               0
  248      5.45717135     -4.19804431               0
  249      21.8279214      2.52957733               0
  250     -8.60746103     -1.99229637               0
  251      18.6332994    0.0446094002               0
  252      20.5697426      1.32673504               0
  253     -2.93892626     -4.04508497               0
  254      1.54508496     -4.75528258               0
  255      24.5904977      4.50637593               0
  256     -22.7974961      10.2603202               0
  257     -21.6745832       8.0509038               0
  258      23.2124536      2.78013985               0
  259     -1.54508497     -4.75528258               0
  260 -5.79437949e-09              -5               0
  261     -6.82250258     -3.65473803               0
  262      21.8465226      1.25685371               0
  263     -19.4253939      4.48516953               0
  264      4.09909659     -5.52150452               0
  265     -20.7938587      5.84590034               0
  266      20.4513997    -0.267228188               0
  267      15.6590624     -3.16961834               0
  268      24.8177219      3.01341699               0
  269     -23.3754061      8.86512221               0
  270      11.0566439     -4.99517979               0
  271      7.31919151      -5.8267872               0
  272     -18.4343512      2.46043101               0
  273     -5.11961339     -5.08546888               0
  274      23.3316544      1.36677491               0
  275      -22.307278      6.77485546               0
  276     -14.8967648    -0.893048595               0
  277      2.45808183     -6.53015586               0
  278      21.9755236    -0.190688008               0
  279      -21.580559      5.15132249               0
  280     -3.37437973     -6.18524471               0
  281     -21.1822534      4.07608299               0
  282     -1.52244747     -6.74361727               0
  283     0.481913871     -7.00089132               0
  284      24.9543889      1.50946242               0
  285     -23.8680217      7.43757638               0
  286     -22.7649343      5.55752434               0
  287      23.4271362   -0.0961086412               0
  288      5.55563064     -7.33644568               0
  289      19.1519258     -3.12004904               0
  290      20.9069949     -2.14327217               0
  291      22.1770357     -1.65626891               0
  292     -20.8581302      2.43109209               0
  293     -18.5689466     0.199202316               0
  294      14.0576018     -6.13419298               0
  295     -12.3035187     -4.28917273               0
  296      -8.8076533     -5.99610189               0
  297     -22.8649302      4.23674785               0
  298              25  -1.4485832e-08               0
  299     -24.2735454      5.98289165               0
  300      23.4687987     -1.53239986               0
  301      9.77098884     -8.10373585               0
  302       3.7062319       -8.842945               0
  303      22.5281518     -2.62205606               0
  304     -6.35597599      -7.6163607               0
  305      21.9295217     -3.39251165               0
  306     -20.9953177     0.769722952               0
  307     -22.8839907      2.70399679               0
  308       7.0595273     -9.07693521               0
  309      17.5832413     -6.06940227               0
  310      24.9543889     -1.50946245               0
  311     -24.5904977      4.50637598               0
  312       23.477898     -2.81738762               0
  313     -3.99442115     -8.97679474               0
  314       21.211701     -4.54729176               0
  315      19.3925896     -5.65275412               0
  316      1.02811926      -9.7466628               0
  317      -1.5641366     -9.54701528               0
  318     -19.9896456     -1.50170266               0
  319      16.2798043      -7.6176167               0
  320      13.2348967     -8.75435707               0
  321     -23.0269327      1.19890735               0
  322     -18.2271058     -3.20081179               0
  323      23.1615242     -4.06026961               0
  324      24.8177219     -3.01341702               0
  325     -24.8177218      3.01341705               0
  326     -21.6001912    -0.632077645               0
  327     -16.2523986     -5.15647998               0
  328      20.9822634     -6.21007446               0
  329       19.679045     -6.96923759               0
  330     -13.0407247      -7.4270624               0
  331      22.7725415     -5.38386761               0
  332     -10.3532888     -8.74095267               0
  333      18.9177724     -7.71762413               0
  334     -23.2670794     -0.21756866               0
  335      15.4775643     -9.34664332               0
  336      24.5904977     -4.50637595               0
  337     -24.9543889      1.50946248               0
  338     -22.1938612     -1.49866575               0
  339     -21.5623387     -2.37312353               0
  340      5.81919401     -11.7753863               0
  341      17.9674952     -8.88635997               0
  342      20.7267729     -7.53733452               0
  343     -19.2077296     -4.71975487               0
  344     -7.76113581     -10.6195068               0
  345      22.4297861     -6.85639843               0
  346     -20.8755907      -3.6915607               0
  347     -15.9456973     -7.23180875               0
  348     -23.4190536     -1.49079609               0
  349      10.1846848       -11.86542               0
  350      24.2735454     -5.98289161               0
  351             -25  4.37762016e-08               0
  352     -18.5332727     -5.90412667               0
  353       15.154959     -10.7141037               0
  354       13.492492     -11.2906741               0
  355       20.149634     -8.68511853               0
  356      17.1763714     -10.2455661               0
  357     -23.1740815     -2.75412392               0
  358      22.0135373     -8.20866682               0
  359     -1.65651395     -13.1107678               0
  360     -20.8396675     -5.06425021               0
  361      23.8680217     -7.43757635               0
  362     -24.9543889     -1.50946239               0
  363      19.4318067     -9.90970329               0
  364     -14.0669209      -9.6065213               0
  365      1.70453851      -13.692085               0
  366     -4.88451237     -12.9379175               0
  367     -18.2267406     -7.44536162               0
  368      16.3844624     -11.4230097               0
  369     -11.9488601     -10.9800414               0
  370     -22.8732509     -4.12805728               0
  371      13.4329976      -12.718617               0
  372     -16.2689787     -9.03170512               0
  373      21.4640202     -9.51469988               0
  374     -20.4578089     -6.38293676               0
  375       18.619817     -11.1300527               0
  376      15.3660629     -12.4071484               0
  377      12.1822895     -13.3794005               0
  378      23.3754061     -8.86512218               0
  379     -24.8177219     -3.01341696               0
  380     -22.6490202     -5.50909396               0
  381       20.792807     -10.7892232               0
  382     -18.2180367     -8.89357777               0
  383      17.8404563     -12.3252206               0
  384     -20.2099559     -7.75193328               0
  385      14.6242111     -13.4857765               0
  386     -9.83386358     -13.3179831               0
  387      22.7974961     -10.2603201               0
  388     -24.5904977      -4.5063759               0
  389      -15.179035     -11.1357198               0
  390      11.4961382     -14.5905227               0
  391      9.72350178     -14.9503974               0
  392      6.62600242     -15.3634741               0
  393     -16.8074784     -10.4434666               0
  394     -22.2638926      -6.8741886               0
  395      20.0306337     -12.0397209               0
  396      13.6218814     -14.4095048               0
  397      16.9006377     -13.3925289               0
  398     -13.6143459     -12.3292858               0
  399     -18.2963396     -10.1303046               0
  400     -19.8657617     -9.15183833               0
  401      22.1364006     -11.6180793               0
  402     -24.2735454     -5.98289156               0
  403     0.106035082     -16.3439654               0
  404      16.0217587     -14.4460985               0
  405     -1.88194533     -16.2660534               0
  406      12.5826234     -15.4417702               0
  407      19.2462486     -13.2588929               0
  408     -21.9533005     -8.23553707               0
  409     -12.3149368     -13.8935988               0
  410     -17.4855604     -11.4761369               0
  411     -18.3153163     -11.0116627               0
  412     -7.32373332     -15.6006934               0
  413      -16.262592     -12.2867367               0
  414     -19.6229616     -10.3490479               0
  415     -4.04388113       -16.41135               0
  416      9.16587909     -16.6290875               0
  417      11.3073614     -16.3372649               0
  418      21.3945318     -12.9334454               0
  419     -23.8680217      -7.4375763               0
  420      14.9774185     -15.4626322               0
  421      18.3273495     -14.3916053               0
  422     -15.0145515      -13.307783               0
  423      3.49142168     -17.3872402               0
  424     -21.4120925     -9.61279436               0
  425      7.55469591      -17.361775               0
  426      -19.164049     -11.4285466               0
  427      -10.358646     -15.7032114               0
  428      13.9188772     -16.4579449               0
  429     -23.3754061     -8.86512214               0
  430      20.5745966     -14.2016187               0
  431      17.4038444     -15.4845037               0
  432     -18.4073487     -12.3159532               0
  433     -13.9497307     -14.5562442               0
  434     -20.8988408      -10.874132               0
  435      10.2194396     -17.5750902               0
  436     -12.0288093     -15.5386074               0
  437     -5.73837587     -17.3555276               0
  438     -17.4014508     -13.2715012               0
  439     -8.80280487     -16.7583303               0
  440      12.7371361     -17.4547535               0
  441      16.3471567     -16.5369806               0
  442      5.77089869     -18.6209467               0
  443       19.679587     -15.4179718               0
  444     -22.7974962     -10.2603201               0
  445     -20.2379329      -12.093204               0
  446     -16.3052482     -14.3515911               0
  447     -7.35910988     -17.6337086               0
  448     -13.3620131     -15.8033672               0
  449     0.495512062      -19.073758               0
  450     -6.48819407     -18.1307704               0
  451     -8.16891503     -17.7318408               0
  452      8.83556696     -18.8607235               0
  453      15.2704192     -17.5458607               0
  454     -1.90938037     -19.0422227               0
  455      11.6245161     -18.4877387               0
  456     -19.4522221     -13.1990623               0
  457     -15.2872721     -15.4122776               0
  458      18.7127687     -16.5780665               0
  459     -22.1364006     -11.6180793               0
  460     -12.1244032     -16.8448779               0
  461     -10.8631298     -17.2910726               0
  462       -3.775495     -19.0075315               0
  463     -13.0206194     -16.6170907               0
  464      7.02597575     -19.6354393               0
  465     -18.5322996     -14.3019169               0
  466     -9.61761183     -18.0443863               0
  467      14.0977897     -18.5360656               0
  468     -5.33242492     -19.2108754               0
  469      -14.448893     -16.5015268               0
  470      3.35703701     -20.0388276               0
  471      10.5803697     -19.4794847               0
  472      17.6776695     -17.6776696               0
  473     -21.3945318     -12.9334454               0
  474       5.0115014     -20.0993324               0
  475     -8.62367121     -18.7189987               0
  476     -7.58097641     -19.0669264               0
  477     -17.5177183     -15.4148026               0
  478     -6.49258535       -19.37097               0
  479      6.02416987     -20.2866609               0
  480     -13.6675567     -17.3558363               0
  481      12.9379726     -19.4801328               0
  482      8.99752768     -20.3402632               0
  483      16.5780664     -18.7127687               0
  484     -20.5745966     -14.2016187               0
  485     -12.6790775     -18.0258891               0
  486      10.1149473     -20.2960894               0
  487     -16.5001113     -16.4843551               0
  488      1.54347584     -20.9610064               0
  489      7.59726577     -20.7861042               0
  490     -11.5315184     -18.6854121               0
  491       11.801047     -20.3379938               0
  492     -10.3459717     -19.3949907               0
  493      6.36166328      -21.253651               0
  494      15.4179718      -19.679587               0
  495      -19.679587     -15.4179718               0
  496     -15.5234921     -17.5252518               0
  497      5.01789828     -21.4635725               0
  498     -2.31488632     -21.2113391               0
  499     -9.16955442     -19.9996292               0
  500     -3.94463239     -21.1273733               0
  501    -0.679237128     -21.5467612               0
  502      10.7669447     -21.0685203               0
  503      3.65619412     -21.7282493               0
  504     -7.99392896     -20.4706629               0
  505     -5.42804751     -21.0311027               0
  506     -6.75084061     -20.7982964               0
  507     -14.5194579     -18.4461563               0
  508      14.2016186     -20.5745967               0
  509     -18.7127687     -16.5780665               0
  510      9.54520694      -21.536079               0
  511      2.24390912      -22.242844               0
  512     -13.4401842     -19.2796134               0
  513     0.582574975     -22.2171509               0
  514       8.1825185      -22.012394               0
  515      12.9334453     -21.3945318               0
  516     -17.6776695     -17.6776695               0
  517     -12.2426359     -20.0370176               0
  518      6.80731919     -22.4782662               0
  519      1.31619631     -22.7692057               0
  520     -11.0173071     -20.7627395               0
  521      5.40138804     -22.8393503               0
  522      11.6180793     -22.1364007               0
  523     -16.5780665     -18.7127687               0
  524     -9.73454664     -21.3726039               0
  525      4.00593207     -23.1677529               0
  526     -8.44882533     -21.9017408               0
  527      10.2603201     -22.7974962               0
  528     -15.4179718      -19.679587               0
  529     -7.08880064     -22.3204501               0
  530     -5.69735053     -22.6641497               0
  531      -4.2242674     -22.9147999               0
  532     -2.72629538     -23.1289992               0
  533      2.58620649     -23.5023231               0
  534     -1.22827938     -23.3452153               0
  535     0.149864873     -23.5916302               0
  536      8.86512214     -23.3754061               0
  537     -14.2016187     -20.5745966               0
  538      1.34757957     -23.7271366               0
  539       7.4375763     -23.8680217               0
  540     -12.9334454     -21.3945318               0
  541      5.98289157     -24.2735454               0
  542     -11.6180793     -22.1364006               0
  543      4.50637591     -24.5904977               0
  544     -10.2603202     -22.7974961               0
  545      3.01341697     -24.8177219               0
  546     -8.86512219     -23.3754061               0
  547       1.5094624     -24.9543889               0
  548     -7.43757636     -23.8680217               0
  549 -2.89716825e-08             -25               0
  550     -5.98289163     -24.2735454               0
  551     -1.50946246     -24.9543889               0
  552     -4.50637597     -24.5904977               0
  553     -3.01341703     -24.8177218               0
