1 484 495 465 456
2 495 509 477 465
3 509 516 487 477
4 516 523 496 487
5 523 528 507 496
6 528 537 512 507
7 537 540 517 512
8 540 542 520 517
9 542 544 524 520
10 544 546 526 524
11 546 548 529 526
12 548 550 530 529
13 550 552 531 530
14 552 553 532 531
15 553 551 534 532
16 551 549 535 534
17 549 547 538 535
18 547 545 533 538
19 545 543 525 533
20 543 541 521 525
21 541 539 518 521
22 539 536 514 518
23 536 527 510 514
24 527 522 502 510
25 522 515 491 502
26 515 508 481 491
27 508 494 467 481
28 494 483 453 467
29 483 472 441 453
30 472 458 431 441
31 458 443 421 431
32 443 430 407 421
33 473 484 456 445
34 459 473 445 434
35 444 459 434 424
36 429 444 424 408
37 419 429 408 394
38 402 419 394 380
39 388 402 380 370
40 379 388 370 357
41 362 379 357 348
42 351 362 348 334
43 337 351 334 321
44 325 337 321 307
45 311 325 307 297
46 299 311 297 286
47 285 299 286 275
48 269 285 275 257
49 256 269 257 241
50 240 256 241 226
51 225 240 226 214
52 211 225 214 197
53 195 211 197 183
54 179 195 183 168
55 164 179 168 152
56 146 164 152 138
57 131 146 138 126
58 115 131 126 116
59 101 115 116 102
60 89 101 102 90
61 79 89 90 77
62 72 79 77 70
63 60 72 70 57
64 52 60 57 46
65 36 52 46 34
66 26 36 34 24
67 16 26 24 17
68 9 16 17 10
69 4 9 10 5
70 1 4 5 2
71 3 1 2 6
72 8 3 6 12
73 15 8 12 19
74 25 15 19 28
75 35 25 28 38
76 51 35 38 47
77 59 51 47 56
78 71 59 56 67
79 78 71 67 75
80 88 78 75 87
81 100 88 87 99
82 114 100 99 109
83 130 114 109 119
84 145 130 119 136
85 163 145 136 154
86 178 163 154 173
87 194 178 173 187
88 210 194 187 204
89 224 210 204 217
90 239 224 217 229
91 255 239 229 243
92 268 255 243 258
93 284 268 258 274
94 298 284 274 287
95 310 298 287 300
96 324 310 300 312
97 336 324 312 323
98 350 336 323 331
99 361 350 331 345
100 378 361 345 358
101 387 378 358 373
102 401 387 373 381
103 418 401 381 395
104 430 418 395 407
105 254 260 283 277
106 260 259 282 283
107 245 254 277 264
108 259 253 280 282
109 253 242 273 280
110 233 245 264 248
111 218 233 248 228
112 200 218 228 209
113 181 200 209 185
114 165 181 185 161
115 151 165 161 139
116 143 151 139 124
117 242 227 261 273
118 227 213 250 261
119 142 143 124 121
120 147 142 121 125
121 160 147 125 140
122 175 160 140 156
123 192 175 156 180
124 213 192 180 208
125 250 213 208 236
126 441 431 404 420
127 431 421 397 404
128 421 407 383 397
129 453 441 420 428
130 407 395 375 383
131 395 381 363 375
132 381 373 355 363
133 373 358 342 355
134 358 345 328 342
135 345 331 314 328
136 467 453 428 440
137 331 323 305 314
138 323 312 303 305
139 312 300 291 303
140 300 287 278 291
141 287 274 262 278
142 274 258 249 262
143 258 243 234 249
144 243 229 222 234
145 229 217 207 222
146 217 204 193 207
147 204 187 182 193
148 187 173 169 182
149 173 154 149 169
150 154 136 128 149
151 136 119 107 128
152 119 109 99 107
153 99 87 92 107
154 87 75 74 92
155 75 67 66 74
156 67 56 55 66
157 56 47 48 55
158 47 38 43 48
159 38 28 32 43
160 28 19 22 32
161 19 12 18 22
162 12 6 13 18
163 6 2 7 13
164 2 5 11 7
165 5 10 14 11
166 10 17 21 14
167 17 24 29 21
168 24 34 37 29
169 34 46 49 37
170 46 57 61 49
171 57 70 73 61
172 70 77 81 73
173 77 90 93 81
174 90 102 106 93
175 102 116 123 106
176 116 126 138 123
177 481 467 440 455
178 491 481 455 471
179 502 491 471 486
180 510 502 486 482
181 514 510 482 489
182 518 514 489 493
183 521 518 493 497
184 525 521 497 503
185 533 525 503 511
186 538 533 511 519
187 535 538 519 513
188 534 535 513 501
189 532 534 501 498
190 531 532 498 500
191 530 531 500 505
192 529 530 505 506
193 526 529 506 504
194 524 526 504 499
195 520 524 499 492
196 517 520 492 490
197 512 517 490 485
198 507 512 485 480
199 496 507 480 469
200 487 496 469 457
201 477 487 457 446
202 465 477 446 438
203 456 465 438 432
204 445 456 432 426
205 434 445 426 414
206 424 434 414 400
207 408 424 400 384
208 394 408 384 374
209 380 394 374 360
210 370 380 360 346
211 357 370 346 339
212 348 357 339 338
213 334 348 338 326
214 321 334 326 306
215 307 321 306 292
216 297 307 292 281
217 286 297 281 279
218 275 286 279 265
219 257 275 265 246
220 241 257 246 230
221 226 241 230 216
222 214 226 216 203
223 197 214 203 186
224 183 197 186 171
225 138 152 137 123
226 152 168 153 137
227 168 183 171 153
228 208 180 167 199
229 180 156 134 167
230 156 140 111 134
231 140 125 103 111
232 125 121 98 103
233 121 124 104 98
234 124 139 117 104
235 139 161 157 117
236 161 185 190 157
237 185 209 221 190
238 209 228 247 221
239 228 248 271 247
240 248 264 288 271
241 264 277 302 288
242 277 283 316 302
243 283 282 317 316
244 282 280 313 317
245 280 273 304 313
246 273 261 296 304
247 261 250 295 296
248 295 250 236 276
249 208 199 223 236
250 81 93 82 73
251 106 123 137 120
252 93 106 120 105
253 137 153 141 120
254 153 171 158 141
255 171 186 174 158
256 186 203 191 174
257 203 216 206 191
258 216 230 220 206
259 230 246 232 220
260 246 265 263 232
261 265 279 281 263
262 281 292 272 263
263 326 338 339 318
264 339 346 322 318
265 343 360 374 352
266 374 384 367 352
267 384 400 382 367
268 400 414 399 382
269 414 426 411 399
270 426 432 410 411
271 432 438 413 410
272 438 446 422 413
273 446 457 433 422
274 448 469 480 463
275 497 493 479 474
276 503 497 474 470
277 493 489 464 479
278 489 482 452 464
279 482 486 471 452
280 471 455 435 452
281 455 440 417 435
282 440 428 406 417
283 428 420 396 406
284 420 404 385 396
285 404 397 376 385
286 397 383 368 376
287 383 375 356 368
288 375 363 341 356
289 363 355 333 341
290 355 342 329 333
291 342 328 315 329
292 328 314 289 315
293 314 305 290 289
294 305 303 291 290
295 291 278 266 290
296 278 262 252 266
297 262 249 244 252
298 249 234 231 244
299 234 222 215 231
300 222 207 196 215
301 207 193 188 196
302 193 182 176 188
303 182 169 166 176
304 169 149 150 166
305 511 503 470 488
306 519 511 488 513
307 501 513 488 449
308 498 501 449 454
309 500 498 454 462
310 505 500 462 468
311 506 505 468 478
312 504 506 478 476
313 499 504 476 475
314 492 499 475 466
315 490 492 466 461
316 485 490 461 460
317 480 485 460 463
318 149 128 129 150
319 128 107 112 129
320 107 92 94 112
321 92 74 76 94
322 74 66 58 76
323 66 55 50 58
324 55 48 43 50
325 43 32 39 50
326 32 22 30 39
327 22 18 27 30
328 18 13 20 27
329 13 7 11 20
330 11 14 23 20
331 14 21 31 23
332 21 29 33 31
333 29 37 41 33
334 37 49 54 41
335 49 61 65 54
336 61 73 82 65
337 296 295 330 332
338 304 296 332 344
339 313 304 344 366
340 317 313 366 359
341 316 317 359 365
342 302 316 365 340
343 288 302 340 308
344 271 288 308 301
345 247 271 301 270
346 221 247 270 238
347 190 221 238 201
348 157 190 201 159
349 117 157 159 122
350 134 111 91 110
351 167 134 110 155
352 199 167 155 198
353 111 103 83 91
354 103 98 80 83
355 98 104 84 80
356 104 117 86 84
357 188 176 177 196
358 346 360 343 322
359 422 433 409 398
360 413 422 398 389
361 50 39 45 58
362 449 488 470 423
363 454 449 403 405
364 462 454 405 415
365 468 462 415 437
366 478 468 437 450
367 306 326 318 293
368 292 306 293 272
369 476 478 450 447
370 475 476 447 451
371 466 475 451 439
372 461 466 439 427
373 460 461 427 436
374 427 386 409 436
375 352 367 347 327
376 367 382 372 347
377 463 460 436 448
378 469 448 433 457
379 436 409 433 448
380 86 117 122 95
381 120 141 127 105
382 141 158 148 127
383 158 174 170 148
384 174 191 184 170
385 191 206 189 184
386 206 220 205 189
387 220 232 202 205
388 263 272 237 232
389 330 295 327 347
390 343 352 327 322
391 76 58 45 68
392 30 27 45 39
393 94 76 95 108
394 112 94 108 133
395 150 129 112 133
396 166 150 177 176
397 199 198 237 223
398 198 155 172 202
399 202 232 237 198
400 205 202 172 189
401 236 223 237 276
402 318 322 276 293
403 27 20 40 45
404 20 23 42 40
405 23 31 44 42
406 31 33 53 44
407 33 41 54 53
408 54 65 69 53
409 65 82 85 69
410 82 93 105 97
411 464 452 425 442
412 452 435 416 425
413 435 417 391 416
414 417 406 390 391
415 479 464 442 474
416 470 474 442 423
417 406 396 377 390
418 396 385 371 377
419 385 376 354 371
420 376 368 353 354
421 368 356 335 353
422 356 341 319 335
423 341 333 309 319
424 333 329 315 309
425 315 289 267 309
426 290 266 251 289
427 266 252 235 251
428 252 244 231 235
429 235 231 215 212
430 80 84 63 62
431 83 80 62 64
432 53 69 64 44
433 83 64 69 91
434 44 64 62 42
435 42 62 63 40
436 84 86 68 63
437 95 122 132 108
438 40 63 68 45
439 122 159 162 132
440 162 133 108 132
441 159 201 219 162
442 201 238 267 219
443 238 270 294 267
444 267 289 251 219
445 251 235 212 219
446 150 133 162 177
447 267 294 319 309
448 162 219 212 177
449 196 177 212 215
450 270 301 320 294
451 319 294 320 335
452 353 335 320 354
453 320 301 349 354
454 371 354 349 377
455 390 377 349 391
456 349 340 392 391
457 392 425 416 391
458 340 365 423 392
459 425 392 423 442
460 403 365 359 405
461 359 366 415 405
462 386 427 439 412
463 439 451 447 412
464 412 366 344 386
465 447 450 437 412
466 344 332 369 386
467 369 332 330 364
468 409 386 369 398
469 330 347 372 364
470 91 69 85 110
471 155 110 113 135
472 382 399 393 372
473 399 411 410 393
474 364 372 393 389
475 393 410 413 389
476 184 189 172 170
477 113 110 85 96
478 85 82 97 96
479 97 105 127 118
480 148 170 172 144
481 127 148 144 118
482 96 97 118 113
483 113 118 144 135
484 144 172 155 135
485 237 272 293 276
486 349 301 308 340
487 68 86 95 76
488 364 389 398 369
489 276 322 327 295
490 423 365 403 449
491 412 437 415 366
